<?plantuml 1.2026.1?><svg xmlns="http://www.w3.org/2000/svg" xmlns:xlink="http://www.w3.org/1999/xlink" contentStyleType="text/css" data-diagram-type="DESCRIPTION" height="970px" preserveAspectRatio="none" style="width:1631px;height:970px;background:#FFFFFF;" version="1.1" viewBox="0 0 1631 970" width="1631px" zoomAndPan="magnify"><title>PageForge System Architecture</title><defs/><g><g class="title" data-source-line="2"><text fill="#000000" font-family="sans-serif" font-size="14" font-weight="bold" lengthAdjust="spacing" textLength="220.1912" x="698.4844" y="24.9659">PageForge System Architecture</text></g><!--cluster PageForge Platform--><g class="cluster" data-qualified-name="PageForge Platform" data-source-line="14" id="ent0005"><rect fill="none" height="792.96" rx="2.5" ry="2.5" style="stroke:#181818;stroke-width:1;" width="1111" x="143.16" y="171.6279"/><text fill="#000000" font-family="sans-serif" font-size="12" font-weight="bold" lengthAdjust="spacing" textLength="119.3409" x="638.9896" y="186.456">PageForge Platform</text></g><!--cluster Frontend & API Layer--><g class="cluster" data-qualified-name="PageForge Platform.Frontend . API Layer" data-source-line="16" id="ent0006"><rect fill="none" height="500.58" rx="2.5" ry="2.5" style="stroke:#181818;stroke-width:1;" width="421" x="421.16" y="214.6279"/><text fill="#000000" font-family="sans-serif" font-size="12" font-weight="bold" lengthAdjust="spacing" textLength="127.0689" x="568.1255" y="229.456">Frontend &amp; API Layer</text></g><!--cluster Build Pipeline--><g class="cluster" data-qualified-name="PageForge Platform.Build Pipeline" data-source-line="24" id="ent0012"><rect fill="none" height="346.3" rx="2.5" ry="2.5" style="stroke:#181818;stroke-width:1;" width="302" x="928.16" y="582.5279"/><text fill="#000000" font-family="sans-serif" font-size="12" font-weight="bold" lengthAdjust="spacing" textLength="81.5646" x="1038.3777" y="597.356">Build Pipeline</text></g><!--cluster Data Layer--><g class="cluster" data-qualified-name="PageForge Platform.Data Layer" data-source-line="30" id="ent0016"><rect fill="none" height="156.2" rx="2.5" ry="2.5" style="stroke:#181818;stroke-width:1;" width="485" x="324.16" y="784.3879"/><text fill="#000000" font-family="sans-serif" font-size="12" font-weight="bold" lengthAdjust="spacing" textLength="64.7645" x="534.2778" y="799.216">Data Layer</text></g><!--cluster Reverse Proxy & Serving--><g class="cluster" data-qualified-name="PageForge Platform.Reverse Proxy . Serving" data-source-line="36" id="ent0020"><rect fill="none" height="149.04" rx="2.5" ry="2.5" style="stroke:#181818;stroke-width:1;" width="166" x="167.16" y="574.3479"/><text fill="#000000" font-family="sans-serif" font-size="12" font-weight="bold" lengthAdjust="spacing" textLength="145.0331" x="177.6435" y="589.176">Reverse Proxy &amp; Serving</text></g><!--cluster External Services--><g class="cluster" data-qualified-name="External Services" data-source-line="41" id="ent0022"><rect fill="none" height="132.69" rx="2.5" ry="2.5" style="stroke:#181818;stroke-width:1;" width="347" x="1278.16" y="796.1379"/><text fill="#000000" font-family="sans-serif" font-size="12" font-weight="bold" lengthAdjust="spacing" textLength="102.0367" x="1400.6416" y="810.966">External Services</text></g><!--entity nextjs--><g class="entity" data-qualified-name="PageForge Platform.Frontend . API Layer.nextjs" data-source-line="17" id="ent0007"><rect fill="#F1F1F1" height="79.0323" rx="2.5" ry="2.5" style="stroke:#181818;stroke-width:0.5;" width="125.5246" x="445.4" y="268.6279"/><rect fill="#F1F1F1" height="10" style="stroke:#181818;stroke-width:0.5;" width="15" x="550.9246" y="273.6279"/><rect fill="#F1F1F1" height="2" style="stroke:#181818;stroke-width:0.5;" width="4" x="548.9246" y="275.6279"/><rect fill="#F1F1F1" height="2" style="stroke:#181818;stroke-width:0.5;" width="4" x="548.9246" y="279.6279"/><text fill="#000000" font-family="sans-serif" font-size="12" lengthAdjust="spacing" textLength="55.4764" x="460.4" y="301.456">Next.js 14</text><text fill="#000000" font-family="sans-serif" font-size="12" lengthAdjust="spacing" textLength="63.7445" x="460.4" y="317.8001">App Router</text><text fill="#000000" font-family="sans-serif" font-size="12" lengthAdjust="spacing" textLength="85.5246" x="460.4" y="334.1442">(Dashboard UI)</text></g><!--entity api--><g class="entity" data-qualified-name="PageForge Platform.Frontend . API Layer.api" data-source-line="18" id="ent0008"><rect fill="#F1F1F1" height="62.6882" rx="2.5" ry="2.5" style="stroke:#181818;stroke-width:0.5;" width="120.8446" x="488.74" y="636.5279"/><rect fill="#F1F1F1" height="10" style="stroke:#181818;stroke-width:0.5;" width="15" x="589.5846" y="641.5279"/><rect fill="#F1F1F1" height="2" style="stroke:#181818;stroke-width:0.5;" width="4" x="587.5846" y="643.5279"/><rect fill="#F1F1F1" height="2" style="stroke:#181818;stroke-width:0.5;" width="4" x="587.5846" y="647.5279"/><text fill="#000000" font-family="sans-serif" font-size="12" lengthAdjust="spacing" textLength="49.5123" x="503.74" y="669.356">REST API</text><text fill="#000000" font-family="sans-serif" font-size="12" lengthAdjust="spacing" textLength="80.8446" x="503.74" y="685.7001">(14 endpoints)</text></g><!--entity mw--><g class="entity" data-qualified-name="PageForge Platform.Frontend . API Layer.mw" data-source-line="19" id="ent0009"><rect fill="#F1F1F1" height="62.6882" rx="2.5" ry="2.5" style="stroke:#181818;stroke-width:0.5;" width="136.4447" x="613.94" y="436.6679"/><rect fill="#F1F1F1" height="10" style="stroke:#181818;stroke-width:0.5;" width="15" x="730.3847" y="441.6679"/><rect fill="#F1F1F1" height="2" style="stroke:#181818;stroke-width:0.5;" width="4" x="728.3847" y="443.6679"/><rect fill="#F1F1F1" height="2" style="stroke:#181818;stroke-width:0.5;" width="4" x="728.3847" y="447.6679"/><text fill="#000000" font-family="sans-serif" font-size="12" lengthAdjust="spacing" textLength="96.4447" x="628.94" y="469.496">Auth Middleware</text><text fill="#000000" font-family="sans-serif" font-size="12" lengthAdjust="spacing" textLength="86.2326" x="628.94" y="485.8401">(Edge Runtime)</text></g><!--entity auth--><g class="entity" data-qualified-name="PageForge Platform.Frontend . API Layer.auth" data-source-line="20" id="ent0010"><rect fill="#F1F1F1" height="62.6882" rx="2.5" ry="2.5" style="stroke:#181818;stroke-width:0.5;" width="119.8006" x="698.26" y="636.5279"/><rect fill="#F1F1F1" height="10" style="stroke:#181818;stroke-width:0.5;" width="15" x="798.0606" y="641.5279"/><rect fill="#F1F1F1" height="2" style="stroke:#181818;stroke-width:0.5;" width="4" x="796.0606" y="643.5279"/><rect fill="#F1F1F1" height="2" style="stroke:#181818;stroke-width:0.5;" width="4" x="796.0606" y="647.5279"/><text fill="#000000" font-family="sans-serif" font-size="12" lengthAdjust="spacing" textLength="69.4805" x="713.26" y="669.356">NextAuth v5</text><text fill="#000000" font-family="sans-serif" font-size="12" lengthAdjust="spacing" textLength="79.8006" x="713.26" y="685.7001">(JWT Sessions)</text></g><!--entity ws--><g class="entity" data-qualified-name="PageForge Platform.Frontend . API Layer.ws" data-source-line="21" id="ent0011"><rect fill="#F1F1F1" height="62.6882" rx="2.5" ry="2.5" style="stroke:#181818;stroke-width:0.5;" width="141.6767" x="437.32" y="436.6679"/><rect fill="#F1F1F1" height="10" style="stroke:#181818;stroke-width:0.5;" width="15" x="558.9967" y="441.6679"/><rect fill="#F1F1F1" height="2" style="stroke:#181818;stroke-width:0.5;" width="4" x="556.9967" y="443.6679"/><rect fill="#F1F1F1" height="2" style="stroke:#181818;stroke-width:0.5;" width="4" x="556.9967" y="447.6679"/><text fill="#000000" font-family="sans-serif" font-size="12" lengthAdjust="spacing" textLength="101.6767" x="452.32" y="469.496">WebSocket Server</text><text fill="#000000" font-family="sans-serif" font-size="12" lengthAdjust="spacing" textLength="65.7845" x="452.32" y="485.8401">(Build Logs)</text></g><!--entity queue--><g class="entity" data-qualified-name="PageForge Platform.Build Pipeline.queue" data-source-line="25" id="ent0013"><rect fill="#F1F1F1" height="62.6882" rx="2.5" ry="2.5" style="stroke:#181818;stroke-width:0.5;" width="98.7764" x="1115.77" y="636.5279"/><rect fill="#F1F1F1" height="10" style="stroke:#181818;stroke-width:0.5;" width="15" x="1194.5464" y="641.5279"/><rect fill="#F1F1F1" height="2" style="stroke:#181818;stroke-width:0.5;" width="4" x="1192.5464" y="643.5279"/><rect fill="#F1F1F1" height="2" style="stroke:#181818;stroke-width:0.5;" width="4" x="1192.5464" y="647.5279"/><text fill="#000000" font-family="sans-serif" font-size="12" lengthAdjust="spacing" textLength="41.6643" x="1130.77" y="669.356">BullMQ</text><text fill="#000000" font-family="sans-serif" font-size="12" lengthAdjust="spacing" textLength="58.7764" x="1130.77" y="685.7001">Job Queue</text></g><!--entity worker--><g class="entity" data-qualified-name="PageForge Platform.Build Pipeline.worker" data-source-line="26" id="ent0014"><rect fill="#F1F1F1" height="62.6882" rx="2.5" ry="2.5" style="stroke:#181818;stroke-width:0.5;" width="136.4087" x="943.96" y="636.5279"/><rect fill="#F1F1F1" height="10" style="stroke:#181818;stroke-width:0.5;" width="15" x="1060.3687" y="641.5279"/><rect fill="#F1F1F1" height="2" style="stroke:#181818;stroke-width:0.5;" width="4" x="1058.3687" y="643.5279"/><rect fill="#F1F1F1" height="2" style="stroke:#181818;stroke-width:0.5;" width="4" x="1058.3687" y="647.5279"/><text fill="#000000" font-family="sans-serif" font-size="12" lengthAdjust="spacing" textLength="73.4165" x="958.96" y="669.356">Build Worker</text><text fill="#000000" font-family="sans-serif" font-size="12" lengthAdjust="spacing" textLength="96.4087" x="958.96" y="685.7001">(Node.js Process)</text></g><!--entity docker--><g class="entity" data-qualified-name="PageForge Platform.Build Pipeline.docker" data-source-line="27" id="ent0015"><rect fill="#F1F1F1" height="62.6882" rx="2.5" ry="2.5" style="stroke:#181818;stroke-width:0.5;" width="140.4167" x="1066.95" y="850.1379"/><rect fill="#F1F1F1" height="10" style="stroke:#181818;stroke-width:0.5;" width="15" x="1187.3667" y="855.1379"/><rect fill="#F1F1F1" height="2" style="stroke:#181818;stroke-width:0.5;" width="4" x="1185.3667" y="857.1379"/><rect fill="#F1F1F1" height="2" style="stroke:#181818;stroke-width:0.5;" width="4" x="1185.3667" y="861.1379"/><text fill="#000000" font-family="sans-serif" font-size="12" lengthAdjust="spacing" textLength="81.7806" x="1081.95" y="882.966">Docker Engine</text><text fill="#000000" font-family="sans-serif" font-size="12" lengthAdjust="spacing" textLength="100.4167" x="1081.95" y="899.3101">(Build Containers)</text></g><!--entity mongo--><g class="entity" data-qualified-name="PageForge Platform.Data Layer.mongo" data-source-line="31" id="ent0017"><path d="M502.47,848.3879 C502.47,838.3879 565.1588,838.3879 565.1588,838.3879 C565.1588,838.3879 627.8476,838.3879 627.8476,848.3879 L627.8476,914.5917 C627.8476,924.5917 565.1588,924.5917 565.1588,924.5917 C565.1588,924.5917 502.47,924.5917 502.47,914.5917 L502.47,848.3879" fill="#F1F1F1" style="stroke:#181818;stroke-width:0.5;"/><path d="M502.47,848.3879 C502.47,858.3879 565.1588,858.3879 565.1588,858.3879 C565.1588,858.3879 627.8476,858.3879 627.8476,848.3879" fill="none" style="stroke:#181818;stroke-width:0.5;"/><text fill="#000000" font-family="sans-serif" font-size="14" lengthAdjust="spacing" textLength="66.2197" x="512.47" y="877.3539">MongoDB</text><text fill="#000000" font-family="sans-serif" font-size="14" lengthAdjust="spacing" textLength="105.3776" x="512.47" y="896.4218">(Users, Projects,</text><text fill="#000000" font-family="sans-serif" font-size="14" lengthAdjust="spacing" textLength="91.5456" x="512.47" y="915.4897">Deployments)</text></g><!--entity redis--><g class="entity" data-qualified-name="PageForge Platform.Data Layer.redis" data-source-line="32" id="ent0018"><path d="M663.13,848.3879 C663.13,838.3879 728.1568,838.3879 728.1568,838.3879 C728.1568,838.3879 793.1836,838.3879 793.1836,848.3879 L793.1836,914.5917 C793.1836,924.5917 728.1568,924.5917 728.1568,924.5917 C728.1568,924.5917 663.13,924.5917 663.13,914.5917 L663.13,848.3879" fill="#F1F1F1" style="stroke:#181818;stroke-width:0.5;"/><path d="M663.13,848.3879 C663.13,858.3879 728.1568,858.3879 728.1568,858.3879 C728.1568,858.3879 793.1836,858.3879 793.1836,848.3879" fill="none" style="stroke:#181818;stroke-width:0.5;"/><text fill="#000000" font-family="sans-serif" font-size="14" lengthAdjust="spacing" textLength="35.5319" x="673.13" y="877.3539">Redis</text><text fill="#000000" font-family="sans-serif" font-size="14" lengthAdjust="spacing" textLength="110.0536" x="673.13" y="896.4218">(Queue, PubSub,</text><text fill="#000000" font-family="sans-serif" font-size="14" lengthAdjust="spacing" textLength="100.4916" x="673.13" y="915.4897">Log Streaming)</text></g><!--entity minio--><g class="entity" data-qualified-name="PageForge Platform.Data Layer.minio" data-source-line="33" id="ent0019"><path d="M340.65,848.3879 C340.65,838.3879 404.1648,838.3879 404.1648,838.3879 C404.1648,838.3879 467.6796,838.3879 467.6796,848.3879 L467.6796,914.5917 C467.6796,924.5917 404.1648,924.5917 404.1648,924.5917 C404.1648,924.5917 340.65,924.5917 340.65,914.5917 L340.65,848.3879" fill="#F1F1F1" style="stroke:#181818;stroke-width:0.5;"/><path d="M340.65,848.3879 C340.65,858.3879 404.1648,858.3879 404.1648,858.3879 C404.1648,858.3879 467.6796,858.3879 467.6796,848.3879" fill="none" style="stroke:#181818;stroke-width:0.5;"/><text fill="#000000" font-family="sans-serif" font-size="14" lengthAdjust="spacing" textLength="40.6418" x="350.65" y="877.3539">MinIO</text><text fill="#000000" font-family="sans-serif" font-size="14" lengthAdjust="spacing" textLength="97.9296" x="350.65" y="896.4218">(S3-compatible</text><text fill="#000000" font-family="sans-serif" font-size="14" lengthAdjust="spacing" textLength="107.0296" x="350.65" y="915.4897">Artifact Storage)</text></g><!--entity caddy--><g class="entity" data-qualified-name="PageForge Platform.Reverse Proxy . Serving.caddy" data-source-line="37" id="ent0021"><rect fill="#F1F1F1" height="79.0323" rx="2.5" ry="2.5" style="stroke:#181818;stroke-width:0.5;" width="134.8127" x="182.75" y="628.3479"/><rect fill="#F1F1F1" height="10" style="stroke:#181818;stroke-width:0.5;" width="15" x="297.5627" y="633.3479"/><rect fill="#F1F1F1" height="2" style="stroke:#181818;stroke-width:0.5;" width="4" x="295.5627" y="635.3479"/><rect fill="#F1F1F1" height="2" style="stroke:#181818;stroke-width:0.5;" width="4" x="295.5627" y="639.3479"/><text fill="#000000" font-family="sans-serif" font-size="12" lengthAdjust="spacing" textLength="74.4485" x="197.75" y="661.176">Caddy Server</text><text fill="#000000" font-family="sans-serif" font-size="12" lengthAdjust="spacing" textLength="94.8127" x="197.75" y="677.5201">(Dynamic Routes</text><text fill="#000000" font-family="sans-serif" font-size="12" lengthAdjust="spacing" textLength="81.5406" x="197.75" y="693.8642">via Admin API)</text></g><!--entity github--><g class="entity" data-qualified-name="External Services.github" data-source-line="42" id="ent0023"><rect fill="#F1F1F1" height="62.6882" rx="2.5" ry="2.5" style="stroke:#181818;stroke-width:0.5;" width="139.3367" x="1294.49" y="850.1379"/><rect fill="#F1F1F1" height="10" style="stroke:#181818;stroke-width:0.5;" width="15" x="1413.8267" y="855.1379"/><rect fill="#F1F1F1" height="2" style="stroke:#181818;stroke-width:0.5;" width="4" x="1411.8267" y="857.1379"/><rect fill="#F1F1F1" height="2" style="stroke:#181818;stroke-width:0.5;" width="4" x="1411.8267" y="861.1379"/><text fill="#000000" font-family="sans-serif" font-size="12" lengthAdjust="spacing" textLength="79.1766" x="1309.49" y="882.966">GitHub OAuth</text><text fill="#000000" font-family="sans-serif" font-size="12" lengthAdjust="spacing" textLength="99.3367" x="1309.49" y="899.3101">(Token Exchange)</text></g><!--entity ghapi--><g class="entity" data-qualified-name="External Services.ghapi" data-source-line="43" id="ent0024"><rect fill="#F1F1F1" height="62.6882" rx="2.5" ry="2.5" style="stroke:#181818;stroke-width:0.5;" width="140.3927" x="1468.96" y="850.1379"/><rect fill="#F1F1F1" height="10" style="stroke:#181818;stroke-width:0.5;" width="15" x="1589.3527" y="855.1379"/><rect fill="#F1F1F1" height="2" style="stroke:#181818;stroke-width:0.5;" width="4" x="1587.3527" y="857.1379"/><rect fill="#F1F1F1" height="2" style="stroke:#181818;stroke-width:0.5;" width="4" x="1587.3527" y="861.1379"/><text fill="#000000" font-family="sans-serif" font-size="12" lengthAdjust="spacing" textLength="61.9684" x="1483.96" y="882.966">GitHub API</text><text fill="#000000" font-family="sans-serif" font-size="12" lengthAdjust="spacing" textLength="100.3927" x="1483.96" y="899.3101">(Repos, User Info)</text></g><!--entity user--><g class="entity" data-qualified-name="user" data-source-line="9" id="ent0002"><ellipse cx="67.1589" cy="54.0679" fill="#F1F1F1" rx="8" ry="8" style="stroke:#181818;stroke-width:0.5;"/><path d="M67.1589,62.0679 L67.1589,89.0679 M54.1589,70.0679 L80.1589,70.0679 M67.1589,89.0679 L54.1589,104.0679 M67.1589,89.0679 L80.1589,104.0679" fill="none" style="stroke:#181818;stroke-width:0.5;"/><text fill="#000000" font-family="sans-serif" font-size="14" lengthAdjust="spacing" textLength="30.6179" x="51.85" y="120.5339">User</text></g><!--entity inet--><g class="entity" data-qualified-name="inet" data-source-line="10" id="ent0003"><path d="M34.8604,292.8461 C38.5495,287.5112 42.601,287.0328 46.7676,292.3105 C49.7872,287.2427 53.1091,287.7389 56.2307,292.2094 C59.4671,286.7284 63.8129,287.38 67.3062,291.9257 C69.9021,285.3685 74.5368,285.2001 78.5673,290.5713 C82.1339,284.1052 88.0218,285.6303 90.9172,291.2568 C95.5791,287.0304 100.073,287.3232 102.8522,293.4311 C113.3426,294.4758 115.3328,302.0149 109.4883,309.7161 C113.6541,318.8889 112.0488,324.6615 101.0577,325.9755 C97.9356,330.3187 94.7602,330.5531 91.0227,326.732 C87.3427,331.2947 82.4521,331.7735 79.2355,326.1935 C76.1126,333.2525 71.9428,332.4077 67.2513,327.8057 C64.3172,331.9371 59.3374,332.2569 56.835,327.3104 C52.7069,332.0298 49.0133,332.7924 45.5872,326.5877 C41.8234,331.997 37.7127,331.6436 34.2049,326.3163 C23.1809,324.2021 21.111,317.5397 27.9414,308.9762 C23.4003,301.375 24.6724,294.1294 34.8604,292.8461" fill="#F1F1F1" style="stroke:#181818;stroke-width:0.5;"/><text fill="#000000" font-family="sans-serif" font-size="14" lengthAdjust="spacing" textLength="53.7318" x="40.29" y="313.5839">Internet</text></g><!--entity cf--><g class="entity" data-qualified-name="cf" data-source-line="12" id="ent0004"><rect fill="#ADD8E6" height="52.6882" rx="2.5" ry="2.5" style="stroke:#181818;stroke-width:0.5;" width="120.3207" x="7" y="441.6679"/><text fill="#000000" font-family="sans-serif" font-size="12" lengthAdjust="spacing" textLength="100.3207" x="17" y="464.496">Cloudflare Tunnel</text><text fill="#000000" font-family="sans-serif" font-size="12" lengthAdjust="spacing" textLength="55.8844" x="17" y="480.8401">(Optional)</text></g><!--link user to inet--><g class="link" data-entity-1="ent0002" data-entity-2="ent0003" data-link-type="dependency" data-source-line="47" id="lnk25"><path d="M67.16,125.1079 C67.16,170.8479 67.16,239.2079 67.16,277.1779" fill="none" id="user-to-inet" style="stroke:#181818;stroke-width:1;"/><polygon fill="#181818" points="67.16,283.1779,71.16,274.1779,67.16,278.1779,63.16,274.1779,67.16,283.1779" style="stroke:#181818;stroke-width:1;"/></g><!--link inet to cf--><g class="link" data-entity-1="ent0003" data-entity-2="ent0004" data-link-type="dependency" data-source-line="48" id="lnk26"><path d="M67.16,333.1279 C67.16,362.2779 67.16,405.2879 67.16,435.2279" fill="none" id="inet-to-cf" style="stroke:#181818;stroke-width:1;"/><polygon fill="#181818" points="67.16,441.2279,71.16,432.2279,67.16,436.2279,63.16,432.2279,67.16,441.2279" style="stroke:#181818;stroke-width:1;"/></g><!--link cf to caddy--><g class="link" data-entity-1="ent0004" data-entity-2="ent0021" data-link-type="dependency" data-source-line="49" id="lnk27"><path d="M90.71,494.4679 C121.99,528.2879 173.4566,583.9326 210.0266,623.4826" fill="none" id="cf-to-caddy" style="stroke:#181818;stroke-width:1;"/><polygon fill="#181818" points="214.1,627.8879,210.9268,618.5643,210.7055,624.2168,205.053,623.9955,214.1,627.8879" style="stroke:#181818;stroke-width:1;"/></g><!--link caddy to nextjs--><g class="link" data-entity-1="ent0021" data-entity-2="ent0007" data-link-type="dependency" data-source-line="52" id="lnk28"><path d="M262.9,627.8779 C279.84,579.7579 313.11,496.9179 359.16,436.6679 C385.21,402.5779 416.9373,374.794 447.2973,351.664" fill="none" id="caddy-to-nextjs" style="stroke:#181818;stroke-width:1;"/><polygon fill="#181818" points="452.07,348.0279,442.4869,350.3003,448.0928,351.058,447.335,356.6639,452.07,348.0279" style="stroke:#181818;stroke-width:1;"/><text fill="#000000" font-family="sans-serif" font-size="10" lengthAdjust="spacing" textLength="59.0099" x="360.16" y="472.1979">dashboard.*</text></g><!--link caddy to minio--><g class="link" data-entity-1="ent0021" data-entity-2="ent0019" data-link-type="dependency" data-source-line="53" id="lnk29"><path d="M205.72,707.7079 C190.1,726.1379 179.12,748.4379 191.16,768.3879 C223.29,821.5979 284.2453,849.0863 334.5053,864.2363" fill="none" id="caddy-to-minio" style="stroke:#181818;stroke-width:1;"/><polygon fill="#181818" points="340.25,865.9679,332.7874,859.5407,335.4628,864.5249,330.4785,867.2003,340.25,865.9679" style="stroke:#181818;stroke-width:1;"/><g data-visibility-modifier="IE_MANDATORY"><ellipse cx="197.16" cy="754.5079" fill="none" rx="3" ry="3" style="stroke:#000000;stroke-width:1;"/></g><text fill="#000000" font-family="sans-serif" font-size="10" lengthAdjust="spacing" textLength="38.6" x="212.365" y="751.0779">.domain</text><text fill="#000000" font-family="sans-serif" font-size="10" lengthAdjust="spacing" textLength="55.01" x="204.16" y="764.6979">(static sites)</text></g><!--link nextjs to mw--><g class="link" data-entity-1="ent0007" data-entity-2="ent0009" data-link-type="dependency" data-source-line="56" id="lnk30"><path d="M550.73,347.7679 C580.71,374.9679 615.8659,406.8668 643.7359,432.1468" fill="none" id="nextjs-to-mw" style="stroke:#181818;stroke-width:1;"/><polygon fill="#181818" points="648.18,436.1779,644.2012,427.1685,644.4766,432.8187,638.8264,433.094,648.18,436.1779" style="stroke:#181818;stroke-width:1;"/><text fill="#000000" font-family="sans-serif" font-size="10" lengthAdjust="spacing" textLength="55.08" x="611.75" y="396.3579">All requests</text></g><!--link mw to auth--><g class="link" data-entity-1="ent0009" data-entity-2="ent0010" data-link-type="dependency" data-source-line="57" id="lnk31"><path d="M703.25,499.7579 C708.96,508.9879 714.77,519.3379 719.16,529.3479 C734.65,564.6979 744.4239,601.9796 750.7139,630.4096" fill="none" id="mw-to-auth" style="stroke:#181818;stroke-width:1;"/><polygon fill="#181818" points="752.01,636.2679,753.9714,626.6163,750.9299,631.386,746.1603,628.3445,752.01,636.2679" style="stroke:#181818;stroke-width:1;"/><text fill="#000000" font-family="sans-serif" font-size="10" lengthAdjust="spacing" textLength="66.22" x="730.16" y="548.0379">JWT validation</text></g><!--link mw to api--><g class="link" data-entity-1="ent0009" data-entity-2="ent0008" data-link-type="dependency" data-source-line="58" id="lnk32"><path d="M613.84,493.8479 C607.88,495.7879 601.93,497.6479 596.16,499.3479 C540.94,515.6179 505.84,484.1779 470.16,529.3479 C462.17,539.4679 466.17,546.0979 470.16,558.3479 C479.75,587.8279 496.7226,611.4656 514.6426,631.7056" fill="none" id="mw-to-api" style="stroke:#181818;stroke-width:1;"/><polygon fill="#181818" points="518.62,636.1979,515.6488,626.8079,515.3055,632.4543,509.6591,632.1111,518.62,636.1979" style="stroke:#181818;stroke-width:1;"/><text fill="#000000" font-family="sans-serif" font-size="10" lengthAdjust="spacing" textLength="78.6799" x="471.16" y="548.0379">Protected routes</text></g><!--link nextjs to ws--><g class="link" data-entity-1="ent0007" data-entity-2="ent0011" data-link-type="dependency" data-source-line="59" id="lnk33"><path d="M508.16,347.7679 C508.16,374.9679 508.16,404.8979 508.16,430.1779" fill="none" id="nextjs-to-ws" style="stroke:#181818;stroke-width:1;"/><polygon fill="#181818" points="508.16,436.1779,512.16,427.1779,508.16,431.1779,504.16,427.1779,508.16,436.1779" style="stroke:#181818;stroke-width:1;"/><text fill="#000000" font-family="sans-serif" font-size="10" lengthAdjust="spacing" textLength="52.02" x="509.16" y="389.3579">WebSocket</text><text fill="#000000" font-family="sans-serif" font-size="10" lengthAdjust="spacing" textLength="51.81" x="509.265" y="402.9779">(build logs)</text></g><!--link api to mongo--><g class="link" data-entity-1="ent0008" data-entity-2="ent0017" data-link-type="dependency" data-source-line="62" id="lnk34"><path d="M514.66,699.5679 C499.54,711.3879 480.98,723.8379 462.16,731.3879 C450.29,736.1479 413.55,729.7279 405.16,739.3879 C396.7,749.1079 396.51,758.8279 405.16,768.3879 C417.15,781.6279 469.55,767.6979 485.16,776.3879 C510.26,790.3479 526.8981,810.6602 540.5081,832.9002" fill="none" id="api-to-mongo" style="stroke:#181818;stroke-width:1;"/><polygon fill="#181818" points="543.64,838.0179,542.354,828.2534,541.0301,833.7531,535.5304,832.4292,543.64,838.0179" style="stroke:#181818;stroke-width:1;"/><text fill="#000000" font-family="sans-serif" font-size="10" lengthAdjust="spacing" textLength="80.5399" x="406.16" y="758.0779">CRUD operations</text></g><!--link api to redis--><g class="link" data-entity-1="ent0008" data-entity-2="ent0018" data-link-type="dependency" data-source-line="63" id="lnk35"><path d="M529.75,699.5779 C518.65,721.4179 510.01,750.0279 527.16,768.3879 C545.11,787.5879 621.88,764.1879 645.16,776.3879 C671.06,789.9579 688.4208,810.4683 702.6008,832.8683" fill="none" id="api-to-redis" style="stroke:#181818;stroke-width:1;"/><polygon fill="#181818" points="705.81,837.9379,704.3759,828.194,703.1356,833.7133,697.6164,832.473,705.81,837.9379" style="stroke:#181818;stroke-width:1;"/><text fill="#000000" font-family="sans-serif" font-size="10" lengthAdjust="spacing" textLength="39.92" x="528.16" y="758.0779">Pub/Sub</text></g><!--link api to minio--><g class="link" data-entity-1="ent0008" data-entity-2="ent0019" data-link-type="dependency" data-source-line="64" id="lnk36"><path d="M515.76,699.6479 C500.55,711.7779 481.61,724.4479 462.16,731.3879 C448.63,736.2079 343,728.9179 333.16,739.3879 C306.58,767.6579 327.0651,803.3292 354.2951,833.5692" fill="none" id="api-to-minio" style="stroke:#181818;stroke-width:1;"/><polygon fill="#181818" points="358.31,838.0279,355.2601,828.6632,354.9642,834.3123,349.3151,834.0164,358.31,838.0279" style="stroke:#181818;stroke-width:1;"/><text fill="#000000" font-family="sans-serif" font-size="10" lengthAdjust="spacing" textLength="56.1" x="334.16" y="758.0779">File uploads</text></g><!--link api to queue--><g class="link" data-entity-1="ent0008" data-entity-2="ent0013" data-link-type="dependency" data-source-line="65" id="lnk37"><path d="M567.56,636.1079 C584.05,611.1179 610.75,578.1379 644.16,563.3579 C674.24,550.0479 685.27,563.2279 718.16,563.3579 C802.61,563.6879 1023.96,526.0379 1098.16,566.3479 C1125.44,581.1679 1141.0855,606.9464 1151.5055,630.8864" fill="none" id="api-to-queue" style="stroke:#181818;stroke-width:1;"/><polygon fill="#181818" points="1153.9,636.3879,1153.9758,626.5394,1151.9045,631.8034,1146.6405,629.7321,1153.9,636.3879" style="stroke:#181818;stroke-width:1;"/><text fill="#000000" font-family="sans-serif" font-size="10" lengthAdjust="spacing" textLength="72.5599" x="645.16" y="548.0379">Enqueue builds</text></g><!--link api to github--><g class="link" data-entity-1="ent0008" data-entity-2="ent0023" data-link-type="dependency" data-source-line="66" id="lnk38"><path d="M600.9,699.6879 C624.52,712.0679 653.37,724.9279 681.16,731.3879 C710.87,738.2879 1202.22,727.1479 1230.16,739.3879 C1281.99,762.0879 1320.0722,810.4689 1342.4822,844.6789" fill="none" id="api-to-github" style="stroke:#181818;stroke-width:1;"/><polygon fill="#181818" points="1345.77,849.6979,1344.1843,839.9775,1343.0302,845.5154,1337.4923,844.3613,1345.77,849.6979" style="stroke:#181818;stroke-width:1;"/><text fill="#000000" font-family="sans-serif" font-size="10" lengthAdjust="spacing" textLength="52.7" x="1275.52" y="758.0779">OAuth flow</text></g><!--link api to ghapi--><g class="link" data-entity-1="ent0008" data-entity-2="ent0024" data-link-type="dependency" data-source-line="67" id="lnk39"><path d="M600.58,699.5479 C624.25,711.9879 653.24,724.9279 681.16,731.3879 C752.07,747.7879 1264.33,727.6679 1336.16,739.3879 C1389.15,748.0279 1406.55,746.5079 1451.16,776.3879 C1479.87,795.6079 1501.0702,821.8104 1516.9002,845.0304" fill="none" id="api-to-ghapi" style="stroke:#181818;stroke-width:1;"/><polygon fill="#181818" points="1520.28,849.9879,1518.5154,840.2984,1517.4635,845.8566,1511.9053,844.8048,1520.28,849.9879" style="stroke:#181818;stroke-width:1;"/><text fill="#000000" font-family="sans-serif" font-size="10" lengthAdjust="spacing" textLength="45.5799" x="1439.53" y="758.0779">List repos</text></g><!--link queue to redis--><g class="link" data-entity-1="ent0013" data-entity-2="ent0018" data-link-type="dependency" data-source-line="70" id="lnk40"><path d="M1140.1,699.4279 C1128.6,711.3679 1114,723.9579 1098.16,731.3879 C1072.61,743.3679 1060.8,727.5879 1035.16,739.3879 C1017.72,747.4079 1020.68,760.5379 1003.16,768.3879 C972.57,782.0879 960.25,766.6979 928.16,776.3879 C880.75,790.6879 836.5336,813.2391 798.7036,835.4591" fill="none" id="queue-to-redis" style="stroke:#181818;stroke-width:1;"/><polygon fill="#181818" points="793.53,838.4979,803.3162,837.3888,797.8413,835.9656,799.2645,830.4907,793.53,838.4979" style="stroke:#181818;stroke-width:1;"/><text fill="#000000" font-family="sans-serif" font-size="10" lengthAdjust="spacing" textLength="53.5099" x="1036.16" y="758.0779">Job storage</text></g><!--link redis to worker--><g class="link" data-entity-1="ent0018" data-entity-2="ent0014" data-link-type="dependency" data-source-line="71" id="lnk41"><path d="M793.46,838.2879 C824.21,817.8779 861.1,792.5879 893.16,768.3879 C909.28,756.2179 942.7996,728.0252 971.5696,703.5552" fill="none" id="redis-to-worker" style="stroke:#181818;stroke-width:1;"/><polygon fill="#181818" points="976.14,699.6679,966.6928,702.4519,972.3313,702.9074,971.8759,708.5458,976.14,699.6679" style="stroke:#181818;stroke-width:1;"/><text fill="#000000" font-family="sans-serif" font-size="10" lengthAdjust="spacing" textLength="68.7899" x="928.91" y="758.0779">Job processing</text></g><!--link worker to redis--><g class="link" data-entity-1="ent0014" data-entity-2="ent0018" data-link-type="dependency" data-source-line="74" id="lnk44"><path d="M943.52,692.8279 C895.04,710.1279 836.99,731.7279 827.16,739.3879 C793.28,765.7679 769.1754,801.6583 751.9854,832.7183" fill="none" id="worker-to-redis" style="stroke:#181818;stroke-width:1;"/><polygon fill="#181818" points="749.08,837.9679,756.9378,832.0304,751.5012,833.5932,749.9383,828.1565,749.08,837.9679" style="stroke:#181818;stroke-width:1;"/><text fill="#000000" font-family="sans-serif" font-size="10" lengthAdjust="spacing" textLength="56.6799" x="828.16" y="751.0779">Publish logs</text><text fill="#000000" font-family="sans-serif" font-size="10" lengthAdjust="spacing" textLength="42.2" x="835.4" y="764.6979">(PubSub)</text></g><!--link worker to docker--><g class="link" data-entity-1="ent0014" data-entity-2="ent0015" data-link-type="dependency" data-source-line="72" id="lnk42"><path d="M1060,699.5679 C1074.04,710.6279 1088.26,724.1679 1098.16,739.3879 C1120.2,773.2579 1129.0844,813.545 1133.2744,843.705" fill="none" id="worker-to-docker" style="stroke:#181818;stroke-width:1;"/><polygon fill="#181818" points="1134.1,849.6479,1136.8235,840.1831,1133.412,844.6955,1128.8996,841.2839,1134.1,849.6479" style="stroke:#181818;stroke-width:1;"/><text fill="#000000" font-family="sans-serif" font-size="10" lengthAdjust="spacing" textLength="59.9599" x="1121.775" y="751.0779">Create &amp; run</text><text fill="#000000" font-family="sans-serif" font-size="10" lengthAdjust="spacing" textLength="75.8099" x="1113.85" y="764.6979">build containers</text></g><!--link worker to mongo--><g class="link" data-entity-1="ent0014" data-entity-2="ent0017" data-link-type="dependency" data-source-line="73" id="lnk43"><path d="M943.59,699.1379 C913.12,711.2579 876.45,724.0679 842.16,731.3879 C791.19,742.2679 773.82,720.7079 725.16,739.3879 C705.65,746.8679 707.2,759.7779 688.16,768.3879 C670.45,776.3879 661.74,766.2279 645.16,776.3879 C620.96,791.2079 604.5776,811.1609 590.8476,832.9609" fill="none" id="worker-to-mongo" style="stroke:#181818;stroke-width:1;"/><polygon fill="#181818" points="587.65,838.0379,595.831,832.5542,590.3146,833.8071,589.0617,828.2908,587.65,838.0379" style="stroke:#181818;stroke-width:1;"/><text fill="#000000" font-family="sans-serif" font-size="10" lengthAdjust="spacing" textLength="65.66" x="726.16" y="751.0779">Update status</text><text fill="#000000" font-family="sans-serif" font-size="10" lengthAdjust="spacing" textLength="29.49" x="744.245" y="764.6979">&amp; logs</text></g><!--link worker to minio--><g class="link" data-entity-1="ent0014" data-entity-2="ent0019" data-link-type="dependency" data-source-line="75" id="lnk45"><path d="M943.71,699.7079 C913.26,711.9279 876.57,724.6579 842.16,731.3879 C816.19,736.4579 628.68,729.4479 604.16,739.3879 C586.37,746.5879 589.73,760.6679 572.16,768.3879 C536.61,784.0079 519.22,757.7479 485.16,776.3879 C459.85,790.2379 442.9914,810.5684 429.1914,832.8284" fill="none" id="worker-to-minio" style="stroke:#181818;stroke-width:1;"/><polygon fill="#181818" points="426.03,837.9279,434.1719,832.3862,428.6645,833.6783,427.3725,828.171,426.03,837.9279" style="stroke:#181818;stroke-width:1;"/><text fill="#000000" font-family="sans-serif" font-size="10" lengthAdjust="spacing" textLength="74.63" x="605.16" y="758.0779">Upload artifacts</text></g><!--link worker to caddy--><g class="link" data-entity-1="ent0014" data-entity-2="ent0021" data-link-type="dependency" data-source-line="76" id="lnk46"><path d="M971.92,636.0379 C939.07,612.0679 890.36,580.9279 842.16,566.3479 C736.23,534.3179 444.51,519.6879 344.16,566.3479 C315.85,579.5179 295.6203,600.6658 279.0503,623.0458" fill="none" id="worker-to-caddy" style="stroke:#181818;stroke-width:1;"/><polygon fill="#181818" points="275.48,627.8679,284.0502,623.0149,278.4552,623.8495,277.6207,618.2545,275.48,627.8679" style="stroke:#181818;stroke-width:1;"/><text fill="#000000" font-family="sans-serif" font-size="10" lengthAdjust="spacing" textLength="79.6699" x="558.66" y="541.0379">Configure routes</text><text fill="#000000" font-family="sans-serif" font-size="10" lengthAdjust="spacing" textLength="55.08" x="570.955" y="554.6579">(Admin API)</text></g><!--link ws to redis--><g class="link" data-entity-1="ent0011" data-entity-2="ent0018" data-link-type="dependency" data-source-line="79" id="lnk47"><path d="M468.04,499.7279 C446.94,517.4479 421.86,541.1579 404.16,566.3479 C358.26,631.6879 389.84,675.1379 333.16,731.3879 C326.66,737.8379 319.23,731.7479 314.16,739.3879 C307.03,750.1179 305.16,759.1579 314.16,768.3879 C327.01,781.5479 628.69,768.1979 645.16,776.3879 C671.56,789.4879 689.0779,810.275 703.1979,832.945" fill="none" id="ws-to-redis" style="stroke:#181818;stroke-width:1;"/><polygon fill="#181818" points="706.37,838.0379,705.0071,828.2838,703.7266,833.7938,698.2166,832.5133,706.37,838.0379" style="stroke:#181818;stroke-width:1;"/><text fill="#000000" font-family="sans-serif" font-size="10" lengthAdjust="spacing" textLength="58.1699" x="408.795" y="665.0579">Subscribe to</text><text fill="#000000" font-family="sans-serif" font-size="10" lengthAdjust="spacing" textLength="65.44" x="405.16" y="678.6779">build-logs:{id}</text></g><?plantuml-src RLLDSzis4BtpLs2KcRJEn6wJfXSVEYDRSgkC7IkIDJxKFO0aHC420HOVbbMF_tlV0ZH5ARfuQEo-tRSVR-MbLu9DUIMkZAq4cs-T5pKRsc8blIXyi2BBt5hgXbjUiyBKZT52-okZ_Lp-9zYdpprpmujr3FLc_D8pMeJZkbBYE9PRQpOxqwzPnWjlB1iidB03nXqB-CWAPKB91XFjXTN2HuF4HvPryTdWafoMYbl1xeBMGZtedsyRButcwYH2YYLxToshbRzGGUnXTxsOAkwNnjO3zf9bZFLyhYnu2bsozsmudR1hlYMABt1YknQnlx-9Pt_swD261pri6ZOp0Qp1PSJTAZVSbcmnEVc7-6YuFhh30BFn_8uo0FBf2qF2naZjNOBmHXxw3uDViHjPbafiK3nWunA5p8BsiXO9Lc-EqOp8fz-1-7f_n-R2EJJhBH5iXvXxaSzDiHOUllOf5dKHf2hPjQbQs8RAUJteN7AQoaOeJEr8pow2KZVV7_HNaxFlGGGHO_rBNp-wKgnxOzSn_pTJ2khsr9e2_5iIqNg8715royQw0ecE-YM6ol5WMsmPlOuKCUAUxm-zn4lE7MmtHbTcT86WjBVk8z5v1DHzVD0ZqIYphGMDC6vXJSu70MQYb0xmM3pW8P-7760qbisz5RoMkafmIww7-QMUt08-_-sK2kPUvWeb3gsNImWA8Op5XhVvfPRcI84pWP4Y6hW_Rx7aD6DaFJAkIrwMszqEZBOQ_8gqwQZYIN8sB966jZXrjI14pFcwfxlnCocQgvGC4qpPUhd-bFwlaBDRsbNakZDheTdukLWXGhlSbVIha1-59HdDH6Cm59eDc-YbQM4h4XFu_9GiIsKs6PqRTdhwHpelz2V-Lomp78_u5Ii19ZN1ecOqAOlFqI69cfrZFAtUppxqpB7xi7uuAqsDnGCzvp6mWZdSNdT2eRjBumtBSLtncRLXOuWDy4EbC3n8n7cNuOKCf5cOICnFN4di1_JS6Hi96uPB5rwKaRbm_RWROjrf7CJog115uYPQTFN0YDOkesYH2oqpO9UpnOYPHjYOqtNskAsKD-I_OALtkBODLn9h4A0GNkv0KVWmZdNwYZnsvZHlsEDIfBbrjbMgyrewZ-IOEp5FKc_Q0vIbg7rwT7XS4acMtc93uXrfpKswC3JizfrSqhcW1a2aNa0sDc2cgND5TrlwaBUMBPgI43Jz0DMyZutkE_PwfwHRHJkcaex3oLx8jfkBs4ZygYRTxqLBAtXE1syfA_p4jnk0Y3knKhEw3SWsRey7ihh2obnW2zeIJudJ-OiiNxF_0G00?></g></svg>