<?plantuml 1.2026.1?><svg xmlns="http://www.w3.org/2000/svg" xmlns:xlink="http://www.w3.org/1999/xlink" contentStyleType="text/css" data-diagram-type="CLASS" height="1128px" preserveAspectRatio="none" style="width:767px;height:1128px;background:#FFFFFF;" version="1.1" viewBox="0 0 767 1128" width="767px" zoomAndPan="magnify"><title>PageForge Database Schema (MongoDB)</title><defs/><g><g class="title" data-source-line="2"><text fill="#000000" font-family="sans-serif" font-size="14" font-weight="bold" lengthAdjust="spacing" textLength="282.9529" x="235.0484" y="24.9659">PageForge Database Schema (MongoDB)</text></g><!--class users--><g class="entity" data-qualified-name="users" data-source-line="7" id="ent0002"><rect fill="#F1F1F1" height="184.1999" rx="2.5" ry="2.5" style="stroke:#181818;stroke-width:0.5;" width="217.4299" x="126.71" y="47.0679"/><ellipse cx="218.4099" cy="63.0679" fill="#ADD1B2" rx="11" ry="11" style="stroke:#181818;stroke-width:1;"/><path d="M214.7693,69.5679 L214.7693,57.4273 L222.4256,57.4273 L222.4256,59.5523 L217.1443,59.5523 L217.1443,62.2085 L222.1599,62.2085 L222.1599,64.3335 L217.1443,64.3335 L217.1443,67.4429 L222.4256,67.4429 L222.4256,69.5679 L214.7693,69.5679 Z " fill="#000000"/><text fill="#000000" font-family="sans-serif" font-size="10" lengthAdjust="spacing" textLength="25.53" x="238.9099" y="66.9479">users</text><line style="stroke:#181818;stroke-width:0.5;" x1="127.71" x2="343.1399" y1="79.0679" y2="79.0679"/><g data-visibility-modifier="IE_MANDATORY"><ellipse cx="137.71" cy="91.3779" fill="#000000" rx="3" ry="3" style="stroke:#000000;stroke-width:1;"/></g><text fill="#000000" font-family="sans-serif" font-size="10" lengthAdjust="spacing" textLength="86.1999" x="146.71" y="93.7579">_id : ObjectId &#171;PK&#187;</text><line style="stroke:#181818;stroke-width:1;" x1="127.71" x2="343.1399" y1="100.6879" y2="100.6879"/><g data-visibility-modifier="IE_MANDATORY"><ellipse cx="137.71" cy="112.9979" fill="#000000" rx="3" ry="3" style="stroke:#000000;stroke-width:1;"/></g><text fill="#000000" font-family="sans-serif" font-size="10" lengthAdjust="spacing" textLength="62.7999" x="146.71" y="115.3779">name : String</text><g data-visibility-modifier="IE_MANDATORY"><ellipse cx="137.71" cy="126.6179" fill="#000000" rx="3" ry="3" style="stroke:#000000;stroke-width:1;"/></g><text fill="#000000" font-family="sans-serif" font-size="10" lengthAdjust="spacing" textLength="150.3799" x="146.71" y="128.9979">email : String &#171;unique, indexed&#187;</text><g data-visibility-modifier="IE_MANDATORY"><ellipse cx="137.71" cy="140.2379" fill="#000000" rx="3" ry="3" style="stroke:#000000;stroke-width:1;"/></g><text fill="#000000" font-family="sans-serif" font-size="10" lengthAdjust="spacing" textLength="105.5399" x="146.71" y="142.6179">passwordHash : String</text><text fill="#000000" font-family="sans-serif" font-size="10" lengthAdjust="spacing" textLength="191.4299" x="146.71" y="156.2379">githubAccessToken : String &#171;select:false&#187;</text><text fill="#000000" font-family="sans-serif" font-size="10" lengthAdjust="spacing" textLength="87.3199" x="146.71" y="169.8578">githubId : Number</text><text fill="#000000" font-family="sans-serif" font-size="10" lengthAdjust="spacing" textLength="115.5199" x="146.71" y="183.4778">githubUsername : String</text><text fill="#000000" font-family="sans-serif" font-size="10" lengthAdjust="spacing" textLength="121.4599" x="146.71" y="197.0978">githubConnectedAt : Date</text><g data-visibility-modifier="IE_MANDATORY"><ellipse cx="137.71" cy="208.3378" fill="#000000" rx="3" ry="3" style="stroke:#000000;stroke-width:1;"/></g><text fill="#000000" font-family="sans-serif" font-size="10" lengthAdjust="spacing" textLength="109.8499" x="146.71" y="210.7178">createdAt : Date &#171;auto&#187;</text><g data-visibility-modifier="IE_MANDATORY"><ellipse cx="137.71" cy="221.9578" fill="#000000" rx="3" ry="3" style="stroke:#000000;stroke-width:1;"/></g><text fill="#000000" font-family="sans-serif" font-size="10" lengthAdjust="spacing" textLength="113.7599" x="146.71" y="224.3378">updatedAt : Date &#171;auto&#187;</text></g><!--class projects--><g class="entity" data-qualified-name="projects" data-source-line="21" id="ent0003"><rect fill="#F1F1F1" height="279.5398" rx="2.5" ry="2.5" style="stroke:#181818;stroke-width:0.5;" width="243.0098" x="113.92" y="310.2679"/><ellipse cx="212.2999" cy="326.2679" fill="#ADD1B2" rx="11" ry="11" style="stroke:#181818;stroke-width:1;"/><path d="M208.6593,332.7679 L208.6593,320.6273 L216.3156,320.6273 L216.3156,322.7523 L211.0343,322.7523 L211.0343,325.4085 L216.0499,325.4085 L216.0499,327.5335 L211.0343,327.5335 L211.0343,330.6429 L216.3156,330.6429 L216.3156,332.7679 L208.6593,332.7679 Z " fill="#000000"/><text fill="#000000" font-family="sans-serif" font-size="10" lengthAdjust="spacing" textLength="37.75" x="232.7999" y="330.1479">projects</text><line style="stroke:#181818;stroke-width:0.5;" x1="114.92" x2="355.9298" y1="342.2679" y2="342.2679"/><g data-visibility-modifier="IE_MANDATORY"><ellipse cx="124.92" cy="354.5779" fill="#000000" rx="3" ry="3" style="stroke:#000000;stroke-width:1;"/></g><text fill="#000000" font-family="sans-serif" font-size="10" lengthAdjust="spacing" textLength="86.1999" x="133.92" y="356.9579">_id : ObjectId &#171;PK&#187;</text><line style="stroke:#181818;stroke-width:1;" x1="114.92" x2="355.9298" y1="363.8879" y2="363.8879"/><g data-visibility-modifier="IE_MANDATORY"><ellipse cx="124.92" cy="376.1979" fill="#000000" rx="3" ry="3" style="stroke:#000000;stroke-width:1;"/></g><text fill="#000000" font-family="sans-serif" font-size="10" lengthAdjust="spacing" textLength="173.5698" x="133.92" y="378.5779">userId : ObjectId &#171;FK:users, indexed&#187;</text><g data-visibility-modifier="IE_MANDATORY"><ellipse cx="124.92" cy="389.8179" fill="#000000" rx="3" ry="3" style="stroke:#000000;stroke-width:1;"/></g><text fill="#000000" font-family="sans-serif" font-size="10" lengthAdjust="spacing" textLength="62.7999" x="133.92" y="392.1979">name : String</text><g data-visibility-modifier="IE_MANDATORY"><ellipse cx="124.92" cy="403.4379" fill="#000000" rx="3" ry="3" style="stroke:#000000;stroke-width:1;"/></g><text fill="#000000" font-family="sans-serif" font-size="10" lengthAdjust="spacing" textLength="144.3198" x="133.92" y="405.8179">slug : String &#171;unique, indexed&#187;</text><g data-visibility-modifier="IE_MANDATORY"><ellipse cx="124.92" cy="417.0579" fill="#000000" rx="3" ry="3" style="stroke:#000000;stroke-width:1;"/></g><text fill="#000000" font-family="sans-serif" font-size="10" lengthAdjust="spacing" textLength="135.2399" x="133.92" y="419.4379">sourceType : Enum('git', 'zip')</text><text fill="#000000" font-family="sans-serif" font-size="10" lengthAdjust="spacing" textLength="62.3799" x="133.92" y="433.0578">gitUrl : String</text><text fill="#000000" font-family="sans-serif" font-size="10" lengthAdjust="spacing" textLength="81.7599" x="133.92" y="446.6778">gitBranch : String</text><text fill="#000000" font-family="sans-serif" font-size="10" lengthAdjust="spacing" textLength="164.0398" x="133.92" y="460.2978">gitProvider : Enum('github', 'other')</text><text fill="#000000" font-family="sans-serif" font-size="10" lengthAdjust="spacing" textLength="141.7099" x="133.92" y="473.9178">gitToken : String &#171;select:false&#187;</text><text fill="#000000" font-family="sans-serif" font-size="10" lengthAdjust="spacing" textLength="93.6399" x="133.92" y="487.5378">zipFileName : String</text><g data-visibility-modifier="IE_MANDATORY"><ellipse cx="124.92" cy="498.7778" fill="#000000" rx="3" ry="3" style="stroke:#000000;stroke-width:1;"/></g><text fill="#000000" font-family="sans-serif" font-size="10" lengthAdjust="spacing" textLength="112.9599" x="133.92" y="501.1578">installCommand : String</text><g data-visibility-modifier="IE_MANDATORY"><ellipse cx="124.92" cy="512.3978" fill="#000000" rx="3" ry="3" style="stroke:#000000;stroke-width:1;"/></g><text fill="#000000" font-family="sans-serif" font-size="10" lengthAdjust="spacing" textLength="108.6699" x="133.92" y="514.7778">buildCommand : String</text><g data-visibility-modifier="IE_MANDATORY"><ellipse cx="124.92" cy="526.0178" fill="#000000" rx="3" ry="3" style="stroke:#000000;stroke-width:1;"/></g><text fill="#000000" font-family="sans-serif" font-size="10" lengthAdjust="spacing" textLength="111.1399" x="133.92" y="528.3978">outputDirectory : String</text><text fill="#000000" font-family="sans-serif" font-size="10" lengthAdjust="spacing" textLength="217.0098" x="133.92" y="542.0177">environmentVariables : [EnvironmentVariable]</text><text fill="#000000" font-family="sans-serif" font-size="10" lengthAdjust="spacing" textLength="116.8199" x="133.92" y="555.6377">domains : [DomainEntry]</text><g data-visibility-modifier="IE_MANDATORY"><ellipse cx="124.92" cy="566.8777" fill="#000000" rx="3" ry="3" style="stroke:#000000;stroke-width:1;"/></g><text fill="#000000" font-family="sans-serif" font-size="10" lengthAdjust="spacing" textLength="109.8499" x="133.92" y="569.2577">createdAt : Date &#171;auto&#187;</text><g data-visibility-modifier="IE_MANDATORY"><ellipse cx="124.92" cy="580.4977" fill="#000000" rx="3" ry="3" style="stroke:#000000;stroke-width:1;"/></g><text fill="#000000" font-family="sans-serif" font-size="10" lengthAdjust="spacing" textLength="113.7599" x="133.92" y="582.8777">updatedAt : Date &#171;auto&#187;</text></g><!--class envvar--><g class="entity" data-qualified-name="envvar" data-source-line="42" id="ent0004"><rect fill="#F1F1F1" height="94.0999" rx="2.5" ry="2.5" style="stroke:#181818;stroke-width:0.5;" width="130.8399" x="7" y="741.0979"/><ellipse cx="22" cy="759.7179" fill="#ADD1B2" rx="11" ry="11" style="stroke:#181818;stroke-width:1;"/><path d="M18.3594,766.2179 L18.3594,754.0773 L26.0156,754.0773 L26.0156,756.2023 L20.7344,756.2023 L20.7344,758.8585 L25.75,758.8585 L25.75,760.9835 L20.7344,760.9835 L20.7344,764.0929 L26.0156,764.0929 L26.0156,766.2179 L18.3594,766.2179 Z " fill="#000000"/><text fill="#000000" font-family="sans-serif" font-size="10" lengthAdjust="spacing" textLength="98.8399" x="36" y="756.7879">EnvironmentVariable</text><text fill="#000000" font-family="sans-serif" font-size="10" lengthAdjust="spacing" textLength="56.87" x="56.985" y="770.4079">(embedded)</text><line style="stroke:#181818;stroke-width:0.5;" x1="8" x2="136.8399" y1="778.3379" y2="778.3379"/><g data-visibility-modifier="IE_MANDATORY"><ellipse cx="18" cy="790.6479" fill="#000000" rx="3" ry="3" style="stroke:#000000;stroke-width:1;"/></g><text fill="#000000" font-family="sans-serif" font-size="10" lengthAdjust="spacing" textLength="52.0999" x="27" y="793.0279">key : String</text><g data-visibility-modifier="IE_MANDATORY"><ellipse cx="18" cy="804.2679" fill="#000000" rx="3" ry="3" style="stroke:#000000;stroke-width:1;"/></g><text fill="#000000" font-family="sans-serif" font-size="10" lengthAdjust="spacing" textLength="61.1099" x="27" y="806.6479">value : String</text><g data-visibility-modifier="IE_MANDATORY"><ellipse cx="18" cy="817.8879" fill="#000000" rx="3" ry="3" style="stroke:#000000;stroke-width:1;"/></g><text fill="#000000" font-family="sans-serif" font-size="10" lengthAdjust="spacing" textLength="93.8899" x="27" y="820.2679">encrypted : Boolean</text><line style="stroke:#181818;stroke-width:0.5;" x1="8" x2="136.8399" y1="827.1979" y2="827.1979"/></g><!--class domain--><g class="entity" data-qualified-name="domain" data-source-line="48" id="ent0005"><rect fill="#F1F1F1" height="107.7199" rx="2.5" ry="2.5" style="stroke:#181818;stroke-width:0.5;" width="124.2999" x="173.27" y="734.2879"/><ellipse cx="202.0625" cy="752.9079" fill="#ADD1B2" rx="11" ry="11" style="stroke:#181818;stroke-width:1;"/><path d="M198.4219,759.4079 L198.4219,747.2673 L206.0781,747.2673 L206.0781,749.3923 L200.7969,749.3923 L200.7969,752.0485 L205.8125,752.0485 L205.8125,754.1735 L200.7969,754.1735 L200.7969,757.2829 L206.0781,757.2829 L206.0781,759.4079 L198.4219,759.4079 Z " fill="#000000"/><text fill="#000000" font-family="sans-serif" font-size="10" lengthAdjust="spacing" textLength="61.6499" x="219.1275" y="749.9779">DomainEntry</text><text fill="#000000" font-family="sans-serif" font-size="10" lengthAdjust="spacing" textLength="56.87" x="221.5175" y="763.5979">(embedded)</text><line style="stroke:#181818;stroke-width:0.5;" x1="174.27" x2="296.5699" y1="771.5279" y2="771.5279"/><g data-visibility-modifier="IE_MANDATORY"><ellipse cx="184.27" cy="783.8379" fill="#000000" rx="3" ry="3" style="stroke:#000000;stroke-width:1;"/></g><text fill="#000000" font-family="sans-serif" font-size="10" lengthAdjust="spacing" textLength="71.9399" x="193.27" y="786.2179">domain : String</text><g data-visibility-modifier="IE_MANDATORY"><ellipse cx="184.27" cy="797.4579" fill="#000000" rx="3" ry="3" style="stroke:#000000;stroke-width:1;"/></g><text fill="#000000" font-family="sans-serif" font-size="10" lengthAdjust="spacing" textLength="98.2999" x="193.27" y="799.8379">cnameTarget : String</text><g data-visibility-modifier="IE_MANDATORY"><ellipse cx="184.27" cy="811.0779" fill="#000000" rx="3" ry="3" style="stroke:#000000;stroke-width:1;"/></g><text fill="#000000" font-family="sans-serif" font-size="10" lengthAdjust="spacing" textLength="81.7299" x="193.27" y="813.4579">verified : Boolean</text><text fill="#000000" font-family="sans-serif" font-size="10" lengthAdjust="spacing" textLength="75.28" x="193.27" y="827.0778">verifiedAt : Date</text><line style="stroke:#181818;stroke-width:0.5;" x1="174.27" x2="296.5699" y1="834.0078" y2="834.0078"/></g><!--class deployments--><g class="entity" data-qualified-name="deployments" data-source-line="55" id="ent0006"><rect fill="#F1F1F1" height="238.6798" rx="2.5" ry="2.5" style="stroke:#181818;stroke-width:0.5;" width="224.0098" x="332.42" y="668.8079"/><ellipse cx="409.5549" cy="684.8079" fill="#ADD1B2" rx="11" ry="11" style="stroke:#181818;stroke-width:1;"/><path d="M405.9143,691.3079 L405.9143,679.1673 L413.5706,679.1673 L413.5706,681.2923 L408.2893,681.2923 L408.2893,683.9485 L413.3049,683.9485 L413.3049,686.0735 L408.2893,686.0735 L408.2893,689.1829 L413.5706,689.1829 L413.5706,691.3079 L405.9143,691.3079 Z " fill="#000000"/><text fill="#000000" font-family="sans-serif" font-size="10" lengthAdjust="spacing" textLength="61.2399" x="430.0549" y="688.6879">deployments</text><line style="stroke:#181818;stroke-width:0.5;" x1="333.42" x2="555.4298" y1="700.8079" y2="700.8079"/><g data-visibility-modifier="IE_MANDATORY"><ellipse cx="343.42" cy="713.1179" fill="#000000" rx="3" ry="3" style="stroke:#000000;stroke-width:1;"/></g><text fill="#000000" font-family="sans-serif" font-size="10" lengthAdjust="spacing" textLength="86.1999" x="352.42" y="715.4979">_id : ObjectId &#171;PK&#187;</text><line style="stroke:#181818;stroke-width:1;" x1="333.42" x2="555.4298" y1="722.4279" y2="722.4279"/><g data-visibility-modifier="IE_MANDATORY"><ellipse cx="343.42" cy="734.7379" fill="#000000" rx="3" ry="3" style="stroke:#000000;stroke-width:1;"/></g><text fill="#000000" font-family="sans-serif" font-size="10" lengthAdjust="spacing" textLength="198.0098" x="352.42" y="737.1179">projectId : ObjectId &#171;FK:projects, indexed&#187;</text><g data-visibility-modifier="IE_MANDATORY"><ellipse cx="343.42" cy="748.3579" fill="#000000" rx="3" ry="3" style="stroke:#000000;stroke-width:1;"/></g><text fill="#000000" font-family="sans-serif" font-size="10" lengthAdjust="spacing" textLength="139.7899" x="352.42" y="750.7379">projectSlug : String &#171;indexed&#187;</text><g data-visibility-modifier="IE_MANDATORY"><ellipse cx="343.42" cy="761.9779" fill="#000000" rx="3" ry="3" style="stroke:#000000;stroke-width:1;"/></g><text fill="#000000" font-family="sans-serif" font-size="10" lengthAdjust="spacing" textLength="155.5899" x="352.42" y="764.3579">status : Enum('queued','building',</text><text fill="#000000" font-family="sans-serif" font-size="10" lengthAdjust="spacing" textLength="135.4399" x="352.42" y="777.9779">.... 'uploading','ready','failed')</text><g data-visibility-modifier="IE_MANDATORY"><ellipse cx="343.42" cy="789.2178" fill="#000000" rx="3" ry="3" style="stroke:#000000;stroke-width:1;"/></g><text fill="#000000" font-family="sans-serif" font-size="10" lengthAdjust="spacing" textLength="137.6699" x="352.42" y="791.5978">trigger : Enum('manual', 'api')</text><g data-visibility-modifier="IE_MANDATORY"><ellipse cx="343.42" cy="802.8378" fill="#000000" rx="3" ry="3" style="stroke:#000000;stroke-width:1;"/></g><text fill="#000000" font-family="sans-serif" font-size="10" lengthAdjust="spacing" textLength="159.8798" x="352.42" y="805.2178">sourceSnapshot : SourceSnapshot</text><g data-visibility-modifier="IE_MANDATORY"><ellipse cx="343.42" cy="816.4578" fill="#000000" rx="3" ry="3" style="stroke:#000000;stroke-width:1;"/></g><text fill="#000000" font-family="sans-serif" font-size="10" lengthAdjust="spacing" textLength="116.9499" x="352.42" y="818.8378">buildConfig : BuildConfig</text><text fill="#000000" font-family="sans-serif" font-size="10" lengthAdjust="spacing" textLength="102.3499" x="352.42" y="832.4578">buildLogs : [LogEntry]</text><text fill="#000000" font-family="sans-serif" font-size="10" lengthAdjust="spacing" textLength="90.8599" x="352.42" y="846.0778">artifactPath : String</text><text fill="#000000" font-family="sans-serif" font-size="10" lengthAdjust="spacing" textLength="60.0999" x="352.42" y="859.6978">error : String</text><text fill="#000000" font-family="sans-serif" font-size="10" lengthAdjust="spacing" textLength="73.5799" x="352.42" y="873.3178">startedAt : Date</text><text fill="#000000" font-family="sans-serif" font-size="10" lengthAdjust="spacing" textLength="90.0099" x="352.42" y="886.9378">completedAt : Date</text><g data-visibility-modifier="IE_MANDATORY"><ellipse cx="343.42" cy="898.1777" fill="#000000" rx="3" ry="3" style="stroke:#000000;stroke-width:1;"/></g><text fill="#000000" font-family="sans-serif" font-size="10" lengthAdjust="spacing" textLength="152.7599" x="352.42" y="900.5577">createdAt : Date &#171;auto, indexed&#187;</text></g><!--class snapshot--><g class="entity" data-qualified-name="snapshot" data-source-line="73" id="ent0007"><rect fill="#F1F1F1" height="134.9599" rx="2.5" ry="2.5" style="stroke:#181818;stroke-width:0.5;" width="127.6999" x="212.57" y="986.4879"/><ellipse cx="236.2775" cy="1005.1079" fill="#ADD1B2" rx="11" ry="11" style="stroke:#181818;stroke-width:1;"/><path d="M232.6369,1011.6079 L232.6369,999.4673 L240.2931,999.4673 L240.2931,1001.5923 L235.0119,1001.5923 L235.0119,1004.2485 L240.0275,1004.2485 L240.0275,1006.3735 L235.0119,1006.3735 L235.0119,1009.4829 L240.2931,1009.4829 L240.2931,1011.6079 L232.6369,1011.6079 Z " fill="#000000"/><text fill="#000000" font-family="sans-serif" font-size="10" lengthAdjust="spacing" textLength="76.3499" x="252.2125" y="1002.1779">SourceSnapshot</text><text fill="#000000" font-family="sans-serif" font-size="10" lengthAdjust="spacing" textLength="56.87" x="261.9525" y="1015.7979">(embedded)</text><line style="stroke:#181818;stroke-width:0.5;" x1="213.57" x2="339.2699" y1="1023.7279" y2="1023.7279"/><text fill="#000000" font-family="sans-serif" font-size="10" lengthAdjust="spacing" textLength="62.3799" x="218.57" y="1038.4179">gitUrl : String</text><text fill="#000000" font-family="sans-serif" font-size="10" lengthAdjust="spacing" textLength="81.7599" x="218.57" y="1052.0379">gitBranch : String</text><text fill="#000000" font-family="sans-serif" font-size="10" lengthAdjust="spacing" textLength="85.6199" x="218.57" y="1065.6579">gitCommit : String</text><text fill="#000000" font-family="sans-serif" font-size="10" lengthAdjust="spacing" textLength="77.1299" x="218.57" y="1079.2778">gitToken : String</text><text fill="#000000" font-family="sans-serif" font-size="10" lengthAdjust="spacing" textLength="70.8999" x="218.57" y="1092.8978">zipPath : String</text><line style="stroke:#181818;stroke-width:0.5;" x1="213.57" x2="339.2699" y1="1099.8278" y2="1099.8278"/><g data-visibility-modifier="IE_MANDATORY"><ellipse cx="223.57" cy="1112.1378" fill="#000000" rx="3" ry="3" style="stroke:#000000;stroke-width:1;"/></g><text fill="#000000" font-family="sans-serif" font-size="10" lengthAdjust="spacing" textLength="101.6999" x="232.57" y="1114.5178">type : Enum('git', 'zip')</text></g><!--class buildcfg--><g class="entity" data-qualified-name="buildcfg" data-source-line="82" id="ent0008"><rect fill="#F1F1F1" height="94.0999" rx="2.5" ry="2.5" style="stroke:#181818;stroke-width:0.5;" width="138.9599" x="374.94" y="1006.9179"/><ellipse cx="412.4805" cy="1025.5379" fill="#ADD1B2" rx="11" ry="11" style="stroke:#181818;stroke-width:1;"/><path d="M408.8398,1032.0379 L408.8398,1019.8973 L416.4961,1019.8973 L416.4961,1022.0223 L411.2148,1022.0223 L411.2148,1024.6785 L416.2305,1024.6785 L416.2305,1026.8035 L411.2148,1026.8035 L411.2148,1029.9129 L416.4961,1029.9129 L416.4961,1032.0379 L408.8398,1032.0379 Z " fill="#000000"/><text fill="#000000" font-family="sans-serif" font-size="10" lengthAdjust="spacing" textLength="54.71" x="432.5695" y="1022.6079">BuildConfig</text><text fill="#000000" font-family="sans-serif" font-size="10" lengthAdjust="spacing" textLength="56.87" x="431.4895" y="1036.2279">(embedded)</text><line style="stroke:#181818;stroke-width:0.5;" x1="375.94" x2="512.8999" y1="1044.1579" y2="1044.1579"/><g data-visibility-modifier="IE_MANDATORY"><ellipse cx="385.94" cy="1056.4679" fill="#000000" rx="3" ry="3" style="stroke:#000000;stroke-width:1;"/></g><text fill="#000000" font-family="sans-serif" font-size="10" lengthAdjust="spacing" textLength="112.9599" x="394.94" y="1058.8479">installCommand : String</text><g data-visibility-modifier="IE_MANDATORY"><ellipse cx="385.94" cy="1070.0879" fill="#000000" rx="3" ry="3" style="stroke:#000000;stroke-width:1;"/></g><text fill="#000000" font-family="sans-serif" font-size="10" lengthAdjust="spacing" textLength="108.6699" x="394.94" y="1072.4679">buildCommand : String</text><g data-visibility-modifier="IE_MANDATORY"><ellipse cx="385.94" cy="1083.7079" fill="#000000" rx="3" ry="3" style="stroke:#000000;stroke-width:1;"/></g><text fill="#000000" font-family="sans-serif" font-size="10" lengthAdjust="spacing" textLength="111.1399" x="394.94" y="1086.0879">outputDirectory : String</text><line style="stroke:#181818;stroke-width:0.5;" x1="375.94" x2="512.8999" y1="1093.0179" y2="1093.0179"/></g><!--class logentry--><g class="entity" data-qualified-name="logentry" data-source-line="88" id="ent0009"><rect fill="#F1F1F1" height="94.0999" rx="2.5" ry="2.5" style="stroke:#181818;stroke-width:0.5;" width="211.2598" x="548.79" y="1006.9179"/><ellipse cx="621.7349" cy="1025.5379" fill="#ADD1B2" rx="11" ry="11" style="stroke:#181818;stroke-width:1;"/><path d="M618.0943,1032.0379 L618.0943,1019.8973 L625.7505,1019.8973 L625.7505,1022.0223 L620.4693,1022.0223 L620.4693,1024.6785 L625.4849,1024.6785 L625.4849,1026.8035 L620.4693,1026.8035 L620.4693,1029.9129 L625.7505,1029.9129 L625.7505,1032.0379 L618.0943,1032.0379 Z " fill="#000000"/><text fill="#000000" font-family="sans-serif" font-size="10" lengthAdjust="spacing" textLength="42.0199" x="649.6599" y="1022.6079">LogEntry</text><text fill="#000000" font-family="sans-serif" font-size="10" lengthAdjust="spacing" textLength="56.87" x="642.2349" y="1036.2279">(embedded)</text><line style="stroke:#181818;stroke-width:0.5;" x1="549.79" x2="759.0498" y1="1044.1579" y2="1044.1579"/><g data-visibility-modifier="IE_MANDATORY"><ellipse cx="559.79" cy="1056.4679" fill="#000000" rx="3" ry="3" style="stroke:#000000;stroke-width:1;"/></g><text fill="#000000" font-family="sans-serif" font-size="10" lengthAdjust="spacing" textLength="86.7099" x="568.79" y="1058.8479">timestamp : String</text><g data-visibility-modifier="IE_MANDATORY"><ellipse cx="559.79" cy="1070.0879" fill="#000000" rx="3" ry="3" style="stroke:#000000;stroke-width:1;"/></g><text fill="#000000" font-family="sans-serif" font-size="10" lengthAdjust="spacing" textLength="52.9999" x="568.79" y="1072.4679">line : String</text><line style="stroke:#181818;stroke-width:0.5;" x1="549.79" x2="759.0498" y1="1079.3979" y2="1079.3979"/><g data-visibility-modifier="IE_MANDATORY"><ellipse cx="559.79" cy="1091.7079" fill="#000000" rx="3" ry="3" style="stroke:#000000;stroke-width:1;"/></g><text fill="#000000" font-family="sans-serif" font-size="10" lengthAdjust="spacing" textLength="185.2598" x="568.79" y="1094.0879">stream : Enum('stdout','stderr','system')</text></g><!--link users to projects--><g class="link" data-entity-1="ent0002" data-entity-2="ent0003" data-link-type="crowfoot" data-source-line="95" id="lnk10"><path codeLine="95" d="M235.42,239.5879 C235.42,264.2279 235.42,265.4479 235.42,292.0479" fill="none" id="users-projects" style="stroke:#181818;stroke-width:1;"/><line style="stroke:#181818;stroke-width:1;" x1="231.42" x2="239.42" y1="235.5879" y2="235.5879"/><line style="stroke:#181818;stroke-width:1;" x1="231.42" x2="239.42" y1="238.5879" y2="238.5879"/><line style="stroke:#181818;stroke-width:1;" x1="235.42" x2="235.42" y1="239.5879" y2="231.5879"/><line style="stroke:#181818;stroke-width:1;" x1="235.42" x2="241.42" y1="302.0479" y2="310.0479"/><line style="stroke:#181818;stroke-width:1;" x1="235.42" x2="229.42" y1="302.0479" y2="310.0479"/><line style="stroke:#181818;stroke-width:1;" x1="235.42" x2="235.42" y1="302.0479" y2="310.0479"/><ellipse cx="235.42" cy="296.0479" fill="none" rx="4" ry="4" style="stroke:#181818;stroke-width:1;"/><text fill="#000000" font-family="sans-serif" font-size="13" lengthAdjust="spacing" textLength="39.364" x="236.42" y="276.1649">userId</text></g><!--link projects to deployments--><g class="link" data-entity-1="ent0003" data-entity-2="ent0006" data-link-type="crowfoot" data-source-line="96" id="lnk11"><path codeLine="96" d="M326.1649,596.9713 C342.3349,622.9713 345.367,627.8509 361.107,653.1709" fill="none" id="projects-deployments" style="stroke:#181818;stroke-width:1;"/><line style="stroke:#181818;stroke-width:1;" x1="320.6558" x2="327.4492" y1="595.6871" y2="591.4621"/><line style="stroke:#181818;stroke-width:1;" x1="322.2401" x2="329.0335" y1="598.2346" y2="594.0096"/><line style="stroke:#181818;stroke-width:1;" x1="326.1649" x2="321.94" y1="596.9713" y2="590.1779"/><line style="stroke:#181818;stroke-width:1;" x1="366.3864" x2="375.7057" y1="661.6637" y2="665.2902"/><line style="stroke:#181818;stroke-width:1;" x1="366.3864" x2="365.5143" y1="661.6637" y2="671.6256"/><line style="stroke:#181818;stroke-width:1;" x1="366.3864" x2="370.61" y1="661.6637" y2="668.4579"/><ellipse cx="363.2187" cy="656.568" fill="none" rx="4" ry="4" style="stroke:#181818;stroke-width:1;"/><text fill="#000000" font-family="sans-serif" font-size="13" lengthAdjust="spacing" textLength="55.25" x="347.19" y="634.7049">projectId</text></g><!--reverse link projects to envvar--><g class="link" data-entity-1="ent0003" data-entity-2="ent0004" data-link-type="composition" data-source-line="97" id="lnk12"><path codeLine="97" d="M160.6763,600.7672 C155.7263,610.8372 156.13,610.0879 151.42,619.8079 C131.66,660.5679 109.7,707.1979 93.96,740.8579" fill="none" id="projects-backto-envvar" style="stroke:#181818;stroke-width:1;"/><polygon fill="#181818" points="165.97,589.9979,159.7334,593.618,160.6763,600.7672,166.9129,597.1471,165.97,589.9979" style="stroke:#181818;stroke-width:1;"/><text fill="#000000" font-family="sans-serif" font-size="13" lengthAdjust="spacing" textLength="74.6851" x="152.42" y="634.7049">embedded[]</text></g><!--reverse link projects to domain--><g class="link" data-entity-1="ent0003" data-entity-2="ent0005" data-link-type="composition" data-source-line="98" id="lnk13"><path codeLine="98" d="M235.42,602.1779 C235.42,652.9179 235.42,695.2979 235.42,734.0279" fill="none" id="projects-backto-domain" style="stroke:#181818;stroke-width:1;"/><polygon fill="#181818" points="235.42,590.1779,231.42,596.1779,235.42,602.1779,239.42,596.1779,235.42,590.1779" style="stroke:#181818;stroke-width:1;"/><text fill="#000000" font-family="sans-serif" font-size="13" lengthAdjust="spacing" textLength="74.6851" x="236.42" y="634.7049">embedded[]</text></g><!--reverse link deployments to snapshot--><g class="link" data-entity-1="ent0006" data-entity-2="ent0007" data-link-type="composition" data-source-line="99" id="lnk14"><path codeLine="99" d="M362.3251,918.0603 C345.2551,944.8703 334.17,962.2779 319.03,986.0579" fill="none" id="deployments-backto-snapshot" style="stroke:#181818;stroke-width:1;"/><polygon fill="#181818" points="368.77,907.9379,362.1734,910.8508,362.3251,918.0603,368.9217,915.1474,368.77,907.9379" style="stroke:#181818;stroke-width:1;"/><text fill="#000000" font-family="sans-serif" font-size="13" lengthAdjust="spacing" textLength="66.1311" x="346.37" y="952.3849">embedded</text></g><!--reverse link deployments to buildcfg--><g class="link" data-entity-1="ent0006" data-entity-2="ent0008" data-link-type="composition" data-source-line="100" id="lnk15"><path codeLine="100" d="M444.42,919.9379 C444.42,954.9479 444.42,979.2079 444.42,1006.7079" fill="none" id="deployments-backto-buildcfg" style="stroke:#181818;stroke-width:1;"/><polygon fill="#181818" points="444.42,907.9379,440.42,913.9379,444.42,919.9379,448.42,913.9379,444.42,907.9379" style="stroke:#181818;stroke-width:1;"/><text fill="#000000" font-family="sans-serif" font-size="13" lengthAdjust="spacing" textLength="66.1311" x="445.42" y="952.3849">embedded</text></g><!--reverse link deployments to logentry--><g class="link" data-entity-1="ent0006" data-entity-2="ent0009" data-link-type="composition" data-source-line="101" id="lnk16"><path codeLine="101" d="M546.4538,917.3264 C574.3238,952.3364 595.71,979.2079 617.6,1006.7079" fill="none" id="deployments-backto-logentry" style="stroke:#181818;stroke-width:1;"/><polygon fill="#181818" points="538.98,907.9379,539.5874,915.1234,546.4538,917.3264,545.8464,910.1409,538.98,907.9379" style="stroke:#181818;stroke-width:1;"/><text fill="#000000" font-family="sans-serif" font-size="13" lengthAdjust="spacing" textLength="74.6851" x="575.4" y="952.3849">embedded[]</text></g><?plantuml-src hLPBKzim4BxdLsYuc319f-qnmp1329bcQ6ccWLueqr6iZQCYIwuUQGtqltSjFoBRj70WbrYxgzrllttObbi1P4aJc2kT09bHIzVK05d5MqWfEVoaPA9cq-5WOEwupAYcAOa5DMQkf5tnUo3ltdTLfzPgldOMzZPl1mEGbjkS73W3sXmGQeX_8Wy3Gex8Tyx8X7nU_u3OBXWvFbvUd9oWPZpsQabJGFqA7Sl4In0T5uq8BpZ9VpeO4IuP_0RcRn-H3F7yKffze6OREaYutRhrQHo3CLVg3cJeoe1069CD5GQydz9wKK2yTEaQT2ExnXowu4hDcP8IlG0xjQX4Oi43YZNGK8ZXgBEgWkiozW_jdps3cLO5JIM9zU5bF1QKBpeMyuk9hqINkZxdHhZaUSgDSZg6gpmhRfzBbnv6o4Wq8j4zpw9XIT2r5XtAffhAk5kZfLOxpa27df3RmfcoMz2rk-TBYB7dNC1bBoakZQL2dAaqfPArTMl71NjIevpDd9rnZL6KpaCbo1tNIgPOhgzKSxeMO51_SzwNtw8vKzZ9qblC_EEvj3g_VQrcUIBgDta8sCIC0Hlw7aB4Ewgh3hg3l9tgZWhN7JuPwpp3s2YUAYM0oZ1ca4SlLfbk5Qiwj7p7HTzTKTn6jeC3DD_mLapI2FT35k1Wa0cL5wcNinASNpOkrN0zCJ7rsFNsJIbVTIQbCo6MMcUQdiOPSi2YKUJR3Iz48pHxWpyIEKHCIrc4pS1o_D_WvaFxeVU54P8a611iLKT5CI0quvLDEP4hIJEpLPxLbY1iTRdX1V3f_eHQh_ke4j-a-DzqADMMRsXibzIs9XUqLZeKOCQwimfZbMO2NheVGvw32hSJwJMRgLCkgsrVPISL-u3RZh2zWCfzqsObG1smsuFikOutIGNvbRTJ0AAkOm-1K0aKYfeqdW9YIBFEky1YeTA6JMCP1iNcn0UiVl6G6mjfrO62IsYXYCWN4DHo9SsMPsPGVWiyFex7wc7_JfkKdmiBTZ1eP9LDECkJvftOiZmQZ-lLXXPraZUt7PDc2RLCGl-5bTbFJsFNjsggzr-hXk5EpBy0?></g></svg>