<?plantuml 1.2026.1?><svg xmlns="http://www.w3.org/2000/svg" xmlns:xlink="http://www.w3.org/1999/xlink" contentStyleType="text/css" data-diagram-type="SEQUENCE" height="1229px" preserveAspectRatio="none" style="width:1136px;height:1229px;background:#FFFFFF;" version="1.1" viewBox="0 0 1136 1229" width="1136px" zoomAndPan="magnify"><title>Sequence Diagram: Create New Project (UC-04)</title><defs/><g><text fill="#000000" font-family="sans-serif" font-size="14" font-weight="bold" lengthAdjust="spacing" textLength="326.3947" x="406.5834" y="29.9659">Sequence Diagram: Create New Project (UC-04)</text><rect fill="none" height="307.0421" style="stroke:#000000;stroke-width:1.5;" width="845.4627" x="10" y="366.784"/><g class="participant-lifeline" data-entity-uid="part1" data-qualified-name="U" id="part1-lifeline"><g><title>User</title><rect fill="#000000" fill-opacity="0.00000" height="1021.5744" width="8" x="34.3089" y="124.1358"/><line style="stroke:#181818;stroke-width:0.5;stroke-dasharray:5,5;" x1="38" x2="38" y1="124.1358" y2="1145.7103"/></g></g><g class="participant-lifeline" data-entity-uid="part2" data-qualified-name="B" id="part2-lifeline"><g><title>Browser</title><rect fill="#000000" fill-opacity="0.00000" height="1021.5744" width="8" x="204.8711" y="124.1358"/><line style="stroke:#181818;stroke-width:0.5;stroke-dasharray:5,5;" x1="208.5012" x2="208.5012" y1="124.1358" y2="1145.7103"/></g></g><g class="participant-lifeline" data-entity-uid="part3" data-qualified-name="NP" id="part3-lifeline"><g><title>New Project Page</title><rect fill="#000000" fill-opacity="0.00000" height="1021.5744" width="8" x="409.1943" y="124.1358"/><line style="stroke:#181818;stroke-width:0.5;stroke-dasharray:5,5;" x1="412.3675" x2="412.3675" y1="124.1358" y2="1145.7103"/></g></g><g class="participant-lifeline" data-entity-uid="part4" data-qualified-name="GHS" id="part4-lifeline"><g><title>GET .api.auth.</title><rect fill="#000000" fill-opacity="0.00000" height="1021.5744" width="8" x="617.0534" y="124.1358"/><line style="stroke:#181818;stroke-width:0.5;stroke-dasharray:5,5;" x1="620.3976" x2="620.3976" y1="124.1358" y2="1145.7103"/></g></g><g class="participant-lifeline" data-entity-uid="part5" data-qualified-name="GR" id="part5-lifeline"><g><title>GET .api.github.repos</title><rect fill="#000000" fill-opacity="0.00000" height="1021.5744" width="8" x="761.586" y="124.1358"/><line style="stroke:#181818;stroke-width:0.5;stroke-dasharray:5,5;" x1="764.7092" x2="764.7092" y1="124.1358" y2="1145.7103"/></g></g><g class="participant-lifeline" data-entity-uid="part6" data-qualified-name="API" id="part6-lifeline"><g><title>POST .api.projects</title><rect fill="#000000" fill-opacity="0.00000" height="1021.5744" width="8" x="919.3904" y="124.1358"/><line style="stroke:#181818;stroke-width:0.5;stroke-dasharray:5,5;" x1="922.4627" x2="922.4627" y1="124.1358" y2="1145.7103"/></g></g><g class="participant-lifeline" data-entity-uid="part7" data-qualified-name="DB" id="part7-lifeline"><g><title>MongoDB</title><rect fill="#000000" fill-opacity="0.00000" height="1021.5744" width="8" x="1095.4516" y="124.1358"/><line style="stroke:#181818;stroke-width:0.5;stroke-dasharray:5,5;" x1="1099.3417" x2="1099.3417" y1="124.1358" y2="1145.7103"/></g></g><g class="participant participant-head" data-entity-uid="part1" data-qualified-name="U" id="part1-head"><text fill="#000000" font-family="sans-serif" font-size="14" lengthAdjust="spacing" textLength="30.6179" x="20" y="120.0339">User</text><ellipse cx="38.3089" cy="53.5679" fill="#E2E2F0" rx="8" ry="8" style="stroke:#181818;stroke-width:0.5;"/><path d="M38.3089,61.5679 L38.3089,88.5679 M25.3089,69.5679 L51.3089,69.5679 M38.3089,88.5679 L25.3089,103.5679 M38.3089,88.5679 L51.3089,103.5679" fill="none" style="stroke:#181818;stroke-width:0.5;"/></g><g class="participant participant-tail" data-entity-uid="part1" data-qualified-name="U" id="part1-tail"><text fill="#000000" font-family="sans-serif" font-size="14" lengthAdjust="spacing" textLength="30.6179" x="20" y="1159.6762">User</text><ellipse cx="38.3089" cy="1172.2782" fill="#E2E2F0" rx="8" ry="8" style="stroke:#181818;stroke-width:0.5;"/><path d="M38.3089,1180.2782 L38.3089,1207.2782 M25.3089,1188.2782 L51.3089,1188.2782 M38.3089,1207.2782 L25.3089,1222.2782 M38.3089,1207.2782 L51.3089,1222.2782" fill="none" style="stroke:#181818;stroke-width:0.5;"/></g><g class="participant participant-head" data-entity-uid="part2" data-qualified-name="B" id="part2-head"><rect fill="#E2E2F0" height="33.0679" rx="2.5" ry="2.5" style="stroke:#181818;stroke-width:0.5;" width="68.7398" x="174.5012" y="90.0679"/><text fill="#000000" font-family="sans-serif" font-size="14" lengthAdjust="spacing" textLength="54.7398" x="181.5012" y="112.0339">Browser</text></g><g class="participant participant-tail" data-entity-uid="part2" data-qualified-name="B" id="part2-tail"><rect fill="#E2E2F0" height="33.0679" rx="2.5" ry="2.5" style="stroke:#181818;stroke-width:0.5;" width="68.7398" x="174.5012" y="1144.7103"/><text fill="#000000" font-family="sans-serif" font-size="14" lengthAdjust="spacing" textLength="54.7398" x="181.5012" y="1166.6762">Browser</text></g><g class="participant participant-head" data-entity-uid="part3" data-qualified-name="NP" id="part3-head"><rect fill="#E2E2F0" height="52.1358" rx="2.5" ry="2.5" style="stroke:#181818;stroke-width:0.5;" width="129.6535" x="348.3675" y="71"/><text fill="#000000" font-family="sans-serif" font-size="14" lengthAdjust="spacing" textLength="115.6535" x="355.3675" y="92.9659">New Project Page</text><text fill="#000000" font-family="sans-serif" font-size="14" lengthAdjust="spacing" textLength="96.2636" x="365.0624" y="112.0339">(3-step wizard)</text></g><g class="participant participant-tail" data-entity-uid="part3" data-qualified-name="NP" id="part3-tail"><rect fill="#E2E2F0" height="52.1358" rx="2.5" ry="2.5" style="stroke:#181818;stroke-width:0.5;" width="129.6535" x="348.3675" y="1144.7103"/><text fill="#000000" font-family="sans-serif" font-size="14" lengthAdjust="spacing" textLength="115.6535" x="355.3675" y="1166.6762">New Project Page</text><text fill="#000000" font-family="sans-serif" font-size="14" lengthAdjust="spacing" textLength="96.2636" x="365.0624" y="1185.7441">(3-step wizard)</text></g><g class="participant participant-head" data-entity-uid="part4" data-qualified-name="GHS" id="part4-head"><rect fill="#E2E2F0" height="52.1358" rx="2.5" ry="2.5" style="stroke:#181818;stroke-width:0.5;" width="109.3116" x="566.3976" y="71"/><text fill="#000000" font-family="sans-serif" font-size="14" lengthAdjust="spacing" textLength="95.3116" x="573.3976" y="92.9659">GET /api/auth/</text><text fill="#000000" font-family="sans-serif" font-size="14" lengthAdjust="spacing" textLength="88.4237" x="576.8416" y="112.0339">github/status</text></g><g class="participant participant-tail" data-entity-uid="part4" data-qualified-name="GHS" id="part4-tail"><rect fill="#E2E2F0" height="52.1358" rx="2.5" ry="2.5" style="stroke:#181818;stroke-width:0.5;" width="109.3116" x="566.3976" y="1144.7103"/><text fill="#000000" font-family="sans-serif" font-size="14" lengthAdjust="spacing" textLength="95.3116" x="573.3976" y="1166.6762">GET /api/auth/</text><text fill="#000000" font-family="sans-serif" font-size="14" lengthAdjust="spacing" textLength="88.4237" x="576.8416" y="1185.7441">github/status</text></g><g class="participant participant-head" data-entity-uid="part5" data-qualified-name="GR" id="part5-head"><rect fill="#E2E2F0" height="33.0679" rx="2.5" ry="2.5" style="stroke:#181818;stroke-width:0.5;" width="159.7534" x="685.7092" y="90.0679"/><text fill="#000000" font-family="sans-serif" font-size="14" lengthAdjust="spacing" textLength="145.7534" x="692.7092" y="112.0339">GET /api/github/repos</text></g><g class="participant participant-tail" data-entity-uid="part5" data-qualified-name="GR" id="part5-tail"><rect fill="#E2E2F0" height="33.0679" rx="2.5" ry="2.5" style="stroke:#181818;stroke-width:0.5;" width="159.7534" x="685.7092" y="1144.7103"/><text fill="#000000" font-family="sans-serif" font-size="14" lengthAdjust="spacing" textLength="145.7534" x="692.7092" y="1166.6762">GET /api/github/repos</text></g><g class="participant participant-head" data-entity-uid="part6" data-qualified-name="API" id="part6-head"><rect fill="#E2E2F0" height="33.0679" rx="2.5" ry="2.5" style="stroke:#181818;stroke-width:0.5;" width="135.8555" x="855.4627" y="90.0679"/><text fill="#000000" font-family="sans-serif" font-size="14" lengthAdjust="spacing" textLength="121.8555" x="862.4627" y="112.0339">POST /api/projects</text></g><g class="participant participant-tail" data-entity-uid="part6" data-qualified-name="API" id="part6-tail"><rect fill="#E2E2F0" height="33.0679" rx="2.5" ry="2.5" style="stroke:#181818;stroke-width:0.5;" width="135.8555" x="855.4627" y="1144.7103"/><text fill="#000000" font-family="sans-serif" font-size="14" lengthAdjust="spacing" textLength="121.8555" x="862.4627" y="1166.6762">POST /api/projects</text></g><g class="participant participant-head" data-entity-uid="part7" data-qualified-name="DB" id="part7-head"><text fill="#000000" font-family="sans-serif" font-size="14" lengthAdjust="spacing" textLength="66.2197" x="1063.3417" y="120.0339">MongoDB</text><path d="M1081.4516,69.0679 C1081.4516,59.0679 1099.4516,59.0679 1099.4516,59.0679 C1099.4516,59.0679 1117.4516,59.0679 1117.4516,69.0679 L1117.4516,95.0679 C1117.4516,105.0679 1099.4516,105.0679 1099.4516,105.0679 C1099.4516,105.0679 1081.4516,105.0679 1081.4516,95.0679 L1081.4516,69.0679" fill="#E2E2F0" style="stroke:#181818;stroke-width:0.5;"/><path d="M1081.4516,69.0679 C1081.4516,79.0679 1099.4516,79.0679 1099.4516,79.0679 C1099.4516,79.0679 1117.4516,79.0679 1117.4516,69.0679" fill="none" style="stroke:#181818;stroke-width:0.5;"/></g><g class="participant participant-tail" data-entity-uid="part7" data-qualified-name="DB" id="part7-tail"><text fill="#000000" font-family="sans-serif" font-size="14" lengthAdjust="spacing" textLength="66.2197" x="1063.3417" y="1159.6762">MongoDB</text><path d="M1081.4516,1173.7782 C1081.4516,1163.7782 1099.4516,1163.7782 1099.4516,1163.7782 C1099.4516,1163.7782 1117.4516,1163.7782 1117.4516,1173.7782 L1117.4516,1199.7782 C1117.4516,1209.7782 1099.4516,1209.7782 1099.4516,1209.7782 C1099.4516,1209.7782 1081.4516,1209.7782 1081.4516,1199.7782 L1081.4516,1173.7782" fill="#E2E2F0" style="stroke:#181818;stroke-width:0.5;"/><path d="M1081.4516,1173.7782 C1081.4516,1183.7782 1099.4516,1183.7782 1099.4516,1183.7782 C1099.4516,1183.7782 1117.4516,1183.7782 1117.4516,1173.7782" fill="none" style="stroke:#181818;stroke-width:0.5;"/></g><g class="message" data-entity-1="part1" data-entity-2="part2" id="msg1"><polygon fill="#181818" points="196.8711,153.8419,206.8711,157.8419,196.8711,161.8419,200.8711,157.8419" style="stroke:#181818;stroke-width:1;"/><line style="stroke:#181818;stroke-width:1;" x1="38.3089" x2="202.8711" y1="157.8419" y2="157.8419"/><text fill="#000000" font-family="sans-serif" font-size="13" lengthAdjust="spacing" textLength="104.1821" x="45.3089" y="152.0328">Navigate to /new</text></g><g class="message" data-entity-1="part2" data-entity-2="part3" id="msg2"><polygon fill="#181818" points="401.1943,203.2539,411.1943,207.2539,401.1943,211.2539,405.1943,207.2539" style="stroke:#181818;stroke-width:1;"/><line style="stroke:#181818;stroke-width:1;" x1="208.8711" x2="407.1943" y1="207.2539" y2="207.2539"/><text fill="#000000" font-family="sans-serif" font-size="13" lengthAdjust="spacing" textLength="85.5011" x="215.8711" y="183.7389">Render Step 1</text><text fill="#000000" font-family="sans-serif" font-size="13" lengthAdjust="spacing" textLength="135.2781" x="215.8711" y="201.4449">(Name &amp; Source Type)</text></g><g class="message" data-entity-1="part3" data-entity-2="part4" id="msg3"><polygon fill="#181818" points="609.0534,234.9599,619.0534,238.9599,609.0534,242.9599,613.0534,238.9599" style="stroke:#181818;stroke-width:1;"/><line style="stroke:#181818;stroke-width:1;" x1="413.1943" x2="615.0534" y1="238.9599" y2="238.9599"/><text fill="#000000" font-family="sans-serif" font-size="13" lengthAdjust="spacing" textLength="154.3882" x="420.1943" y="233.1509">Check GitHub connection</text></g><g class="message" data-entity-1="part4" data-entity-2="part3" id="msg4"><polygon fill="#181818" points="424.1943,266.6659,414.1943,270.6659,424.1943,274.6659,420.1943,270.6659" style="stroke:#181818;stroke-width:1;"/><line style="stroke:#181818;stroke-width:1;stroke-dasharray:2,2;" x1="418.1943" x2="620.0534" y1="270.6659" y2="270.6659"/><text fill="#000000" font-family="sans-serif" font-size="13" lengthAdjust="spacing" textLength="183.8592" x="430.1943" y="264.8569">{connected, githubUsername}</text></g><g class="message" data-entity-1="part1" data-entity-2="part3" id="msg5"><polygon fill="#181818" points="401.1943,316.0779,411.1943,320.0779,401.1943,324.0779,405.1943,320.0779" style="stroke:#181818;stroke-width:1;"/><line style="stroke:#181818;stroke-width:1;" x1="38.3089" x2="407.1943" y1="320.0779" y2="320.0779"/><text fill="#000000" font-family="sans-serif" font-size="13" lengthAdjust="spacing" textLength="117.0781" x="45.3089" y="296.5629">Enter project name</text><text fill="#000000" font-family="sans-serif" font-size="13" lengthAdjust="spacing" textLength="136.3831" x="45.3089" y="314.2689">Select "Git Repository"</text></g><g class="message" data-entity-1="part3" data-entity-2="part1" id="msg6"><polygon fill="#181818" points="49.3089,347.784,39.3089,351.784,49.3089,355.784,45.3089,351.784" style="stroke:#181818;stroke-width:1;"/><line style="stroke:#181818;stroke-width:1;stroke-dasharray:2,2;" x1="43.3089" x2="412.1943" y1="351.784" y2="351.784"/><text fill="#000000" font-family="sans-serif" font-size="13" lengthAdjust="spacing" textLength="171.0802" x="55.3089" y="345.975">Show Step 2 (Source Config)</text></g><path d="M10,366.784 L72.303,366.784 L72.303,376.49 L62.303,386.49 L10,386.49 L10,366.784" fill="#EEEEEE" style="stroke:#000000;stroke-width:1.5;"/><rect fill="none" height="307.0421" style="stroke:#000000;stroke-width:1.5;" width="845.4627" x="10" y="366.784"/><text fill="#000000" font-family="sans-serif" font-size="13" font-weight="bold" lengthAdjust="spacing" textLength="17.303" x="25" y="381.681">alt</text><text fill="#000000" font-family="sans-serif" font-size="11" font-weight="bold" lengthAdjust="spacing" textLength="107.4583" x="87.303" y="380.5429">[GitHub Connected]</text><g class="message" data-entity-1="part3" data-entity-2="part5" id="msg7"><polygon fill="#181818" points="753.586,406.196,763.586,410.196,753.586,414.196,757.586,410.196" style="stroke:#181818;stroke-width:1;"/><line style="stroke:#181818;stroke-width:1;" x1="413.1943" x2="759.586" y1="410.196" y2="410.196"/><text fill="#000000" font-family="sans-serif" font-size="13" lengthAdjust="spacing" textLength="135.3431" x="420.1943" y="404.387">GET /api/github/repos</text></g><g class="message" data-entity-1="part5" data-entity-2="part3" id="msg8"><polygon fill="#181818" points="424.1943,437.902,414.1943,441.902,424.1943,445.902,420.1943,441.902" style="stroke:#181818;stroke-width:1;"/><line style="stroke:#181818;stroke-width:1;stroke-dasharray:2,2;" x1="418.1943" x2="764.586" y1="441.902" y2="441.902"/><text fill="#000000" font-family="sans-serif" font-size="13" lengthAdjust="spacing" textLength="113.1651" x="430.1943" y="436.093">List of repositories</text></g><g class="message" data-entity-1="part3" data-entity-2="part1" id="msg9"><polygon fill="#181818" points="49.3089,469.608,39.3089,473.608,49.3089,477.608,45.3089,473.608" style="stroke:#181818;stroke-width:1;"/><line style="stroke:#181818;stroke-width:1;stroke-dasharray:2,2;" x1="43.3089" x2="412.1943" y1="473.608" y2="473.608"/><text fill="#000000" font-family="sans-serif" font-size="13" lengthAdjust="spacing" textLength="160.4981" x="55.3089" y="467.799">Show repo picker + search</text></g><g class="message" data-entity-1="part1" data-entity-2="part3" id="msg10"><polygon fill="#181818" points="401.1943,501.314,411.1943,505.314,401.1943,509.314,405.1943,505.314" style="stroke:#181818;stroke-width:1;"/><line style="stroke:#181818;stroke-width:1;" x1="38.3089" x2="407.1943" y1="505.314" y2="505.314"/><text fill="#000000" font-family="sans-serif" font-size="13" lengthAdjust="spacing" textLength="156.4161" x="45.3089" y="499.505">Select repository from list</text></g><g class="message" data-entity-1="part3" data-entity-2="part3" id="msg11"><line style="stroke:#181818;stroke-width:1;" x1="413.1943" x2="455.1943" y1="554.7261" y2="554.7261"/><line style="stroke:#181818;stroke-width:1;" x1="455.1943" x2="455.1943" y1="554.7261" y2="567.7261"/><line style="stroke:#181818;stroke-width:1;" x1="414.1943" x2="455.1943" y1="567.7261" y2="567.7261"/><polygon fill="#181818" points="424.1943,563.7261,414.1943,567.7261,424.1943,571.7261,420.1943,567.7261" style="stroke:#181818;stroke-width:1;"/><text fill="#000000" font-family="sans-serif" font-size="13" lengthAdjust="spacing" textLength="155.0772" x="420.1943" y="531.2111">Auto-fill gitUrl, gitBranch,</text><text fill="#000000" font-family="sans-serif" font-size="13" lengthAdjust="spacing" textLength="121.1861" x="420.1943" y="548.9171">gitProvider='github'</text></g><line style="stroke:#000000;stroke-width:1;stroke-dasharray:2,2;" x1="10" x2="855.4627" y1="576.7261" y2="576.7261"/><text fill="#000000" font-family="sans-serif" font-size="11" font-weight="bold" lengthAdjust="spacing" textLength="130.9101" x="15" y="588.485">[GitHub Not Connected]</text><g class="message" data-entity-1="part3" data-entity-2="part1" id="msg12"><polygon fill="#181818" points="49.3089,630.12,39.3089,634.12,49.3089,638.12,45.3089,634.12" style="stroke:#181818;stroke-width:1;"/><line style="stroke:#181818;stroke-width:1;stroke-dasharray:2,2;" x1="43.3089" x2="412.1943" y1="634.12" y2="634.12"/><text fill="#000000" font-family="sans-serif" font-size="13" lengthAdjust="spacing" textLength="188.9032" x="55.3089" y="610.605">Show "Connect GitHub" button</text><text fill="#000000" font-family="sans-serif" font-size="13" lengthAdjust="spacing" textLength="120.2501" x="55.3089" y="628.311">+ manual URL input</text></g><g class="message" data-entity-1="part1" data-entity-2="part3" id="msg13"><polygon fill="#181818" points="401.1943,661.826,411.1943,665.826,401.1943,669.826,405.1943,665.826" style="stroke:#181818;stroke-width:1;"/><line style="stroke:#181818;stroke-width:1;" x1="38.3089" x2="407.1943" y1="665.826" y2="665.826"/><text fill="#000000" font-family="sans-serif" font-size="13" lengthAdjust="spacing" textLength="139.3862" x="45.3089" y="660.017">Enter git URL manually</text></g><g class="message" data-entity-1="part3" data-entity-2="part1" id="msg14"><polygon fill="#181818" points="49.3089,700.532,39.3089,704.532,49.3089,708.532,45.3089,704.532" style="stroke:#181818;stroke-width:1;"/><line style="stroke:#181818;stroke-width:1;stroke-dasharray:2,2;" x1="43.3089" x2="412.1943" y1="704.532" y2="704.532"/><text fill="#000000" font-family="sans-serif" font-size="13" lengthAdjust="spacing" textLength="160.2902" x="55.3089" y="698.723">Show Step 3 (Build Config)</text></g><g class="message" data-entity-1="part1" data-entity-2="part3" id="msg15"><polygon fill="#181818" points="401.1943,749.9441,411.1943,753.9441,401.1943,757.9441,405.1943,753.9441" style="stroke:#181818;stroke-width:1;"/><line style="stroke:#181818;stroke-width:1;" x1="38.3089" x2="407.1943" y1="753.9441" y2="753.9441"/><text fill="#000000" font-family="sans-serif" font-size="13" lengthAdjust="spacing" textLength="135.9281" x="45.3089" y="730.429">Configure install/build</text><text fill="#000000" font-family="sans-serif" font-size="13" lengthAdjust="spacing" textLength="159.4582" x="45.3089" y="748.1351">commands and output dir</text></g><g class="message" data-entity-1="part1" data-entity-2="part3" id="msg16"><polygon fill="#181818" points="401.1943,781.6501,411.1943,785.6501,401.1943,789.6501,405.1943,785.6501" style="stroke:#181818;stroke-width:1;"/><line style="stroke:#181818;stroke-width:1;" x1="38.3089" x2="407.1943" y1="785.6501" y2="785.6501"/><text fill="#000000" font-family="sans-serif" font-size="13" lengthAdjust="spacing" textLength="128.4271" x="45.3089" y="779.8411">Click "Create Project"</text></g><g class="message" data-entity-1="part3" data-entity-2="part6" id="msg17"><polygon fill="#181818" points="911.3904,831.0621,921.3904,835.0621,911.3904,839.0621,915.3904,835.0621" style="stroke:#181818;stroke-width:1;"/><line style="stroke:#181818;stroke-width:1;" x1="413.1943" x2="917.3904" y1="835.0621" y2="835.0621"/><text fill="#000000" font-family="sans-serif" font-size="13" lengthAdjust="spacing" textLength="197.2492" x="420.1943" y="811.5471">POST {name, sourceType, gitUrl,</text><text fill="#000000" font-family="sans-serif" font-size="13" lengthAdjust="spacing" textLength="227.0453" x="420.1943" y="829.2531">gitBranch, gitProvider, ...buildConfig}</text></g><g class="message" data-entity-1="part6" data-entity-2="part6" id="msg18"><line style="stroke:#181818;stroke-width:1;" x1="923.3904" x2="965.3904" y1="866.7681" y2="866.7681"/><line style="stroke:#181818;stroke-width:1;" x1="965.3904" x2="965.3904" y1="866.7681" y2="879.7681"/><line style="stroke:#181818;stroke-width:1;" x1="924.3904" x2="965.3904" y1="879.7681" y2="879.7681"/><polygon fill="#181818" points="934.3904,875.7681,924.3904,879.7681,934.3904,883.7681,930.3904,879.7681" style="stroke:#181818;stroke-width:1;"/><text fill="#000000" font-family="sans-serif" font-size="13" lengthAdjust="spacing" textLength="84.6041" x="930.3904" y="860.9591">Validate input</text></g><g class="message" data-entity-1="part6" data-entity-2="part6" id="msg19"><line style="stroke:#181818;stroke-width:1;" x1="923.3904" x2="965.3904" y1="911.4742" y2="911.4742"/><line style="stroke:#181818;stroke-width:1;" x1="965.3904" x2="965.3904" y1="911.4742" y2="924.4742"/><line style="stroke:#181818;stroke-width:1;" x1="924.3904" x2="965.3904" y1="924.4742" y2="924.4742"/><polygon fill="#181818" points="934.3904,920.4742,924.3904,924.4742,934.3904,928.4742,930.3904,924.4742" style="stroke:#181818;stroke-width:1;"/><text fill="#000000" font-family="sans-serif" font-size="13" lengthAdjust="spacing" textLength="157.2741" x="930.3904" y="905.6651">Generate slug from name</text></g><g class="message" data-entity-1="part6" data-entity-2="part6" id="msg20"><line style="stroke:#181818;stroke-width:1;" x1="923.3904" x2="965.3904" y1="956.1802" y2="956.1802"/><line style="stroke:#181818;stroke-width:1;" x1="965.3904" x2="965.3904" y1="956.1802" y2="969.1802"/><line style="stroke:#181818;stroke-width:1;" x1="924.3904" x2="965.3904" y1="969.1802" y2="969.1802"/><polygon fill="#181818" points="934.3904,965.1802,924.3904,969.1802,934.3904,973.1802,930.3904,969.1802" style="stroke:#181818;stroke-width:1;"/><text fill="#000000" font-family="sans-serif" font-size="13" lengthAdjust="spacing" textLength="155.3632" x="930.3904" y="950.3712">requireAuth() - get userId</text></g><g class="message" data-entity-1="part6" data-entity-2="part7" id="msg21"><polygon fill="#181818" points="1087.4516,996.8862,1097.4516,1000.8862,1087.4516,1004.8862,1091.4516,1000.8862" style="stroke:#181818;stroke-width:1;"/><line style="stroke:#181818;stroke-width:1;" x1="923.3904" x2="1093.4516" y1="1000.8862" y2="1000.8862"/><text fill="#000000" font-family="sans-serif" font-size="13" lengthAdjust="spacing" textLength="152.0611" x="930.3904" y="995.0772">Create Project document</text></g><g class="message" data-entity-1="part7" data-entity-2="part6" id="msg22"><polygon fill="#181818" points="934.3904,1028.5922,924.3904,1032.5922,934.3904,1036.5922,930.3904,1032.5922" style="stroke:#181818;stroke-width:1;"/><line style="stroke:#181818;stroke-width:1;stroke-dasharray:2,2;" x1="928.3904" x2="1098.4516" y1="1032.5922" y2="1032.5922"/><text fill="#000000" font-family="sans-serif" font-size="13" lengthAdjust="spacing" textLength="92.3521" x="940.3904" y="1026.7832">Project created</text></g><g class="message" data-entity-1="part6" data-entity-2="part3" id="msg23"><polygon fill="#181818" points="424.1943,1060.2982,414.1943,1064.2982,424.1943,1068.2982,420.1943,1064.2982" style="stroke:#181818;stroke-width:1;"/><line style="stroke:#181818;stroke-width:1;stroke-dasharray:2,2;" x1="418.1943" x2="922.3904" y1="1064.2982" y2="1064.2982"/><text fill="#000000" font-family="sans-serif" font-size="13" lengthAdjust="spacing" textLength="78.4161" x="430.1943" y="1058.4892">201 {project}</text></g><g class="message" data-entity-1="part3" data-entity-2="part2" id="msg24"><polygon fill="#181818" points="219.8711,1092.0042,209.8711,1096.0042,219.8711,1100.0042,215.8711,1096.0042" style="stroke:#181818;stroke-width:1;"/><line style="stroke:#181818;stroke-width:1;" x1="213.8711" x2="412.1943" y1="1096.0042" y2="1096.0042"/><text fill="#000000" font-family="sans-serif" font-size="13" lengthAdjust="spacing" textLength="180.3232" x="225.8711" y="1090.1952">router.push('/projects/{slug}')</text></g><g class="message" data-entity-1="part2" data-entity-2="part1" id="msg25"><polygon fill="#181818" points="49.3089,1123.7103,39.3089,1127.7103,49.3089,1131.7103,45.3089,1127.7103" style="stroke:#181818;stroke-width:1;"/><line style="stroke:#181818;stroke-width:1;stroke-dasharray:2,2;" x1="43.3089" x2="207.8711" y1="1127.7103" y2="1127.7103"/><text fill="#000000" font-family="sans-serif" font-size="13" lengthAdjust="spacing" textLength="146.5621" x="55.3089" y="1121.9012">Redirect to project page</text></g><?plantuml-src TLHDRzf04BtlhnZvK43X8sbwGcgb628IAQK8GazS5dkmjrbstVLk44NyzyxQQmlKz8A4vysRDszcnmeh4LRusw5A4AQ2PuRlnp0no2t270-mCFeN9XQwwydWzakFCPvORI1QbsWYu2MiMS6D5OaekB8GnKOVcb1y7RgaM_0CDwfxFoWj5d0GVxX9UrNIV76TDNjyXH4ln8WxcuysAXCsTzjHQRbrPPKnUrhz9oLW3HOwG9VNoCMFLO0MjR0Qzh1uPYctVCjBXEYxLfcUnbLa6ZEsXi4tYCSmv-yYypvP3IE51nRxm7mnXYMg50siV6ztrEQSxn4-mKexGpQ_7WliiVd2eqaxsPrZyWOpOP_S5XAj50aHMZ4AmY1Gdi9tJFjGj-Kde8Zu71HvrAEoL3Vq0ZwwKIkK_az4_2ICd10qm6DK2Q2qzHXMkJxKOZz3DuYSQBKJcP-tj8sqIIE10GJvop5yw3OXPijM_8ieBUWTcAQym39mN2ZmKIX4yaOjt429t2Gv8rZRNUYaPJd2pkWzI69l5NdSWxDwi1DIUgVMHbQEnOQh9EzN2qHR-2veGbyxjUOEGqcJ3ctEjVsdrGkPKOW5U0HRPwrM6tK3UwuSbx1Ule1GXRENuklHKBqgN2FbaT6ci0z7SG_Ts0cPjfDecUeFpY0LeMSWvMZhWHkLw3tnfYNG3sXdIG6ambnaIdAN6gYVTtYB4GkxI5i_Xkf5dFpczA6iLi6lQxznih8lM0aNJlPXE1nMCcfrPqPiBUbFBaNgIzQkN8PcgD3uK2bTLi_J5x_263fGmY2DDU_sO00PMd2q_Szf0vl6xT5gBaog4xT7PTaqhiojkml1fCA6z63EvzixE8MdSmwM4AqX8z4C2rVctKvx9aOdh_VSwR6u6TqIoMjFJkUWUO45dJds5m00?></g></svg>