<?plantuml 1.2026.1?><svg xmlns="http://www.w3.org/2000/svg" xmlns:xlink="http://www.w3.org/1999/xlink" contentStyleType="text/css" data-diagram-type="SEQUENCE" height="1067px" preserveAspectRatio="none" style="width:919px;height:1067px;background:#FFFFFF;" version="1.1" viewBox="0 0 919 1067" width="919px" zoomAndPan="magnify"><title>Sequence Diagram: Authentication Middleware Flow (UC-10)</title><defs/><g><text fill="#000000" font-family="sans-serif" font-size="14" font-weight="bold" lengthAdjust="spacing" textLength="419.3123" x="251.1121" y="29.9659">Sequence Diagram: Authentication Middleware Flow (UC-10)</text><rect fill="none" height="717.7539" style="stroke:#000000;stroke-width:1.5;" width="902.5365" x="10" y="249.2539"/><rect fill="none" height="258.63" style="stroke:#000000;stroke-width:1.5;" width="882.5365" x="20" y="307.6659"/><rect fill="none" height="258.63" style="stroke:#000000;stroke-width:1.5;" width="785.3867" x="20" y="701.3778"/><g class="participant-lifeline" data-entity-uid="part1" data-qualified-name="U" id="part1-lifeline"><g><title>User</title><rect fill="#000000" fill-opacity="0.00000" height="859.8719" width="8" x="44.3089" y="124.1358"/><line style="stroke:#181818;stroke-width:0.5;stroke-dasharray:5,5;" x1="48" x2="48" y1="124.1358" y2="984.0078"/></g></g><g class="participant-lifeline" data-entity-uid="part2" data-qualified-name="B" id="part2-lifeline"><g><title>Browser</title><rect fill="#000000" fill-opacity="0.00000" height="859.8719" width="8" x="204.0941" y="124.1358"/><line style="stroke:#181818;stroke-width:0.5;stroke-dasharray:5,5;" x1="207.7242" x2="207.7242" y1="124.1358" y2="984.0078"/></g></g><g class="participant-lifeline" data-entity-uid="part3" data-qualified-name="MW" id="part3-lifeline"><g><title>Edge Middleware</title><rect fill="#000000" fill-opacity="0.00000" height="859.8719" width="8" x="366.7912" y="124.1358"/><line style="stroke:#181818;stroke-width:0.5;stroke-dasharray:5,5;" x1="370.7344" x2="370.7344" y1="124.1358" y2="984.0078"/></g></g><g class="participant-lifeline" data-entity-uid="part4" data-qualified-name="JWT" id="part4-lifeline"><g><title>NextAuth JWT</title><rect fill="#000000" fill-opacity="0.00000" height="859.8719" width="8" x="587.3124" y="124.1358"/><line style="stroke:#181818;stroke-width:0.5;stroke-dasharray:5,5;" x1="591.0296" x2="591.0296" y1="124.1358" y2="984.0078"/></g></g><g class="participant-lifeline" data-entity-uid="part5" data-qualified-name="PAGE" id="part5-lifeline"><g><title>Protected Page.API</title><rect fill="#000000" fill-opacity="0.00000" height="859.8719" width="8" x="720.491" y="124.1358"/><line style="stroke:#181818;stroke-width:0.5;stroke-dasharray:5,5;" x1="723.5952" x2="723.5952" y1="124.1358" y2="984.0078"/></g></g><g class="participant-lifeline" data-entity-uid="part6" data-qualified-name="LP" id="part6-lifeline"><g><title>Login Page</title><rect fill="#000000" fill-opacity="0.00000" height="859.8719" width="8" x="844.9616" y="124.1358"/><line style="stroke:#181818;stroke-width:0.5;stroke-dasharray:5,5;" x1="848.3867" x2="848.3867" y1="124.1358" y2="984.0078"/></g></g><g class="participant participant-head" data-entity-uid="part1" data-qualified-name="U" id="part1-head"><text fill="#000000" font-family="sans-serif" font-size="14" lengthAdjust="spacing" textLength="30.6179" x="30" y="120.0339">User</text><ellipse cx="48.3089" cy="53.5679" fill="#E2E2F0" rx="8" ry="8" style="stroke:#181818;stroke-width:0.5;"/><path d="M48.3089,61.5679 L48.3089,88.5679 M35.3089,69.5679 L61.3089,69.5679 M48.3089,88.5679 L35.3089,103.5679 M48.3089,88.5679 L61.3089,103.5679" fill="none" style="stroke:#181818;stroke-width:0.5;"/></g><g class="participant participant-tail" data-entity-uid="part1" data-qualified-name="U" id="part1-tail"><text fill="#000000" font-family="sans-serif" font-size="14" lengthAdjust="spacing" textLength="30.6179" x="30" y="997.9737">User</text><ellipse cx="48.3089" cy="1010.5757" fill="#E2E2F0" rx="8" ry="8" style="stroke:#181818;stroke-width:0.5;"/><path d="M48.3089,1018.5757 L48.3089,1045.5757 M35.3089,1026.5757 L61.3089,1026.5757 M48.3089,1045.5757 L35.3089,1060.5757 M48.3089,1045.5757 L61.3089,1060.5757" fill="none" style="stroke:#181818;stroke-width:0.5;"/></g><g class="participant participant-head" data-entity-uid="part2" data-qualified-name="B" id="part2-head"><rect fill="#E2E2F0" height="33.0679" rx="2.5" ry="2.5" style="stroke:#181818;stroke-width:0.5;" width="68.7398" x="173.7242" y="90.0679"/><text fill="#000000" font-family="sans-serif" font-size="14" lengthAdjust="spacing" textLength="54.7398" x="180.7242" y="112.0339">Browser</text></g><g class="participant participant-tail" data-entity-uid="part2" data-qualified-name="B" id="part2-tail"><rect fill="#E2E2F0" height="33.0679" rx="2.5" ry="2.5" style="stroke:#181818;stroke-width:0.5;" width="68.7398" x="173.7242" y="983.0078"/><text fill="#000000" font-family="sans-serif" font-size="14" lengthAdjust="spacing" textLength="54.7398" x="180.7242" y="1004.9737">Browser</text></g><g class="participant participant-head" data-entity-uid="part3" data-qualified-name="MW" id="part3-head"><rect fill="#E2E2F0" height="52.1358" rx="2.5" ry="2.5" style="stroke:#181818;stroke-width:0.5;" width="128.1136" x="306.7344" y="71"/><text fill="#000000" font-family="sans-serif" font-size="14" lengthAdjust="spacing" textLength="114.1136" x="313.7344" y="92.9659">Edge Middleware</text><text fill="#000000" font-family="sans-serif" font-size="14" lengthAdjust="spacing" textLength="98.7556" x="321.4134" y="112.0339">(auth.config.ts)</text></g><g class="participant participant-tail" data-entity-uid="part3" data-qualified-name="MW" id="part3-tail"><rect fill="#E2E2F0" height="52.1358" rx="2.5" ry="2.5" style="stroke:#181818;stroke-width:0.5;" width="128.1136" x="306.7344" y="983.0078"/><text fill="#000000" font-family="sans-serif" font-size="14" lengthAdjust="spacing" textLength="114.1136" x="313.7344" y="1004.9737">Edge Middleware</text><text fill="#000000" font-family="sans-serif" font-size="14" lengthAdjust="spacing" textLength="98.7556" x="321.4134" y="1024.0416">(auth.config.ts)</text></g><g class="participant participant-head" data-entity-uid="part4" data-qualified-name="JWT" id="part4-head"><rect fill="#E2E2F0" height="33.0679" rx="2.5" ry="2.5" style="stroke:#181818;stroke-width:0.5;" width="104.5656" x="539.0296" y="90.0679"/><text fill="#000000" font-family="sans-serif" font-size="14" lengthAdjust="spacing" textLength="90.5656" x="546.0296" y="112.0339">NextAuth JWT</text></g><g class="participant participant-tail" data-entity-uid="part4" data-qualified-name="JWT" id="part4-tail"><rect fill="#E2E2F0" height="33.0679" rx="2.5" ry="2.5" style="stroke:#181818;stroke-width:0.5;" width="104.5656" x="539.0296" y="983.0078"/><text fill="#000000" font-family="sans-serif" font-size="14" lengthAdjust="spacing" textLength="90.5656" x="546.0296" y="1004.9737">NextAuth JWT</text></g><g class="participant participant-head" data-entity-uid="part5" data-qualified-name="PAGE" id="part5-head"><rect fill="#E2E2F0" height="33.0679" rx="2.5" ry="2.5" style="stroke:#181818;stroke-width:0.5;" width="141.7915" x="653.5952" y="90.0679"/><text fill="#000000" font-family="sans-serif" font-size="14" lengthAdjust="spacing" textLength="127.7915" x="660.5952" y="112.0339">Protected Page/API</text></g><g class="participant participant-tail" data-entity-uid="part5" data-qualified-name="PAGE" id="part5-tail"><rect fill="#E2E2F0" height="33.0679" rx="2.5" ry="2.5" style="stroke:#181818;stroke-width:0.5;" width="141.7915" x="653.5952" y="983.0078"/><text fill="#000000" font-family="sans-serif" font-size="14" lengthAdjust="spacing" textLength="127.7915" x="660.5952" y="1004.9737">Protected Page/API</text></g><g class="participant participant-head" data-entity-uid="part6" data-qualified-name="LP" id="part6-head"><rect fill="#E2E2F0" height="33.0679" rx="2.5" ry="2.5" style="stroke:#181818;stroke-width:0.5;" width="87.1497" x="805.3867" y="90.0679"/><text fill="#000000" font-family="sans-serif" font-size="14" lengthAdjust="spacing" textLength="73.1497" x="812.3867" y="112.0339">Login Page</text></g><g class="participant participant-tail" data-entity-uid="part6" data-qualified-name="LP" id="part6-tail"><rect fill="#E2E2F0" height="33.0679" rx="2.5" ry="2.5" style="stroke:#181818;stroke-width:0.5;" width="87.1497" x="805.3867" y="983.0078"/><text fill="#000000" font-family="sans-serif" font-size="14" lengthAdjust="spacing" textLength="73.1497" x="812.3867" y="1004.9737">Login Page</text></g><g class="message" data-entity-1="part1" data-entity-2="part2" id="msg1"><polygon fill="#181818" points="196.0941,153.8419,206.0941,157.8419,196.0941,161.8419,200.0941,157.8419" style="stroke:#181818;stroke-width:1;"/><line style="stroke:#181818;stroke-width:1;" x1="48.3089" x2="202.0941" y1="157.8419" y2="157.8419"/><text fill="#000000" font-family="sans-serif" font-size="13" lengthAdjust="spacing" textLength="102.8171" x="55.3089" y="152.0328">Request any URL</text></g><g class="message" data-entity-1="part2" data-entity-2="part3" id="msg2"><polygon fill="#181818" points="358.7912,185.5479,368.7912,189.5479,358.7912,193.5479,362.7912,189.5479" style="stroke:#181818;stroke-width:1;"/><line style="stroke:#181818;stroke-width:1;" x1="208.0941" x2="364.7912" y1="189.5479" y2="189.5479"/><text fill="#000000" font-family="sans-serif" font-size="13" lengthAdjust="spacing" textLength="85.0331" x="215.0941" y="183.7389">HTTP Request</text></g><g class="message" data-entity-1="part3" data-entity-2="part3" id="msg3"><line style="stroke:#181818;stroke-width:1;" x1="370.7912" x2="412.7912" y1="221.2539" y2="221.2539"/><line style="stroke:#181818;stroke-width:1;" x1="412.7912" x2="412.7912" y1="221.2539" y2="234.2539"/><line style="stroke:#181818;stroke-width:1;" x1="371.7912" x2="412.7912" y1="234.2539" y2="234.2539"/><polygon fill="#181818" points="381.7912,230.2539,371.7912,234.2539,381.7912,238.2539,377.7912,234.2539" style="stroke:#181818;stroke-width:1;"/><text fill="#000000" font-family="sans-serif" font-size="13" lengthAdjust="spacing" textLength="108.6021" x="377.7912" y="215.4449">Extract pathname</text></g><path d="M10,249.2539 L72.303,249.2539 L72.303,258.9599 L62.303,268.9599 L10,268.9599 L10,249.2539" fill="#EEEEEE" style="stroke:#000000;stroke-width:1.5;"/><rect fill="none" height="717.7539" style="stroke:#000000;stroke-width:1.5;" width="902.5365" x="10" y="249.2539"/><text fill="#000000" font-family="sans-serif" font-size="13" font-weight="bold" lengthAdjust="spacing" textLength="17.303" x="25" y="264.1509">alt</text><text fill="#000000" font-family="sans-serif" font-size="11" font-weight="bold" lengthAdjust="spacing" textLength="144.847" x="87.303" y="263.0128">[Path is /login or /register]</text><g class="message" data-entity-1="part3" data-entity-2="part4" id="msg4"><polygon fill="#181818" points="579.3124,288.6659,589.3124,292.6659,579.3124,296.6659,583.3124,292.6659" style="stroke:#181818;stroke-width:1;"/><line style="stroke:#181818;stroke-width:1;" x1="370.7912" x2="585.3124" y1="292.6659" y2="292.6659"/><text fill="#000000" font-family="sans-serif" font-size="13" lengthAdjust="spacing" textLength="123.6561" x="377.7912" y="286.8569">Check session token</text></g><path d="M20,307.6659 L82.303,307.6659 L82.303,317.3719 L72.303,327.3719 L20,327.3719 L20,307.6659" fill="#EEEEEE" style="stroke:#000000;stroke-width:1.5;"/><rect fill="none" height="258.63" style="stroke:#000000;stroke-width:1.5;" width="882.5365" x="20" y="307.6659"/><text fill="#000000" font-family="sans-serif" font-size="13" font-weight="bold" lengthAdjust="spacing" textLength="17.303" x="35" y="322.5629">alt</text><text fill="#000000" font-family="sans-serif" font-size="11" font-weight="bold" lengthAdjust="spacing" textLength="100.3633" x="97.303" y="321.4248">[Has valid session]</text><g class="message" data-entity-1="part4" data-entity-2="part3" id="msg5"><polygon fill="#181818" points="381.7912,347.0779,371.7912,351.0779,381.7912,355.0779,377.7912,351.0779" style="stroke:#181818;stroke-width:1;"/><line style="stroke:#181818;stroke-width:1;stroke-dasharray:2,2;" x1="375.7912" x2="590.3124" y1="351.0779" y2="351.0779"/><text fill="#000000" font-family="sans-serif" font-size="13" lengthAdjust="spacing" textLength="172.7182" x="387.7912" y="345.2689">Session (user authenticated)</text></g><g class="message" data-entity-1="part3" data-entity-2="part2" id="msg6"><polygon fill="#181818" points="219.0941,378.784,209.0941,382.784,219.0941,386.784,215.0941,382.784" style="stroke:#181818;stroke-width:1;"/><line style="stroke:#181818;stroke-width:1;stroke-dasharray:2,2;" x1="213.0941" x2="369.7912" y1="382.784" y2="382.784"/><text fill="#000000" font-family="sans-serif" font-size="13" lengthAdjust="spacing" textLength="100.2431" x="225.0941" y="376.975">302 Redirect to /</text></g><g class="message" data-entity-1="part2" data-entity-2="part1" id="msg7"><polygon fill="#181818" points="59.3089,410.49,49.3089,414.49,59.3089,418.49,55.3089,414.49" style="stroke:#181818;stroke-width:1;"/><line style="stroke:#181818;stroke-width:1;stroke-dasharray:2,2;" x1="53.3089" x2="207.0941" y1="414.49" y2="414.49"/><text fill="#000000" font-family="sans-serif" font-size="13" lengthAdjust="spacing" textLength="135.7851" x="65.3089" y="408.681">Redirect to dashboard</text></g><line style="stroke:#000000;stroke-width:1;stroke-dasharray:2,2;" x1="20" x2="902.5365" y1="423.49" y2="423.49"/><text fill="#000000" font-family="sans-serif" font-size="11" font-weight="bold" lengthAdjust="spacing" textLength="66.4065" x="25" y="435.2489">[No session]</text><g class="message" data-entity-1="part4" data-entity-2="part3" id="msg8"><polygon fill="#181818" points="381.7912,459.1779,371.7912,463.1779,381.7912,467.1779,377.7912,463.1779" style="stroke:#181818;stroke-width:1;"/><line style="stroke:#181818;stroke-width:1;stroke-dasharray:2,2;" x1="375.7912" x2="590.3124" y1="463.1779" y2="463.1779"/><text fill="#000000" font-family="sans-serif" font-size="13" lengthAdjust="spacing" textLength="22.776" x="387.7912" y="457.3689">null</text></g><g class="message" data-entity-1="part3" data-entity-2="part2" id="msg9"><polygon fill="#181818" points="219.0941,490.8839,209.0941,494.8839,219.0941,498.8839,215.0941,494.8839" style="stroke:#181818;stroke-width:1;"/><line style="stroke:#181818;stroke-width:1;stroke-dasharray:2,2;" x1="213.0941" x2="369.7912" y1="494.8839" y2="494.8839"/><text fill="#000000" font-family="sans-serif" font-size="13" lengthAdjust="spacing" textLength="86.5021" x="225.0941" y="489.0749">Allow through</text></g><g class="message" data-entity-1="part2" data-entity-2="part6" id="msg10"><polygon fill="#181818" points="836.9616,522.5899,846.9616,526.5899,836.9616,530.5899,840.9616,526.5899" style="stroke:#181818;stroke-width:1;"/><line style="stroke:#181818;stroke-width:1;" x1="208.0941" x2="842.9616" y1="526.5899" y2="526.5899"/><text fill="#000000" font-family="sans-serif" font-size="13" lengthAdjust="spacing" textLength="130.6371" x="215.0941" y="520.7809">Render login/register</text></g><g class="message" data-entity-1="part6" data-entity-2="part1" id="msg11"><polygon fill="#181818" points="59.3089,554.2959,49.3089,558.2959,59.3089,562.2959,55.3089,558.2959" style="stroke:#181818;stroke-width:1;"/><line style="stroke:#181818;stroke-width:1;stroke-dasharray:2,2;" x1="53.3089" x2="847.9616" y1="558.2959" y2="558.2959"/><text fill="#000000" font-family="sans-serif" font-size="13" lengthAdjust="spacing" textLength="97.9291" x="65.3089" y="552.4869">Show auth form</text></g><line style="stroke:#000000;stroke-width:1;stroke-dasharray:2,2;" x1="10" x2="912.5365" y1="574.2959" y2="574.2959"/><text fill="#000000" font-family="sans-serif" font-size="11" font-weight="bold" lengthAdjust="spacing" textLength="109.3062" x="15" y="586.0548">[Path is /api/auth/*]</text><g class="message" data-entity-1="part3" data-entity-2="part2" id="msg12"><polygon fill="#181818" points="219.0941,621.8368,209.0941,625.8368,219.0941,629.8368,215.0941,625.8368" style="stroke:#181818;stroke-width:1;"/><line style="stroke:#181818;stroke-width:1;stroke-dasharray:2,2;" x1="213.0941" x2="369.7912" y1="625.8368" y2="625.8368"/><text fill="#000000" font-family="sans-serif" font-size="13" lengthAdjust="spacing" textLength="138.6971" x="225.0941" y="620.0278">Allow through (always)</text></g><path d="M375,595.2778 L375,640.2778 L496,640.2778 L496,605.2778 L486,595.2778 L375,595.2778" fill="#FEFFDD" style="stroke:#181818;stroke-width:0.5;"/><path d="M486,595.2778 L486,605.2778 L496,605.2778 L486,595.2778" fill="#FEFFDD" style="stroke:#181818;stroke-width:0.5;"/><text fill="#000000" font-family="sans-serif" font-size="13" lengthAdjust="spacing" textLength="100.7501" x="381" y="614.1748">NextAuth routes</text><text fill="#000000" font-family="sans-serif" font-size="13" lengthAdjust="spacing" textLength="90.1681" x="381" y="631.8809">must be public</text><line style="stroke:#000000;stroke-width:1;stroke-dasharray:2,2;" x1="10" x2="912.5365" y1="646.6899" y2="646.6899"/><text fill="#000000" font-family="sans-serif" font-size="11" font-weight="bold" lengthAdjust="spacing" textLength="154.1639" x="15" y="658.4488">[Any other path (protected)]</text><g class="message" data-entity-1="part3" data-entity-2="part4" id="msg14"><polygon fill="#181818" points="579.3124,682.3778,589.3124,686.3778,579.3124,690.3778,583.3124,686.3778" style="stroke:#181818;stroke-width:1;"/><line style="stroke:#181818;stroke-width:1;" x1="370.7912" x2="585.3124" y1="686.3778" y2="686.3778"/><text fill="#000000" font-family="sans-serif" font-size="13" lengthAdjust="spacing" textLength="123.6561" x="377.7912" y="680.5688">Check session token</text></g><path d="M20,701.3778 L82.303,701.3778 L82.303,711.0838 L72.303,721.0838 L20,721.0838 L20,701.3778" fill="#EEEEEE" style="stroke:#000000;stroke-width:1.5;"/><rect fill="none" height="258.63" style="stroke:#000000;stroke-width:1.5;" width="785.3867" x="20" y="701.3778"/><text fill="#000000" font-family="sans-serif" font-size="13" font-weight="bold" lengthAdjust="spacing" textLength="17.303" x="35" y="716.2748">alt</text><text fill="#000000" font-family="sans-serif" font-size="11" font-weight="bold" lengthAdjust="spacing" textLength="100.3633" x="97.303" y="715.1367">[Has valid session]</text><g class="message" data-entity-1="part4" data-entity-2="part3" id="msg15"><polygon fill="#181818" points="381.7912,740.7898,371.7912,744.7898,381.7912,748.7898,377.7912,744.7898" style="stroke:#181818;stroke-width:1;"/><line style="stroke:#181818;stroke-width:1;stroke-dasharray:2,2;" x1="375.7912" x2="590.3124" y1="744.7898" y2="744.7898"/><text fill="#000000" font-family="sans-serif" font-size="13" lengthAdjust="spacing" textLength="196.5212" x="387.7912" y="738.9808">Session {user: {id, name, email}}</text></g><g class="message" data-entity-1="part3" data-entity-2="part2" id="msg16"><polygon fill="#181818" points="219.0941,772.4958,209.0941,776.4958,219.0941,780.4958,215.0941,776.4958" style="stroke:#181818;stroke-width:1;"/><line style="stroke:#181818;stroke-width:1;stroke-dasharray:2,2;" x1="213.0941" x2="369.7912" y1="776.4958" y2="776.4958"/><text fill="#000000" font-family="sans-serif" font-size="13" lengthAdjust="spacing" textLength="86.5021" x="225.0941" y="770.6868">Allow through</text></g><g class="message" data-entity-1="part2" data-entity-2="part5" id="msg17"><polygon fill="#181818" points="712.491,804.2018,722.491,808.2018,712.491,812.2018,716.491,808.2018" style="stroke:#181818;stroke-width:1;"/><line style="stroke:#181818;stroke-width:1;" x1="208.0941" x2="718.491" y1="808.2018" y2="808.2018"/><text fill="#000000" font-family="sans-serif" font-size="13" lengthAdjust="spacing" textLength="154.7781" x="215.0941" y="802.3928">Render page/execute API</text></g><g class="message" data-entity-1="part5" data-entity-2="part1" id="msg18"><polygon fill="#181818" points="59.3089,835.9078,49.3089,839.9078,59.3089,843.9078,55.3089,839.9078" style="stroke:#181818;stroke-width:1;"/><line style="stroke:#181818;stroke-width:1;stroke-dasharray:2,2;" x1="53.3089" x2="723.491" y1="839.9078" y2="839.9078"/><text fill="#000000" font-family="sans-serif" font-size="13" lengthAdjust="spacing" textLength="109.6551" x="65.3089" y="834.0988">Protected content</text></g><line style="stroke:#000000;stroke-width:1;stroke-dasharray:2,2;" x1="20" x2="805.3867" y1="848.9078" y2="848.9078"/><text fill="#000000" font-family="sans-serif" font-size="11" font-weight="bold" lengthAdjust="spacing" textLength="148.5649" x="25" y="860.6668">[No session / invalid token]</text><g class="message" data-entity-1="part4" data-entity-2="part3" id="msg19"><polygon fill="#181818" points="381.7912,884.5957,371.7912,888.5957,381.7912,892.5957,377.7912,888.5957" style="stroke:#181818;stroke-width:1;"/><line style="stroke:#181818;stroke-width:1;stroke-dasharray:2,2;" x1="375.7912" x2="590.3124" y1="888.5957" y2="888.5957"/><text fill="#000000" font-family="sans-serif" font-size="13" lengthAdjust="spacing" textLength="22.776" x="387.7912" y="882.7867">null</text></g><g class="message" data-entity-1="part3" data-entity-2="part2" id="msg20"><polygon fill="#181818" points="219.0941,916.3018,209.0941,920.3018,219.0941,924.3018,215.0941,920.3018" style="stroke:#181818;stroke-width:1;"/><line style="stroke:#181818;stroke-width:1;stroke-dasharray:2,2;" x1="213.0941" x2="369.7912" y1="920.3018" y2="920.3018"/><text fill="#000000" font-family="sans-serif" font-size="13" lengthAdjust="spacing" textLength="130.8451" x="225.0941" y="914.4928">302 Redirect to /login</text></g><g class="message" data-entity-1="part2" data-entity-2="part1" id="msg21"><polygon fill="#181818" points="59.3089,948.0078,49.3089,952.0078,59.3089,956.0078,55.3089,952.0078" style="stroke:#181818;stroke-width:1;"/><line style="stroke:#181818;stroke-width:1;stroke-dasharray:2,2;" x1="53.3089" x2="207.0941" y1="952.0078" y2="952.0078"/><text fill="#000000" font-family="sans-serif" font-size="13" lengthAdjust="spacing" textLength="68.0551" x="65.3089" y="946.1988">Login page</text></g><?plantuml-src hLEnRjim5Dpv5G-Uv2AEqdRJ441EtQQ57GYn1IzPQF558aAJAadL3eByUnzfouaQ1EtGmJ2WTuztl3jwwHN24dzsg2k4BvBNbcypo3lVeFQoubuQ3GifXC8TjmXVbTb1KbvDFbwC6UELDnP6fKCx0kwWP2stj2PRhZsCfjRi-j5qE9g96b-TUwSJJfpdbT7tiZxtRXoN5klXrWtkVT06FzQh2A3_8QAmncFbKK31Qqppudl45VctsH0uDxNK4HG1yuAn4YQNCCtWDlZXF73z2ENjd4t3zyKwW-lLgkYdZ2tM_VVPtbko0bhk6ystICOeJsUJKEaWLP6AZ4ejrj9vj0pWi4twCxXgi7e0Xyu5ixrvG4s0SCGrAVl5bHJzbBv3M8B9aNfvt4ewCXhuIsuenX4SU0xN-dpnYSGBQSaVOe4qpgTnN6Q3aU2ksHXk1K5GEOGRywu2tIdr1rEkGajyOqrNDptB9NaSMBGWeT6IrtO0JNibouQsmrNWtjXjaA05Or77oLFUoZH0qW_iNMP8kDhnHnUCq5GBiB9kV0Qd5X7AexlJsuxItY2qtKR9waYLK_g6xBGnLaZQlbdZ_v_UKqWlWoSfpY0Kw0nmowLwVlutOqExJzQseVUunuhk1jJ_20k8tjwN9qAlpLDTteOCAKXzaDvVwA-XlwbNp7ZOiSEZ2mgFgORVRm00?></g></svg>