<?plantuml 1.2026.1?><svg xmlns="http://www.w3.org/2000/svg" xmlns:xlink="http://www.w3.org/1999/xlink" contentStyleType="text/css" data-diagram-type="SEQUENCE" height="1317px" preserveAspectRatio="none" style="width:1194px;height:1317px;background:#FFFFFF;" version="1.1" viewBox="0 0 1194 1317" width="1194px" zoomAndPan="magnify"><title>Sequence Diagram: GitHub OAuth Connection (UC-06)</title><defs/><g><text fill="#000000" font-family="sans-serif" font-size="14" font-weight="bold" lengthAdjust="spacing" textLength="372.4405" x="411.7818" y="29.9659">Sequence Diagram: GitHub OAuth Connection (UC-06)</text><rect fill="none" height="707.9263" style="stroke:#000000;stroke-width:1.5;" width="1177.0042" x="10" y="509.314"/><g class="participant-lifeline" data-entity-uid="part1" data-qualified-name="U" id="part1-lifeline"><g><title>User</title><rect fill="#000000" fill-opacity="0.00000" height="1110.1045" width="8" x="34.3089" y="124.1358"/><line style="stroke:#181818;stroke-width:0.5;stroke-dasharray:5,5;" x1="38" x2="38" y1="124.1358" y2="1234.2403"/></g></g><g class="participant-lifeline" data-entity-uid="part2" data-qualified-name="B" id="part2-lifeline"><g><title>Browser</title><rect fill="#000000" fill-opacity="0.00000" height="1110.1045" width="8" x="197.4611" y="124.1358"/><line style="stroke:#181818;stroke-width:0.5;stroke-dasharray:5,5;" x1="201.0912" x2="201.0912" y1="124.1358" y2="1234.2403"/></g></g><g class="participant-lifeline" data-entity-uid="part3" data-qualified-name="SP" id="part3-lifeline"><g><title>Settings Page</title><rect fill="#000000" fill-opacity="0.00000" height="1110.1045" width="8" x="349.3162" y="124.1358"/><line style="stroke:#181818;stroke-width:0.5;stroke-dasharray:5,5;" x1="352.4464" x2="352.4464" y1="124.1358" y2="1234.2403"/></g></g><g class="participant-lifeline" data-entity-uid="part4" data-qualified-name="INIT" id="part4-lifeline"><g><title>GET .api.auth.github</title><rect fill="#000000" fill-opacity="0.00000" height="1110.1045" width="8" x="487.4368" y="124.1358"/><line style="stroke:#181818;stroke-width:0.5;stroke-dasharray:5,5;" x1="491.186" x2="491.186" y1="124.1358" y2="1234.2403"/></g></g><g class="participant-lifeline" data-entity-uid="part5" data-qualified-name="GH" id="part5-lifeline"><g><title>GitHub OAuth</title><rect fill="#000000" fill-opacity="0.00000" height="1110.1045" width="8" x="662.8449" y="124.1358"/><line style="stroke:#181818;stroke-width:0.5;stroke-dasharray:5,5;" x1="666.6591" x2="666.6591" y1="124.1358" y2="1234.2403"/></g></g><g class="participant-lifeline" data-entity-uid="part6" data-qualified-name="CB" id="part6-lifeline"><g><title>GET .api.auth.</title><rect fill="#000000" fill-opacity="0.00000" height="1110.1045" width="8" x="883.834" y="124.1358"/><line style="stroke:#181818;stroke-width:0.5;stroke-dasharray:5,5;" x1="887.4062" x2="887.4062" y1="124.1358" y2="1234.2403"/></g></g><g class="participant-lifeline" data-entity-uid="part7" data-qualified-name="DB" id="part7-lifeline"><g><title>MongoDB</title><rect fill="#000000" fill-opacity="0.00000" height="1110.1045" width="8" x="1136.8943" y="124.1358"/><line style="stroke:#181818;stroke-width:0.5;stroke-dasharray:5,5;" x1="1140.7844" x2="1140.7844" y1="124.1358" y2="1234.2403"/></g></g><g class="participant participant-head" data-entity-uid="part1" data-qualified-name="U" id="part1-head"><text fill="#000000" font-family="sans-serif" font-size="14" lengthAdjust="spacing" textLength="30.6179" x="20" y="120.0339">User</text><ellipse cx="38.3089" cy="53.5679" fill="#E2E2F0" rx="8" ry="8" style="stroke:#181818;stroke-width:0.5;"/><path d="M38.3089,61.5679 L38.3089,88.5679 M25.3089,69.5679 L51.3089,69.5679 M38.3089,88.5679 L25.3089,103.5679 M38.3089,88.5679 L51.3089,103.5679" fill="none" style="stroke:#181818;stroke-width:0.5;"/></g><g class="participant participant-tail" data-entity-uid="part1" data-qualified-name="U" id="part1-tail"><text fill="#000000" font-family="sans-serif" font-size="14" lengthAdjust="spacing" textLength="30.6179" x="20" y="1248.2063">User</text><ellipse cx="38.3089" cy="1260.8083" fill="#E2E2F0" rx="8" ry="8" style="stroke:#181818;stroke-width:0.5;"/><path d="M38.3089,1268.8083 L38.3089,1295.8083 M25.3089,1276.8083 L51.3089,1276.8083 M38.3089,1295.8083 L25.3089,1310.8083 M38.3089,1295.8083 L51.3089,1310.8083" fill="none" style="stroke:#181818;stroke-width:0.5;"/></g><g class="participant participant-head" data-entity-uid="part2" data-qualified-name="B" id="part2-head"><rect fill="#E2E2F0" height="33.0679" rx="2.5" ry="2.5" style="stroke:#181818;stroke-width:0.5;" width="68.7398" x="167.0912" y="90.0679"/><text fill="#000000" font-family="sans-serif" font-size="14" lengthAdjust="spacing" textLength="54.7398" x="174.0912" y="112.0339">Browser</text></g><g class="participant participant-tail" data-entity-uid="part2" data-qualified-name="B" id="part2-tail"><rect fill="#E2E2F0" height="33.0679" rx="2.5" ry="2.5" style="stroke:#181818;stroke-width:0.5;" width="68.7398" x="167.0912" y="1233.2403"/><text fill="#000000" font-family="sans-serif" font-size="14" lengthAdjust="spacing" textLength="54.7398" x="174.0912" y="1255.2063">Browser</text></g><g class="participant participant-head" data-entity-uid="part3" data-qualified-name="SP" id="part3-head"><rect fill="#E2E2F0" height="33.0679" rx="2.5" ry="2.5" style="stroke:#181818;stroke-width:0.5;" width="103.7397" x="301.4464" y="90.0679"/><text fill="#000000" font-family="sans-serif" font-size="14" lengthAdjust="spacing" textLength="89.7397" x="308.4464" y="112.0339">Settings Page</text></g><g class="participant participant-tail" data-entity-uid="part3" data-qualified-name="SP" id="part3-tail"><rect fill="#E2E2F0" height="33.0679" rx="2.5" ry="2.5" style="stroke:#181818;stroke-width:0.5;" width="103.7397" x="301.4464" y="1233.2403"/><text fill="#000000" font-family="sans-serif" font-size="14" lengthAdjust="spacing" textLength="89.7397" x="308.4464" y="1255.2063">Settings Page</text></g><g class="participant participant-head" data-entity-uid="part4" data-qualified-name="INIT" id="part4-head"><rect fill="#E2E2F0" height="33.0679" rx="2.5" ry="2.5" style="stroke:#181818;stroke-width:0.5;" width="152.5014" x="415.186" y="90.0679"/><text fill="#000000" font-family="sans-serif" font-size="14" lengthAdjust="spacing" textLength="138.5014" x="422.186" y="112.0339">GET /api/auth/github</text></g><g class="participant participant-tail" data-entity-uid="part4" data-qualified-name="INIT" id="part4-tail"><rect fill="#E2E2F0" height="33.0679" rx="2.5" ry="2.5" style="stroke:#181818;stroke-width:0.5;" width="152.5014" x="415.186" y="1233.2403"/><text fill="#000000" font-family="sans-serif" font-size="14" lengthAdjust="spacing" textLength="138.5014" x="422.186" y="1255.2063">GET /api/auth/github</text></g><g class="participant participant-head" data-entity-uid="part5" data-qualified-name="GH" id="part5-head"><rect fill="#E2E2F0" height="52.1358" rx="2.5" ry="2.5" style="stroke:#181818;stroke-width:0.5;" width="106.3716" x="613.6591" y="71"/><text fill="#000000" font-family="sans-serif" font-size="14" lengthAdjust="spacing" textLength="92.3716" x="620.6591" y="92.9659">GitHub OAuth</text><text fill="#000000" font-family="sans-serif" font-size="14" lengthAdjust="spacing" textLength="83.6217" x="625.034" y="112.0339">(github.com)</text></g><g class="participant participant-tail" data-entity-uid="part5" data-qualified-name="GH" id="part5-tail"><rect fill="#E2E2F0" height="52.1358" rx="2.5" ry="2.5" style="stroke:#181818;stroke-width:0.5;" width="106.3716" x="613.6591" y="1233.2403"/><text fill="#000000" font-family="sans-serif" font-size="14" lengthAdjust="spacing" textLength="92.3716" x="620.6591" y="1255.2063">GitHub OAuth</text><text fill="#000000" font-family="sans-serif" font-size="14" lengthAdjust="spacing" textLength="83.6217" x="625.034" y="1274.2742">(github.com)</text></g><g class="participant participant-head" data-entity-uid="part6" data-qualified-name="CB" id="part6-head"><rect fill="#E2E2F0" height="52.1358" rx="2.5" ry="2.5" style="stroke:#181818;stroke-width:0.5;" width="114.8556" x="830.4062" y="71"/><text fill="#000000" font-family="sans-serif" font-size="14" lengthAdjust="spacing" textLength="95.3116" x="840.1782" y="92.9659">GET /api/auth/</text><text fill="#000000" font-family="sans-serif" font-size="14" lengthAdjust="spacing" textLength="100.8556" x="837.4062" y="112.0339">github/callback</text></g><g class="participant participant-tail" data-entity-uid="part6" data-qualified-name="CB" id="part6-tail"><rect fill="#E2E2F0" height="52.1358" rx="2.5" ry="2.5" style="stroke:#181818;stroke-width:0.5;" width="114.8556" x="830.4062" y="1233.2403"/><text fill="#000000" font-family="sans-serif" font-size="14" lengthAdjust="spacing" textLength="95.3116" x="840.1782" y="1255.2063">GET /api/auth/</text><text fill="#000000" font-family="sans-serif" font-size="14" lengthAdjust="spacing" textLength="100.8556" x="837.4062" y="1274.2742">github/callback</text></g><g class="participant participant-head" data-entity-uid="part7" data-qualified-name="DB" id="part7-head"><text fill="#000000" font-family="sans-serif" font-size="14" lengthAdjust="spacing" textLength="66.2197" x="1104.7844" y="120.0339">MongoDB</text><path d="M1122.8943,69.0679 C1122.8943,59.0679 1140.8943,59.0679 1140.8943,59.0679 C1140.8943,59.0679 1158.8943,59.0679 1158.8943,69.0679 L1158.8943,95.0679 C1158.8943,105.0679 1140.8943,105.0679 1140.8943,105.0679 C1140.8943,105.0679 1122.8943,105.0679 1122.8943,95.0679 L1122.8943,69.0679" fill="#E2E2F0" style="stroke:#181818;stroke-width:0.5;"/><path d="M1122.8943,69.0679 C1122.8943,79.0679 1140.8943,79.0679 1140.8943,79.0679 C1140.8943,79.0679 1158.8943,79.0679 1158.8943,69.0679" fill="none" style="stroke:#181818;stroke-width:0.5;"/></g><g class="participant participant-tail" data-entity-uid="part7" data-qualified-name="DB" id="part7-tail"><text fill="#000000" font-family="sans-serif" font-size="14" lengthAdjust="spacing" textLength="66.2197" x="1104.7844" y="1248.2063">MongoDB</text><path d="M1122.8943,1262.3083 C1122.8943,1252.3083 1140.8943,1252.3083 1140.8943,1252.3083 C1140.8943,1252.3083 1158.8943,1252.3083 1158.8943,1262.3083 L1158.8943,1288.3083 C1158.8943,1298.3083 1140.8943,1298.3083 1140.8943,1298.3083 C1140.8943,1298.3083 1122.8943,1298.3083 1122.8943,1288.3083 L1122.8943,1262.3083" fill="#E2E2F0" style="stroke:#181818;stroke-width:0.5;"/><path d="M1122.8943,1262.3083 C1122.8943,1272.3083 1140.8943,1272.3083 1140.8943,1272.3083 C1140.8943,1272.3083 1158.8943,1272.3083 1158.8943,1262.3083" fill="none" style="stroke:#181818;stroke-width:0.5;"/></g><g class="message" data-entity-1="part1" data-entity-2="part3" id="msg1"><polygon fill="#181818" points="341.3162,153.8419,351.3162,157.8419,341.3162,161.8419,345.3162,157.8419" style="stroke:#181818;stroke-width:1;"/><line style="stroke:#181818;stroke-width:1;" x1="38.3089" x2="347.3162" y1="157.8419" y2="157.8419"/><text fill="#000000" font-family="sans-serif" font-size="13" lengthAdjust="spacing" textLength="139.0611" x="45.3089" y="152.0328">Click "Connect GitHub"</text></g><g class="message" data-entity-1="part3" data-entity-2="part2" id="msg2"><polygon fill="#181818" points="212.4611,203.2539,202.4611,207.2539,212.4611,211.2539,208.4611,207.2539" style="stroke:#181818;stroke-width:1;"/><line style="stroke:#181818;stroke-width:1;" x1="206.4611" x2="352.3162" y1="207.2539" y2="207.2539"/><text fill="#000000" font-family="sans-serif" font-size="13" lengthAdjust="spacing" textLength="110.6821" x="218.4611" y="183.7389">window.location =</text><text fill="#000000" font-family="sans-serif" font-size="13" lengthAdjust="spacing" textLength="101.3091" x="218.4611" y="201.4449">/api/auth/github</text></g><g class="message" data-entity-1="part2" data-entity-2="part4" id="msg3"><polygon fill="#181818" points="479.4368,234.9599,489.4368,238.9599,479.4368,242.9599,483.4368,238.9599" style="stroke:#181818;stroke-width:1;"/><line style="stroke:#181818;stroke-width:1;" x1="201.4611" x2="485.4368" y1="238.9599" y2="238.9599"/><text fill="#000000" font-family="sans-serif" font-size="13" lengthAdjust="spacing" textLength="128.6091" x="208.4611" y="233.1509">GET /api/auth/github</text></g><g class="message" data-entity-1="part4" data-entity-2="part4" id="msg4"><line style="stroke:#181818;stroke-width:1;" x1="491.4368" x2="533.4368" y1="270.6659" y2="270.6659"/><line style="stroke:#181818;stroke-width:1;" x1="533.4368" x2="533.4368" y1="270.6659" y2="283.6659"/><line style="stroke:#181818;stroke-width:1;" x1="492.4368" x2="533.4368" y1="283.6659" y2="283.6659"/><polygon fill="#181818" points="502.4368,279.6659,492.4368,283.6659,502.4368,287.6659,498.4368,283.6659" style="stroke:#181818;stroke-width:1;"/><text fill="#000000" font-family="sans-serif" font-size="13" lengthAdjust="spacing" textLength="81.6531" x="498.4368" y="264.8569">requireAuth()</text></g><g class="message" data-entity-1="part4" data-entity-2="part4" id="msg5"><line style="stroke:#181818;stroke-width:1;" x1="491.4368" x2="533.4368" y1="350.784" y2="350.784"/><line style="stroke:#181818;stroke-width:1;" x1="533.4368" x2="533.4368" y1="350.784" y2="363.784"/><line style="stroke:#181818;stroke-width:1;" x1="492.4368" x2="533.4368" y1="363.784" y2="363.784"/><polygon fill="#181818" points="502.4368,359.784,492.4368,363.784,502.4368,367.784,498.4368,363.784" style="stroke:#181818;stroke-width:1;"/><text fill="#000000" font-family="sans-serif" font-size="13" lengthAdjust="spacing" textLength="105.0531" x="498.4368" y="309.5629">Build OAuth URL:</text><text fill="#000000" font-family="sans-serif" font-size="13" lengthAdjust="spacing" textLength="130.6891" x="498.4368" y="327.2689">client_id, redirect_uri,</text><text fill="#000000" font-family="sans-serif" font-size="13" lengthAdjust="spacing" textLength="161.4081" x="498.4368" y="344.975">scope='repo', state=userId</text></g><g class="message" data-entity-1="part4" data-entity-2="part2" id="msg6"><polygon fill="#181818" points="212.4611,409.196,202.4611,413.196,212.4611,417.196,208.4611,413.196" style="stroke:#181818;stroke-width:1;"/><line style="stroke:#181818;stroke-width:1;stroke-dasharray:2,2;" x1="206.4611" x2="490.4368" y1="413.196" y2="413.196"/><text fill="#000000" font-family="sans-serif" font-size="13" lengthAdjust="spacing" textLength="92.0271" x="218.4611" y="389.681">302 Redirect to</text><text fill="#000000" font-family="sans-serif" font-size="13" lengthAdjust="spacing" textLength="208.9622" x="218.4611" y="407.387">github.com/login/oauth/authorize</text></g><g class="message" data-entity-1="part2" data-entity-2="part5" id="msg7"><polygon fill="#181818" points="654.8449,440.902,664.8449,444.902,654.8449,448.902,658.8449,444.902" style="stroke:#181818;stroke-width:1;"/><line style="stroke:#181818;stroke-width:1;" x1="201.4611" x2="660.8449" y1="444.902" y2="444.902"/><text fill="#000000" font-family="sans-serif" font-size="13" lengthAdjust="spacing" textLength="117.0001" x="208.4611" y="439.093">Authorization page</text></g><g class="message" data-entity-1="part5" data-entity-2="part1" id="msg8"><polygon fill="#181818" points="49.3089,490.314,39.3089,494.314,49.3089,498.314,45.3089,494.314" style="stroke:#181818;stroke-width:1;"/><line style="stroke:#181818;stroke-width:1;stroke-dasharray:2,2;" x1="43.3089" x2="665.8449" y1="494.314" y2="494.314"/><text fill="#000000" font-family="sans-serif" font-size="13" lengthAdjust="spacing" textLength="139.2171" x="55.3089" y="470.799">"Authorize PageForge?</text><text fill="#000000" font-family="sans-serif" font-size="13" lengthAdjust="spacing" textLength="154.4921" x="55.3089" y="488.505">Repo access (read/write)"</text></g><path d="M10,509.314 L72.303,509.314 L72.303,519.0201 L62.303,529.0201 L10,529.0201 L10,509.314" fill="#EEEEEE" style="stroke:#000000;stroke-width:1.5;"/><rect fill="none" height="707.9263" style="stroke:#000000;stroke-width:1.5;" width="1177.0042" x="10" y="509.314"/><text fill="#000000" font-family="sans-serif" font-size="13" font-weight="bold" lengthAdjust="spacing" textLength="17.303" x="25" y="524.2111">alt</text><text fill="#000000" font-family="sans-serif" font-size="11" font-weight="bold" lengthAdjust="spacing" textLength="71.5105" x="87.303" y="523.073">[User denies]</text><g class="message" data-entity-1="part5" data-entity-2="part2" id="msg9"><polygon fill="#181818" points="212.4611,566.4321,202.4611,570.4321,212.4611,574.4321,208.4611,570.4321" style="stroke:#181818;stroke-width:1;"/><line style="stroke:#181818;stroke-width:1;stroke-dasharray:2,2;" x1="206.4611" x2="665.8449" y1="570.4321" y2="570.4321"/><text fill="#000000" font-family="sans-serif" font-size="13" lengthAdjust="spacing" textLength="118.4301" x="218.4611" y="546.9171">Redirect to callback</text><text fill="#000000" font-family="sans-serif" font-size="13" lengthAdjust="spacing" textLength="131.7551" x="218.4611" y="564.6231">?error=access_denied</text></g><g class="message" data-entity-1="part2" data-entity-2="part6" id="msg10"><polygon fill="#181818" points="875.834,598.1381,885.834,602.1381,875.834,606.1381,879.834,602.1381" style="stroke:#181818;stroke-width:1;"/><line style="stroke:#181818;stroke-width:1;" x1="201.4611" x2="881.834" y1="602.1381" y2="602.1381"/><text fill="#000000" font-family="sans-serif" font-size="13" lengthAdjust="spacing" textLength="212.6021" x="208.4611" y="596.3291">GET /callback?error=access_denied</text></g><g class="message" data-entity-1="part6" data-entity-2="part2" id="msg11"><polygon fill="#181818" points="212.4611,629.8441,202.4611,633.8441,212.4611,637.8441,208.4611,633.8441" style="stroke:#181818;stroke-width:1;"/><line style="stroke:#181818;stroke-width:1;stroke-dasharray:2,2;" x1="206.4611" x2="886.834" y1="633.8441" y2="633.8441"/><text fill="#000000" font-family="sans-serif" font-size="13" lengthAdjust="spacing" textLength="179.7902" x="218.4611" y="628.0351">302 /settings?github_error=...</text></g><g class="message" data-entity-1="part2" data-entity-2="part1" id="msg12"><polygon fill="#181818" points="49.3089,661.5501,39.3089,665.5501,49.3089,669.5501,45.3089,665.5501" style="stroke:#181818;stroke-width:1;"/><line style="stroke:#181818;stroke-width:1;stroke-dasharray:2,2;" x1="43.3089" x2="200.4611" y1="665.5501" y2="665.5501"/><text fill="#000000" font-family="sans-serif" font-size="13" lengthAdjust="spacing" textLength="139.1521" x="55.3089" y="659.7411">Show error on settings</text></g><line style="stroke:#000000;stroke-width:1;stroke-dasharray:2,2;" x1="10" x2="1187.0042" y1="674.5501" y2="674.5501"/><text fill="#000000" font-family="sans-serif" font-size="11" font-weight="bold" lengthAdjust="spacing" textLength="93.7193" x="15" y="686.3091">[User authorizes]</text><g class="message" data-entity-1="part5" data-entity-2="part2" id="msg13"><polygon fill="#181818" points="212.4611,727.9441,202.4611,731.9441,212.4611,735.9441,208.4611,731.9441" style="stroke:#181818;stroke-width:1;"/><line style="stroke:#181818;stroke-width:1;stroke-dasharray:2,2;" x1="206.4611" x2="665.8449" y1="731.9441" y2="731.9441"/><text fill="#000000" font-family="sans-serif" font-size="13" lengthAdjust="spacing" textLength="118.4301" x="218.4611" y="708.429">Redirect to callback</text><text fill="#000000" font-family="sans-serif" font-size="13" lengthAdjust="spacing" textLength="151.9181" x="218.4611" y="726.1351">?code=XXX&amp;state=userId</text></g><g class="message" data-entity-1="part2" data-entity-2="part6" id="msg14"><polygon fill="#181818" points="875.834,759.6501,885.834,763.6501,875.834,767.6501,879.834,763.6501" style="stroke:#181818;stroke-width:1;"/><line style="stroke:#181818;stroke-width:1;" x1="201.4611" x2="881.834" y1="763.6501" y2="763.6501"/><text fill="#000000" font-family="sans-serif" font-size="13" lengthAdjust="spacing" textLength="232.7652" x="208.4611" y="757.8411">GET /callback?code=XXX&amp;state=userId</text></g><g class="message" data-entity-1="part6" data-entity-2="part6" id="msg15"><line style="stroke:#181818;stroke-width:1;" x1="887.834" x2="929.834" y1="795.3561" y2="795.3561"/><line style="stroke:#181818;stroke-width:1;" x1="929.834" x2="929.834" y1="795.3561" y2="808.3561"/><line style="stroke:#181818;stroke-width:1;" x1="888.834" x2="929.834" y1="808.3561" y2="808.3561"/><polygon fill="#181818" points="898.834,804.3561,888.834,808.3561,898.834,812.3561,894.834,808.3561" style="stroke:#181818;stroke-width:1;"/><text fill="#000000" font-family="sans-serif" font-size="13" lengthAdjust="spacing" textLength="81.6531" x="894.834" y="789.5471">requireAuth()</text></g><g class="message" data-entity-1="part6" data-entity-2="part6" id="msg16"><line style="stroke:#181818;stroke-width:1;" x1="887.834" x2="929.834" y1="840.0621" y2="840.0621"/><line style="stroke:#181818;stroke-width:1;" x1="929.834" x2="929.834" y1="840.0621" y2="853.0621"/><line style="stroke:#181818;stroke-width:1;" x1="888.834" x2="929.834" y1="853.0621" y2="853.0621"/><polygon fill="#181818" points="898.834,849.0621,888.834,853.0621,898.834,857.0621,894.834,853.0621" style="stroke:#181818;stroke-width:1;"/><text fill="#000000" font-family="sans-serif" font-size="13" lengthAdjust="spacing" textLength="129.5711" x="894.834" y="834.2531">Verify state == userId</text></g><g class="message" data-entity-1="part6" data-entity-2="part5" id="msg17"><polygon fill="#181818" points="677.8449,898.4742,667.8449,902.4742,677.8449,906.4742,673.8449,902.4742" style="stroke:#181818;stroke-width:1;"/><line style="stroke:#181818;stroke-width:1;" x1="671.8449" x2="886.834" y1="902.4742" y2="902.4742"/><text fill="#000000" font-family="sans-serif" font-size="13" lengthAdjust="spacing" textLength="196.9892" x="683.8449" y="878.9591">POST /login/oauth/access_token</text><text fill="#000000" font-family="sans-serif" font-size="13" lengthAdjust="spacing" textLength="179.1402" x="683.8449" y="896.6651">{client_id, client_secret, code}</text></g><g class="message" data-entity-1="part5" data-entity-2="part6" id="msg18"><polygon fill="#181818" points="875.834,930.1802,885.834,934.1802,875.834,938.1802,879.834,934.1802" style="stroke:#181818;stroke-width:1;"/><line style="stroke:#181818;stroke-width:1;stroke-dasharray:2,2;" x1="666.8449" x2="881.834" y1="934.1802" y2="934.1802"/><text fill="#000000" font-family="sans-serif" font-size="13" lengthAdjust="spacing" textLength="147.6671" x="673.8449" y="928.3712">{access_token: "gho_..."}</text></g><g class="message" data-entity-1="part6" data-entity-2="part5" id="msg19"><polygon fill="#181818" points="677.8449,979.5922,667.8449,983.5922,677.8449,987.5922,673.8449,983.5922" style="stroke:#181818;stroke-width:1;"/><line style="stroke:#181818;stroke-width:1;" x1="671.8449" x2="886.834" y1="983.5922" y2="983.5922"/><text fill="#000000" font-family="sans-serif" font-size="13" lengthAdjust="spacing" textLength="59.0981" x="683.8449" y="960.0772">GET /user</text><text fill="#000000" font-family="sans-serif" font-size="13" lengthAdjust="spacing" textLength="177.0602" x="683.8449" y="977.7832">(Authorization: Bearer token)</text></g><g class="message" data-entity-1="part5" data-entity-2="part6" id="msg20"><polygon fill="#181818" points="875.834,1011.2982,885.834,1015.2982,875.834,1019.2982,879.834,1015.2982" style="stroke:#181818;stroke-width:1;"/><line style="stroke:#181818;stroke-width:1;stroke-dasharray:2,2;" x1="666.8449" x2="881.834" y1="1015.2982" y2="1015.2982"/><text fill="#000000" font-family="sans-serif" font-size="13" lengthAdjust="spacing" textLength="181.9872" x="673.8449" y="1009.4892">{id: 12345, login: "username"}</text></g><g class="message" data-entity-1="part6" data-entity-2="part7" id="msg21"><polygon fill="#181818" points="1128.8943,1078.4163,1138.8943,1082.4163,1128.8943,1086.4163,1132.8943,1082.4163" style="stroke:#181818;stroke-width:1;"/><line style="stroke:#181818;stroke-width:1;" x1="887.834" x2="1134.8943" y1="1082.4163" y2="1082.4163"/><text fill="#000000" font-family="sans-serif" font-size="13" lengthAdjust="spacing" textLength="80.1061" x="894.834" y="1041.1952">Update User:</text><text fill="#000000" font-family="sans-serif" font-size="13" lengthAdjust="spacing" textLength="180.9342" x="894.834" y="1058.9012">githubAccessToken, githubId,</text><text fill="#000000" font-family="sans-serif" font-size="13" lengthAdjust="spacing" textLength="229.0602" x="894.834" y="1076.6073">githubUsername, githubConnectedAt</text></g><g class="message" data-entity-1="part7" data-entity-2="part6" id="msg22"><polygon fill="#181818" points="898.834,1110.1223,888.834,1114.1223,898.834,1118.1223,894.834,1114.1223" style="stroke:#181818;stroke-width:1;"/><line style="stroke:#181818;stroke-width:1;stroke-dasharray:2,2;" x1="892.834" x2="1139.8943" y1="1114.1223" y2="1114.1223"/><text fill="#000000" font-family="sans-serif" font-size="13" lengthAdjust="spacing" textLength="52.806" x="904.834" y="1108.3133">Updated</text></g><g class="message" data-entity-1="part6" data-entity-2="part2" id="msg23"><polygon fill="#181818" points="212.4611,1141.8283,202.4611,1145.8283,212.4611,1149.8283,208.4611,1145.8283" style="stroke:#181818;stroke-width:1;"/><line style="stroke:#181818;stroke-width:1;stroke-dasharray:2,2;" x1="206.4611" x2="886.834" y1="1145.8283" y2="1145.8283"/><text fill="#000000" font-family="sans-serif" font-size="13" lengthAdjust="spacing" textLength="227.2272" x="218.4611" y="1140.0193">302 /settings?github_connected=true</text></g><g class="message" data-entity-1="part2" data-entity-2="part3" id="msg24"><polygon fill="#181818" points="341.3162,1173.5343,351.3162,1177.5343,341.3162,1181.5343,345.3162,1177.5343" style="stroke:#181818;stroke-width:1;"/><line style="stroke:#181818;stroke-width:1;" x1="201.4611" x2="347.3162" y1="1177.5343" y2="1177.5343"/><text fill="#000000" font-family="sans-serif" font-size="13" lengthAdjust="spacing" textLength="127.8551" x="208.4611" y="1171.7253">Reload settings page</text></g><g class="message" data-entity-1="part3" data-entity-2="part1" id="msg25"><polygon fill="#181818" points="49.3089,1205.2403,39.3089,1209.2403,49.3089,1213.2403,45.3089,1209.2403" style="stroke:#181818;stroke-width:1;"/><line style="stroke:#181818;stroke-width:1;stroke-dasharray:2,2;" x1="43.3089" x2="352.3162" y1="1209.2403" y2="1209.2403"/><text fill="#000000" font-family="sans-serif" font-size="13" lengthAdjust="spacing" textLength="206.7262" x="55.3089" y="1203.4313">Show "Connected as @username"</text></g><?plantuml-src ZLHTRzem57tFhxZAmmeI9LsxxI5IrX7O06bR4JHJ7o8XOzy5gwdD74Teg_hVPpiVJT1QxGM5t7EFxpdtn9hh7663lqeK5676IQR8GmXphXVb3cucfTx3L0g1L7CfO91Cpoy-33sFK2qL-4c1oWTIGE8TYDASyWCH6lnOoMDJYlkb3MhDHLR0YcJe09jL7p7_V0i1EV20cDE3ZEjzkNF0vVVbxGcqCsSg1XLsJEN3q3NC5wynfwB21vJa-OxGUzSpZJr6DDcH0i7_9aKcPx4hp6BFI-3yevatX6dEwJtujJMrNxwtMLb07CAH2oQFurnIueoBKd4goVDY2xQYZE7_qEpPqZD4cIrnXLRgO7XIYqkUitfToVfhc0gQSnHwozd8D3BJH_MsL7oKYeBA0qPd2W_oR0I59XgZqYnhoMhIIi7LnIMiwqxGiZ7BcXlaCkCYa6vM-oCL_uErdlaYX4dzhj9-C8lsvWj7d8JWDrLq4VWYLORNgLYRUO1GYaK10uM41KV5DGvz4xPSWqqQC1GS2m-WPZDZTaQ4Pe-fk4Qbf8egkgrhOwRD3JYDQxiR-0lWQTor8YZgt5vNFcohfl5uNF5MsZPxUGHN0IEyQV4mDs5o2bgt_ai5bGoZkxkxDxqjlQZZ9VYqnVSprAtyGCL__gxY0544TNEBiMjTtMpCSRtbLvvfUOyY5O-TqDMF1LA5slmrepqzIxOdFdQRJIoolTmQE_sd_g5Eeft6VD-zN9dK8r76KqSmF27dB8ItbrVlte_03MmEi2I2F63tX9d19WTcHTlzX4tC9swsMyiyWkhLaesQQb8pDQNw6a0sqOPv5hTZLDIjZQ_4YJOKaLObDZksLyqQSqbO6wRgSmAmLqqdT7uxWxshFhLQFHJC-mi0?></g></svg>