<?plantuml 1.2026.1?><svg xmlns="http://www.w3.org/2000/svg" xmlns:xlink="http://www.w3.org/1999/xlink" contentStyleType="text/css" data-diagram-type="SEQUENCE" height="944px" preserveAspectRatio="none" style="width:790px;height:944px;background:#FFFFFF;" version="1.1" viewBox="0 0 790 944" width="790px" zoomAndPan="magnify"><title>Sequence Diagram: User Registration (UC-01)</title><defs/><g><text fill="#000000" font-family="sans-serif" font-size="14" font-weight="bold" lengthAdjust="spacing" textLength="313.7388" x="239.4663" y="29.9659">Sequence Diagram: User Registration (UC-01)</text><rect fill="none" height="450.5721" style="stroke:#000000;stroke-width:1.5;" width="773.6713" x="10" y="393.784"/><g class="participant-lifeline" data-entity-uid="part1" data-qualified-name="U" id="part1-lifeline"><g><title>User</title><rect fill="#000000" fill-opacity="0.00000" height="737.2203" width="8" x="34.3089" y="124.1358"/><line style="stroke:#181818;stroke-width:0.5;stroke-dasharray:5,5;" x1="38" x2="38" y1="124.1358" y2="861.3561"/></g></g><g class="participant-lifeline" data-entity-uid="part2" data-qualified-name="B" id="part2-lifeline"><g><title>Browser</title><rect fill="#000000" fill-opacity="0.00000" height="737.2203" width="8" x="184.578" y="124.1358"/><line style="stroke:#181818;stroke-width:0.5;stroke-dasharray:5,5;" x1="188.2081" x2="188.2081" y1="124.1358" y2="861.3561"/></g></g><g class="participant-lifeline" data-entity-uid="part3" data-qualified-name="RP" id="part3-lifeline"><g><title>Register Page</title><rect fill="#000000" fill-opacity="0.00000" height="737.2203" width="8" x="360.9252" y="124.1358"/><line style="stroke:#181818;stroke-width:0.5;stroke-dasharray:5,5;" x1="364.5583" x2="364.5583" y1="124.1358" y2="861.3561"/></g></g><g class="participant-lifeline" data-entity-uid="part4" data-qualified-name="API" id="part4-lifeline"><g><title>POST .api.auth.register</title><rect fill="#000000" fill-opacity="0.00000" height="737.2203" width="8" x="571.7873" y="124.1358"/><line style="stroke:#181818;stroke-width:0.5;stroke-dasharray:5,5;" x1="574.9056" x2="574.9056" y1="124.1358" y2="861.3561"/></g></g><g class="participant-lifeline" data-entity-uid="part5" data-qualified-name="DB" id="part5-lifeline"><g><title>MongoDB</title><rect fill="#000000" fill-opacity="0.00000" height="737.2203" width="8" x="733.5614" y="124.1358"/><line style="stroke:#181818;stroke-width:0.5;stroke-dasharray:5,5;" x1="737.4516" x2="737.4516" y1="124.1358" y2="861.3561"/></g></g><g class="participant participant-head" data-entity-uid="part1" data-qualified-name="U" id="part1-head"><text fill="#000000" font-family="sans-serif" font-size="14" lengthAdjust="spacing" textLength="30.6179" x="20" y="120.0339">User</text><ellipse cx="38.3089" cy="53.5679" fill="#E2E2F0" rx="8" ry="8" style="stroke:#181818;stroke-width:0.5;"/><path d="M38.3089,61.5679 L38.3089,88.5679 M25.3089,69.5679 L51.3089,69.5679 M38.3089,88.5679 L25.3089,103.5679 M38.3089,88.5679 L51.3089,103.5679" fill="none" style="stroke:#181818;stroke-width:0.5;"/></g><g class="participant participant-tail" data-entity-uid="part1" data-qualified-name="U" id="part1-tail"><text fill="#000000" font-family="sans-serif" font-size="14" lengthAdjust="spacing" textLength="30.6179" x="20" y="875.322">User</text><ellipse cx="38.3089" cy="887.924" fill="#E2E2F0" rx="8" ry="8" style="stroke:#181818;stroke-width:0.5;"/><path d="M38.3089,895.924 L38.3089,922.924 M25.3089,903.924 L51.3089,903.924 M38.3089,922.924 L25.3089,937.924 M38.3089,922.924 L51.3089,937.924" fill="none" style="stroke:#181818;stroke-width:0.5;"/></g><g class="participant participant-head" data-entity-uid="part2" data-qualified-name="B" id="part2-head"><rect fill="#E2E2F0" height="33.0679" rx="2.5" ry="2.5" style="stroke:#181818;stroke-width:0.5;" width="68.7398" x="154.2081" y="90.0679"/><text fill="#000000" font-family="sans-serif" font-size="14" lengthAdjust="spacing" textLength="54.7398" x="161.2081" y="112.0339">Browser</text></g><g class="participant participant-tail" data-entity-uid="part2" data-qualified-name="B" id="part2-tail"><rect fill="#E2E2F0" height="33.0679" rx="2.5" ry="2.5" style="stroke:#181818;stroke-width:0.5;" width="68.7398" x="154.2081" y="860.3561"/><text fill="#000000" font-family="sans-serif" font-size="14" lengthAdjust="spacing" textLength="54.7398" x="161.2081" y="882.322">Browser</text></g><g class="participant participant-head" data-entity-uid="part3" data-qualified-name="RP" id="part3-head"><rect fill="#E2E2F0" height="33.0679" rx="2.5" ry="2.5" style="stroke:#181818;stroke-width:0.5;" width="104.7337" x="312.5583" y="90.0679"/><text fill="#000000" font-family="sans-serif" font-size="14" lengthAdjust="spacing" textLength="90.7337" x="319.5583" y="112.0339">Register Page</text></g><g class="participant participant-tail" data-entity-uid="part3" data-qualified-name="RP" id="part3-tail"><rect fill="#E2E2F0" height="33.0679" rx="2.5" ry="2.5" style="stroke:#181818;stroke-width:0.5;" width="104.7337" x="312.5583" y="860.3561"/><text fill="#000000" font-family="sans-serif" font-size="14" lengthAdjust="spacing" textLength="90.7337" x="319.5583" y="882.322">Register Page</text></g><g class="participant participant-head" data-entity-uid="part4" data-qualified-name="API" id="part4-head"><rect fill="#E2E2F0" height="33.0679" rx="2.5" ry="2.5" style="stroke:#181818;stroke-width:0.5;" width="169.7634" x="490.9056" y="90.0679"/><text fill="#000000" font-family="sans-serif" font-size="14" lengthAdjust="spacing" textLength="155.7634" x="497.9056" y="112.0339">POST /api/auth/register</text></g><g class="participant participant-tail" data-entity-uid="part4" data-qualified-name="API" id="part4-tail"><rect fill="#E2E2F0" height="33.0679" rx="2.5" ry="2.5" style="stroke:#181818;stroke-width:0.5;" width="169.7634" x="490.9056" y="860.3561"/><text fill="#000000" font-family="sans-serif" font-size="14" lengthAdjust="spacing" textLength="155.7634" x="497.9056" y="882.322">POST /api/auth/register</text></g><g class="participant participant-head" data-entity-uid="part5" data-qualified-name="DB" id="part5-head"><text fill="#000000" font-family="sans-serif" font-size="14" lengthAdjust="spacing" textLength="66.2197" x="701.4516" y="120.0339">MongoDB</text><path d="M719.5614,69.0679 C719.5614,59.0679 737.5614,59.0679 737.5614,59.0679 C737.5614,59.0679 755.5614,59.0679 755.5614,69.0679 L755.5614,95.0679 C755.5614,105.0679 737.5614,105.0679 737.5614,105.0679 C737.5614,105.0679 719.5614,105.0679 719.5614,95.0679 L719.5614,69.0679" fill="#E2E2F0" style="stroke:#181818;stroke-width:0.5;"/><path d="M719.5614,69.0679 C719.5614,79.0679 737.5614,79.0679 737.5614,79.0679 C737.5614,79.0679 755.5614,79.0679 755.5614,69.0679" fill="none" style="stroke:#181818;stroke-width:0.5;"/></g><g class="participant participant-tail" data-entity-uid="part5" data-qualified-name="DB" id="part5-tail"><text fill="#000000" font-family="sans-serif" font-size="14" lengthAdjust="spacing" textLength="66.2197" x="701.4516" y="875.322">MongoDB</text><path d="M719.5614,889.424 C719.5614,879.424 737.5614,879.424 737.5614,879.424 C737.5614,879.424 755.5614,879.424 755.5614,889.424 L755.5614,915.424 C755.5614,925.424 737.5614,925.424 737.5614,925.424 C737.5614,925.424 719.5614,925.424 719.5614,915.424 L719.5614,889.424" fill="#E2E2F0" style="stroke:#181818;stroke-width:0.5;"/><path d="M719.5614,889.424 C719.5614,899.424 737.5614,899.424 737.5614,899.424 C737.5614,899.424 755.5614,899.424 755.5614,889.424" fill="none" style="stroke:#181818;stroke-width:0.5;"/></g><g class="message" data-entity-1="part1" data-entity-2="part2" id="msg1"><polygon fill="#181818" points="176.578,153.8419,186.578,157.8419,176.578,161.8419,180.578,157.8419" style="stroke:#181818;stroke-width:1;"/><line style="stroke:#181818;stroke-width:1;" x1="38.3089" x2="182.578" y1="157.8419" y2="157.8419"/><text fill="#000000" font-family="sans-serif" font-size="13" lengthAdjust="spacing" textLength="126.2691" x="45.3089" y="152.0328">Navigate to /register</text></g><g class="message" data-entity-1="part2" data-entity-2="part3" id="msg2"><polygon fill="#181818" points="352.9252,185.5479,362.9252,189.5479,352.9252,193.5479,356.9252,189.5479" style="stroke:#181818;stroke-width:1;"/><line style="stroke:#181818;stroke-width:1;" x1="188.578" x2="358.9252" y1="189.5479" y2="189.5479"/><text fill="#000000" font-family="sans-serif" font-size="13" lengthAdjust="spacing" textLength="152.3471" x="195.578" y="183.7389">Render registration form</text></g><g class="message" data-entity-1="part3" data-entity-2="part1" id="msg3"><polygon fill="#181818" points="49.3089,217.2539,39.3089,221.2539,49.3089,225.2539,45.3089,221.2539" style="stroke:#181818;stroke-width:1;"/><line style="stroke:#181818;stroke-width:1;stroke-dasharray:2,2;" x1="43.3089" x2="363.9252" y1="221.2539" y2="221.2539"/><text fill="#000000" font-family="sans-serif" font-size="13" lengthAdjust="spacing" textLength="229.9832" x="55.3089" y="215.4449">Display form (name, email, password)</text></g><g class="message" data-entity-1="part1" data-entity-2="part3" id="msg4"><polygon fill="#181818" points="352.9252,248.9599,362.9252,252.9599,352.9252,256.9599,356.9252,252.9599" style="stroke:#181818;stroke-width:1;"/><line style="stroke:#181818;stroke-width:1;" x1="38.3089" x2="358.9252" y1="252.9599" y2="252.9599"/><text fill="#000000" font-family="sans-serif" font-size="13" lengthAdjust="spacing" textLength="151.5672" x="45.3089" y="247.1509">Submit registration form</text></g><g class="message" data-entity-1="part3" data-entity-2="part4" id="msg5"><polygon fill="#181818" points="563.7873,280.6659,573.7873,284.6659,563.7873,288.6659,567.7873,284.6659" style="stroke:#181818;stroke-width:1;"/><line style="stroke:#181818;stroke-width:1;" x1="364.9252" x2="569.7873" y1="284.6659" y2="284.6659"/><text fill="#000000" font-family="sans-serif" font-size="13" lengthAdjust="spacing" textLength="186.8622" x="371.9252" y="278.8569">POST {name, email, password}</text></g><g class="message" data-entity-1="part4" data-entity-2="part4" id="msg6"><line style="stroke:#181818;stroke-width:1;" x1="575.7873" x2="617.7873" y1="316.3719" y2="316.3719"/><line style="stroke:#181818;stroke-width:1;" x1="617.7873" x2="617.7873" y1="316.3719" y2="329.3719"/><line style="stroke:#181818;stroke-width:1;" x1="576.7873" x2="617.7873" y1="329.3719" y2="329.3719"/><polygon fill="#181818" points="586.7873,325.3719,576.7873,329.3719,586.7873,333.3719,582.7873,329.3719" style="stroke:#181818;stroke-width:1;"/><text fill="#000000" font-family="sans-serif" font-size="13" lengthAdjust="spacing" textLength="120.7181" x="582.7873" y="310.5629">Validate input fields</text></g><g class="message" data-entity-1="part4" data-entity-2="part5" id="msg7"><polygon fill="#181818" points="725.5614,374.784,735.5614,378.784,725.5614,382.784,729.5614,378.784" style="stroke:#181818;stroke-width:1;"/><line style="stroke:#181818;stroke-width:1;" x1="575.7873" x2="731.5614" y1="378.784" y2="378.784"/><text fill="#000000" font-family="sans-serif" font-size="13" lengthAdjust="spacing" textLength="122.9281" x="582.7873" y="355.2689">Check if email exists</text><text fill="#000000" font-family="sans-serif" font-size="13" lengthAdjust="spacing" textLength="127.4261" x="582.7873" y="372.975">(UserModel.findOne)</text></g><path d="M10,393.784 L72.303,393.784 L72.303,403.49 L62.303,413.49 L10,413.49 L10,393.784" fill="#EEEEEE" style="stroke:#000000;stroke-width:1.5;"/><rect fill="none" height="450.5721" style="stroke:#000000;stroke-width:1.5;" width="773.6713" x="10" y="393.784"/><text fill="#000000" font-family="sans-serif" font-size="13" font-weight="bold" lengthAdjust="spacing" textLength="17.303" x="25" y="408.681">alt</text><text fill="#000000" font-family="sans-serif" font-size="11" font-weight="bold" lengthAdjust="spacing" textLength="116.2471" x="87.303" y="407.5429">[Email already exists]</text><g class="message" data-entity-1="part5" data-entity-2="part4" id="msg8"><polygon fill="#181818" points="586.7873,433.196,576.7873,437.196,586.7873,441.196,582.7873,437.196" style="stroke:#181818;stroke-width:1;"/><line style="stroke:#181818;stroke-width:1;stroke-dasharray:2,2;" x1="580.7873" x2="736.5614" y1="437.196" y2="437.196"/><text fill="#000000" font-family="sans-serif" font-size="13" lengthAdjust="spacing" textLength="68.2111" x="592.7873" y="431.387">User found</text></g><g class="message" data-entity-1="part4" data-entity-2="part3" id="msg9"><polygon fill="#181818" points="375.9252,482.608,365.9252,486.608,375.9252,490.608,371.9252,486.608" style="stroke:#181818;stroke-width:1;"/><line style="stroke:#181818;stroke-width:1;stroke-dasharray:2,2;" x1="369.9252" x2="574.7873" y1="486.608" y2="486.608"/><text fill="#000000" font-family="sans-serif" font-size="13" lengthAdjust="spacing" textLength="71.9161" x="381.9252" y="463.093">409 Conflict</text><text fill="#000000" font-family="sans-serif" font-size="13" lengthAdjust="spacing" textLength="159.0161" x="381.9252" y="480.799">"Email already registered"</text></g><g class="message" data-entity-1="part3" data-entity-2="part1" id="msg10"><polygon fill="#181818" points="49.3089,514.314,39.3089,518.314,49.3089,522.314,45.3089,518.314" style="stroke:#181818;stroke-width:1;"/><line style="stroke:#181818;stroke-width:1;stroke-dasharray:2,2;" x1="43.3089" x2="363.9252" y1="518.314" y2="518.314"/><text fill="#000000" font-family="sans-serif" font-size="13" lengthAdjust="spacing" textLength="125.8791" x="55.3089" y="512.505">Show error message</text></g><line style="stroke:#000000;stroke-width:1;stroke-dasharray:2,2;" x1="10" x2="783.6713" y1="527.314" y2="527.314"/><text fill="#000000" font-family="sans-serif" font-size="11" font-weight="bold" lengthAdjust="spacing" textLength="89.5943" x="15" y="539.073">[Email available]</text><g class="message" data-entity-1="part5" data-entity-2="part4" id="msg11"><polygon fill="#181818" points="586.7873,563.002,576.7873,567.002,586.7873,571.002,582.7873,567.002" style="stroke:#181818;stroke-width:1;"/><line style="stroke:#181818;stroke-width:1;stroke-dasharray:2,2;" x1="580.7873" x2="736.5614" y1="567.002" y2="567.002"/><text fill="#000000" font-family="sans-serif" font-size="13" lengthAdjust="spacing" textLength="94.3281" x="592.7873" y="561.1929">null (not found)</text></g><g class="message" data-entity-1="part4" data-entity-2="part4" id="msg12"><line style="stroke:#181818;stroke-width:1;" x1="575.7873" x2="617.7873" y1="616.414" y2="616.414"/><line style="stroke:#181818;stroke-width:1;" x1="617.7873" x2="617.7873" y1="616.414" y2="629.414"/><line style="stroke:#181818;stroke-width:1;" x1="576.7873" x2="617.7873" y1="629.414" y2="629.414"/><polygon fill="#181818" points="586.7873,625.414,576.7873,629.414,586.7873,633.414,582.7873,629.414" style="stroke:#181818;stroke-width:1;"/><text fill="#000000" font-family="sans-serif" font-size="13" lengthAdjust="spacing" textLength="93.7561" x="582.7873" y="592.899">Hash password</text><text fill="#000000" font-family="sans-serif" font-size="13" lengthAdjust="spacing" textLength="115.3621" x="582.7873" y="610.605">(bcrypt, 12 rounds)</text></g><g class="message" data-entity-1="part4" data-entity-2="part5" id="msg13"><polygon fill="#181818" points="725.5614,674.826,735.5614,678.826,725.5614,682.826,729.5614,678.826" style="stroke:#181818;stroke-width:1;"/><line style="stroke:#181818;stroke-width:1;" x1="575.7873" x2="731.5614" y1="678.826" y2="678.826"/><text fill="#000000" font-family="sans-serif" font-size="13" lengthAdjust="spacing" textLength="137.7741" x="582.7873" y="655.311">Create User document</text><text fill="#000000" font-family="sans-serif" font-size="13" lengthAdjust="spacing" textLength="116.3111" x="582.7873" y="673.017">(UserModel.create)</text></g><g class="message" data-entity-1="part5" data-entity-2="part4" id="msg14"><polygon fill="#181818" points="586.7873,706.532,576.7873,710.532,586.7873,714.532,582.7873,710.532" style="stroke:#181818;stroke-width:1;"/><line style="stroke:#181818;stroke-width:1;stroke-dasharray:2,2;" x1="580.7873" x2="736.5614" y1="710.532" y2="710.532"/><text fill="#000000" font-family="sans-serif" font-size="13" lengthAdjust="spacing" textLength="108.8751" x="592.7873" y="704.723">New User created</text></g><g class="message" data-entity-1="part4" data-entity-2="part3" id="msg15"><polygon fill="#181818" points="375.9252,755.9441,365.9252,759.9441,375.9252,763.9441,371.9252,759.9441" style="stroke:#181818;stroke-width:1;"/><line style="stroke:#181818;stroke-width:1;stroke-dasharray:2,2;" x1="369.9252" x2="574.7873" y1="759.9441" y2="759.9441"/><text fill="#000000" font-family="sans-serif" font-size="13" lengthAdjust="spacing" textLength="73.918" x="381.9252" y="736.429">201 Created</text><text fill="#000000" font-family="sans-serif" font-size="13" lengthAdjust="spacing" textLength="103.2591" x="381.9252" y="754.1351">{id, name, email}</text></g><g class="message" data-entity-1="part3" data-entity-2="part3" id="msg16"><line style="stroke:#181818;stroke-width:1;" x1="364.9252" x2="406.9252" y1="791.6501" y2="791.6501"/><line style="stroke:#181818;stroke-width:1;" x1="406.9252" x2="406.9252" y1="791.6501" y2="804.6501"/><line style="stroke:#181818;stroke-width:1;" x1="365.9252" x2="406.9252" y1="804.6501" y2="804.6501"/><polygon fill="#181818" points="375.9252,800.6501,365.9252,804.6501,375.9252,808.6501,371.9252,804.6501" style="stroke:#181818;stroke-width:1;"/><text fill="#000000" font-family="sans-serif" font-size="13" lengthAdjust="spacing" textLength="105.1571" x="371.9252" y="785.8411">Redirect to /login</text></g><g class="message" data-entity-1="part3" data-entity-2="part1" id="msg17"><polygon fill="#181818" points="49.3089,832.3561,39.3089,836.3561,49.3089,840.3561,45.3089,836.3561" style="stroke:#181818;stroke-width:1;"/><line style="stroke:#181818;stroke-width:1;stroke-dasharray:2,2;" x1="43.3089" x2="363.9252" y1="836.3561" y2="836.3561"/><text fill="#000000" font-family="sans-serif" font-size="13" lengthAdjust="spacing" textLength="101.2311" x="55.3089" y="830.5471">Show login page</text></g><?plantuml-src TLB1Zjem4BtxAqOvWGG5LhqqXvKQgDGUTZU2Pazx6U99iEhOgUqiHQlzzqvCe43RImvvRzwyzyP11KsmePyTcP9WfR1ssAHGU7Amfbhvu30eQs1KBAVpnLW8B8DraFIC1D138LfqGPMgHHCWoPpTdw3i6ZhgiN2EDKN2Ehzcv4-Rxp33Lism2xkP6mOYztF-JKWCk4LFa3nOKzjL5f5L9aG1qtl8KdZ4LrLZ80WMplCYwz5rdd8a8zc0kqnMMTU8TGvJvXGfT-1RZOVu6qO66ve0DQZq15hqVc-T70_xUiLDjsrK-8_YVUywXHZhxPzIxu8PP-8pQYLxzygqNO1AaPR-n5XnlEMEoX-WggCCq2zUwb_CgB_6WvMaFrJAo2T3_Q5qW2-HXjeHoiD05y1ICMtS6KzTsSv81kAg8Td7-ITOMbDfLOONarnBdQebcV3Od_OsExi7SewVI4FUyw45QJxOCFtANzngkl5WEgsvQnkEHiOd9mFy5Vtkt1YdtPRkq8O9BEx0zNn_CH1ROezSOamcRTarPC9LIMKaZ6zSFDB-E7E4R_kucoy6PVRmfkG4BYxwFhHmUcPIEIf3V8NQrihyNLBypQdwXhZxtm00?></g></svg>