<?plantuml 1.2026.1?><svg xmlns="http://www.w3.org/2000/svg" xmlns:xlink="http://www.w3.org/1999/xlink" contentStyleType="text/css" data-diagram-type="SEQUENCE" height="1664px" preserveAspectRatio="none" style="width:1296px;height:1664px;background:#FFFFFF;" version="1.1" viewBox="0 0 1296 1664" width="1296px" zoomAndPan="magnify"><title>Sequence Diagram: Custom Domain Management (UC-07)</title><defs/><g><text fill="#000000" font-family="sans-serif" font-size="14" font-weight="bold" lengthAdjust="spacing" textLength="400.0905" x="444.368" y="29.9659">Sequence Diagram: Custom Domain Management (UC-07)</text><rect fill="none" height="406.8661" style="stroke:#000000;stroke-width:1.5;" width="1269.8265" x="10" y="858.0802"/><g class="participant-lifeline" data-entity-uid="part1" data-qualified-name="U" id="part1-lifeline"><g><title>User</title><rect fill="#000000" fill-opacity="0.00000" height="1457.1647" width="8" x="34.3089" y="124.1358"/><line style="stroke:#181818;stroke-width:0.5;stroke-dasharray:5,5;" x1="38" x2="38" y1="124.1358" y2="1581.3005"/></g></g><g class="participant-lifeline" data-entity-uid="part2" data-qualified-name="B" id="part2-lifeline"><g><title>Browser</title><rect fill="#000000" fill-opacity="0.00000" height="1457.1647" width="8" x="96.9878" y="124.1358"/><line style="stroke:#181818;stroke-width:0.5;stroke-dasharray:5,5;" x1="100.6179" x2="100.6179" y1="124.1358" y2="1581.3005"/></g></g><g class="participant-lifeline" data-entity-uid="part3" data-qualified-name="DT" id="part3-lifeline"><g><title>Domains Tab</title><rect fill="#000000" fill-opacity="0.00000" height="1457.1647" width="8" x="222.4991" y="124.1358"/><line style="stroke:#181818;stroke-width:0.5;stroke-dasharray:5,5;" x1="226.2533" x2="226.2533" y1="124.1358" y2="1581.3005"/></g></g><g class="participant-lifeline" data-entity-uid="part4" data-qualified-name="ADD" id="part4-lifeline"><g><title>POST .api.projects.</title><rect fill="#000000" fill-opacity="0.00000" height="1457.1647" width="8" x="465.1593" y="124.1358"/><line style="stroke:#181818;stroke-width:0.5;stroke-dasharray:5,5;" x1="468.6275" x2="468.6275" y1="124.1358" y2="1581.3005"/></g></g><g class="participant-lifeline" data-entity-uid="part5" data-qualified-name="VERIFY" id="part5-lifeline"><g><title>POST .api.projects.</title><rect fill="#000000" fill-opacity="0.00000" height="1457.1647" width="8" x="662.3555" y="124.1358"/><line style="stroke:#181818;stroke-width:0.5;stroke-dasharray:5,5;" x1="666.0768" x2="666.0768" y1="124.1358" y2="1581.3005"/></g></g><g class="participant-lifeline" data-entity-uid="part6" data-qualified-name="DEL" id="part6-lifeline"><g><title>DELETE .api.projects.</title><rect fill="#000000" fill-opacity="0.00000" height="1457.1647" width="8" x="852.9128" y="124.1358"/><line style="stroke:#181818;stroke-width:0.5;stroke-dasharray:5,5;" x1="856.6342" x2="856.6342" y1="124.1358" y2="1581.3005"/></g></g><g class="participant-lifeline" data-entity-uid="part7" data-qualified-name="DNS" id="part7-lifeline"><g><title>DNS Resolver</title><rect fill="#000000" fill-opacity="0.00000" height="1457.1647" width="8" x="1004.3753" y="124.1358"/><line style="stroke:#181818;stroke-width:0.5;stroke-dasharray:5,5;" x1="1008.1915" x2="1008.1915" y1="124.1358" y2="1581.3005"/></g></g><g class="participant-lifeline" data-entity-uid="part8" data-qualified-name="CAD" id="part8-lifeline"><g><title>Caddy Manager</title><rect fill="#000000" fill-opacity="0.00000" height="1457.1647" width="8" x="1124.583" y="124.1358"/><line style="stroke:#181818;stroke-width:0.5;stroke-dasharray:5,5;" x1="1128.5592" x2="1128.5592" y1="124.1358" y2="1581.3005"/></g></g><g class="participant-lifeline" data-entity-uid="part9" data-qualified-name="DB" id="part9-lifeline"><g><title>MongoDB</title><rect fill="#000000" fill-opacity="0.00000" height="1457.1647" width="8" x="1229.7166" y="124.1358"/><line style="stroke:#181818;stroke-width:0.5;stroke-dasharray:5,5;" x1="1233.6068" x2="1233.6068" y1="124.1358" y2="1581.3005"/></g></g><g class="participant participant-head" data-entity-uid="part1" data-qualified-name="U" id="part1-head"><text fill="#000000" font-family="sans-serif" font-size="14" lengthAdjust="spacing" textLength="30.6179" x="20" y="120.0339">User</text><ellipse cx="38.3089" cy="53.5679" fill="#E2E2F0" rx="8" ry="8" style="stroke:#181818;stroke-width:0.5;"/><path d="M38.3089,61.5679 L38.3089,88.5679 M25.3089,69.5679 L51.3089,69.5679 M38.3089,88.5679 L25.3089,103.5679 M38.3089,88.5679 L51.3089,103.5679" fill="none" style="stroke:#181818;stroke-width:0.5;"/></g><g class="participant participant-tail" data-entity-uid="part1" data-qualified-name="U" id="part1-tail"><text fill="#000000" font-family="sans-serif" font-size="14" lengthAdjust="spacing" textLength="30.6179" x="20" y="1595.2664">User</text><ellipse cx="38.3089" cy="1607.8684" fill="#E2E2F0" rx="8" ry="8" style="stroke:#181818;stroke-width:0.5;"/><path d="M38.3089,1615.8684 L38.3089,1642.8684 M25.3089,1623.8684 L51.3089,1623.8684 M38.3089,1642.8684 L25.3089,1657.8684 M38.3089,1642.8684 L51.3089,1657.8684" fill="none" style="stroke:#181818;stroke-width:0.5;"/></g><g class="participant participant-head" data-entity-uid="part2" data-qualified-name="B" id="part2-head"><rect fill="#E2E2F0" height="33.0679" rx="2.5" ry="2.5" style="stroke:#181818;stroke-width:0.5;" width="68.7398" x="66.6179" y="90.0679"/><text fill="#000000" font-family="sans-serif" font-size="14" lengthAdjust="spacing" textLength="54.7398" x="73.6179" y="112.0339">Browser</text></g><g class="participant participant-tail" data-entity-uid="part2" data-qualified-name="B" id="part2-tail"><rect fill="#E2E2F0" height="33.0679" rx="2.5" ry="2.5" style="stroke:#181818;stroke-width:0.5;" width="68.7398" x="66.6179" y="1580.3005"/><text fill="#000000" font-family="sans-serif" font-size="14" lengthAdjust="spacing" textLength="54.7398" x="73.6179" y="1602.2664">Browser</text></g><g class="participant participant-head" data-entity-uid="part3" data-qualified-name="DT" id="part3-head"><rect fill="#E2E2F0" height="33.0679" rx="2.5" ry="2.5" style="stroke:#181818;stroke-width:0.5;" width="100.4917" x="176.2533" y="90.0679"/><text fill="#000000" font-family="sans-serif" font-size="14" lengthAdjust="spacing" textLength="86.4917" x="183.2533" y="112.0339">Domains Tab</text></g><g class="participant participant-tail" data-entity-uid="part3" data-qualified-name="DT" id="part3-tail"><rect fill="#E2E2F0" height="33.0679" rx="2.5" ry="2.5" style="stroke:#181818;stroke-width:0.5;" width="100.4917" x="176.2533" y="1580.3005"/><text fill="#000000" font-family="sans-serif" font-size="14" lengthAdjust="spacing" textLength="86.4917" x="183.2533" y="1602.2664">Domains Tab</text></g><g class="participant participant-head" data-entity-uid="part4" data-qualified-name="ADD" id="part4-head"><rect fill="#E2E2F0" height="52.1358" rx="2.5" ry="2.5" style="stroke:#181818;stroke-width:0.5;" width="141.0635" x="398.6275" y="71"/><text fill="#000000" font-family="sans-serif" font-size="14" lengthAdjust="spacing" textLength="127.0635" x="405.6275" y="92.9659">POST /api/projects/</text><text fill="#000000" font-family="sans-serif" font-size="14" lengthAdjust="spacing" textLength="100.4216" x="418.9485" y="112.0339">{slug}/domains</text></g><g class="participant participant-tail" data-entity-uid="part4" data-qualified-name="ADD" id="part4-tail"><rect fill="#E2E2F0" height="52.1358" rx="2.5" ry="2.5" style="stroke:#181818;stroke-width:0.5;" width="141.0635" x="398.6275" y="1580.3005"/><text fill="#000000" font-family="sans-serif" font-size="14" lengthAdjust="spacing" textLength="127.0635" x="405.6275" y="1602.2664">POST /api/projects/</text><text fill="#000000" font-family="sans-serif" font-size="14" lengthAdjust="spacing" textLength="100.4216" x="418.9485" y="1621.3344">{slug}/domains</text></g><g class="participant participant-head" data-entity-uid="part5" data-qualified-name="VERIFY" id="part5-head"><rect fill="#E2E2F0" height="52.1358" rx="2.5" ry="2.5" style="stroke:#181818;stroke-width:0.5;" width="180.5574" x="576.0768" y="71"/><text fill="#000000" font-family="sans-serif" font-size="14" lengthAdjust="spacing" textLength="127.0635" x="602.8237" y="92.9659">POST /api/projects/</text><text fill="#000000" font-family="sans-serif" font-size="14" lengthAdjust="spacing" textLength="166.5574" x="583.0768" y="112.0339">{slug}/domains/{domain}</text></g><g class="participant participant-tail" data-entity-uid="part5" data-qualified-name="VERIFY" id="part5-tail"><rect fill="#E2E2F0" height="52.1358" rx="2.5" ry="2.5" style="stroke:#181818;stroke-width:0.5;" width="180.5574" x="576.0768" y="1580.3005"/><text fill="#000000" font-family="sans-serif" font-size="14" lengthAdjust="spacing" textLength="127.0635" x="602.8237" y="1602.2664">POST /api/projects/</text><text fill="#000000" font-family="sans-serif" font-size="14" lengthAdjust="spacing" textLength="166.5574" x="583.0768" y="1621.3344">{slug}/domains/{domain}</text></g><g class="participant participant-head" data-entity-uid="part6" data-qualified-name="DEL" id="part6-head"><rect fill="#E2E2F0" height="52.1358" rx="2.5" ry="2.5" style="stroke:#181818;stroke-width:0.5;" width="180.5574" x="766.6342" y="71"/><text fill="#000000" font-family="sans-serif" font-size="14" lengthAdjust="spacing" textLength="140.8814" x="786.4721" y="92.9659">DELETE /api/projects/</text><text fill="#000000" font-family="sans-serif" font-size="14" lengthAdjust="spacing" textLength="166.5574" x="773.6342" y="112.0339">{slug}/domains/{domain}</text></g><g class="participant participant-tail" data-entity-uid="part6" data-qualified-name="DEL" id="part6-tail"><rect fill="#E2E2F0" height="52.1358" rx="2.5" ry="2.5" style="stroke:#181818;stroke-width:0.5;" width="180.5574" x="766.6342" y="1580.3005"/><text fill="#000000" font-family="sans-serif" font-size="14" lengthAdjust="spacing" textLength="140.8814" x="786.4721" y="1602.2664">DELETE /api/projects/</text><text fill="#000000" font-family="sans-serif" font-size="14" lengthAdjust="spacing" textLength="166.5574" x="773.6342" y="1621.3344">{slug}/domains/{domain}</text></g><g class="participant participant-head" data-entity-uid="part7" data-qualified-name="DNS" id="part7-head"><rect fill="#E2E2F0" height="33.0679" rx="2.5" ry="2.5" style="stroke:#181818;stroke-width:0.5;" width="102.3676" x="957.1915" y="90.0679"/><text fill="#000000" font-family="sans-serif" font-size="14" lengthAdjust="spacing" textLength="88.3676" x="964.1915" y="112.0339">DNS Resolver</text></g><g class="participant participant-tail" data-entity-uid="part7" data-qualified-name="DNS" id="part7-tail"><rect fill="#E2E2F0" height="33.0679" rx="2.5" ry="2.5" style="stroke:#181818;stroke-width:0.5;" width="102.3676" x="957.1915" y="1580.3005"/><text fill="#000000" font-family="sans-serif" font-size="14" lengthAdjust="spacing" textLength="88.3676" x="964.1915" y="1602.2664">DNS Resolver</text></g><g class="participant participant-head" data-entity-uid="part8" data-qualified-name="CAD" id="part8-head"><rect fill="#E2E2F0" height="33.0679" rx="2.5" ry="2.5" style="stroke:#181818;stroke-width:0.5;" width="118.0476" x="1069.5592" y="90.0679"/><text fill="#000000" font-family="sans-serif" font-size="14" lengthAdjust="spacing" textLength="104.0476" x="1076.5592" y="112.0339">Caddy Manager</text></g><g class="participant participant-tail" data-entity-uid="part8" data-qualified-name="CAD" id="part8-tail"><rect fill="#E2E2F0" height="33.0679" rx="2.5" ry="2.5" style="stroke:#181818;stroke-width:0.5;" width="118.0476" x="1069.5592" y="1580.3005"/><text fill="#000000" font-family="sans-serif" font-size="14" lengthAdjust="spacing" textLength="104.0476" x="1076.5592" y="1602.2664">Caddy Manager</text></g><g class="participant participant-head" data-entity-uid="part9" data-qualified-name="DB" id="part9-head"><text fill="#000000" font-family="sans-serif" font-size="14" lengthAdjust="spacing" textLength="66.2197" x="1197.6068" y="120.0339">MongoDB</text><path d="M1215.7166,69.0679 C1215.7166,59.0679 1233.7166,59.0679 1233.7166,59.0679 C1233.7166,59.0679 1251.7166,59.0679 1251.7166,69.0679 L1251.7166,95.0679 C1251.7166,105.0679 1233.7166,105.0679 1233.7166,105.0679 C1233.7166,105.0679 1215.7166,105.0679 1215.7166,95.0679 L1215.7166,69.0679" fill="#E2E2F0" style="stroke:#181818;stroke-width:0.5;"/><path d="M1215.7166,69.0679 C1215.7166,79.0679 1233.7166,79.0679 1233.7166,79.0679 C1233.7166,79.0679 1251.7166,79.0679 1251.7166,69.0679" fill="none" style="stroke:#181818;stroke-width:0.5;"/></g><g class="participant participant-tail" data-entity-uid="part9" data-qualified-name="DB" id="part9-tail"><text fill="#000000" font-family="sans-serif" font-size="14" lengthAdjust="spacing" textLength="66.2197" x="1197.6068" y="1595.2664">MongoDB</text><path d="M1215.7166,1609.3684 C1215.7166,1599.3684 1233.7166,1599.3684 1233.7166,1599.3684 C1233.7166,1599.3684 1251.7166,1599.3684 1251.7166,1609.3684 L1251.7166,1635.3684 C1251.7166,1645.3684 1233.7166,1645.3684 1233.7166,1645.3684 C1233.7166,1645.3684 1215.7166,1645.3684 1215.7166,1635.3684 L1215.7166,1609.3684" fill="#E2E2F0" style="stroke:#181818;stroke-width:0.5;"/><path d="M1215.7166,1609.3684 C1215.7166,1619.3684 1233.7166,1619.3684 1233.7166,1619.3684 C1233.7166,1619.3684 1251.7166,1619.3684 1251.7166,1609.3684" fill="none" style="stroke:#181818;stroke-width:0.5;"/></g><rect fill="#EEEEEE" height="3" style="stroke:#EEEEEE;stroke-width:1;" width="1289.8265" x="0" y="155.9888"/><line style="stroke:#000000;stroke-width:1;" x1="0" x2="1289.8265" y1="155.9888" y2="155.9888"/><line style="stroke:#000000;stroke-width:1;" x1="0" x2="1289.8265" y1="158.9888" y2="158.9888"/><rect fill="#EEEEEE" height="25.706" style="stroke:#000000;stroke-width:2;" width="96.6281" x="596.5992" y="144.1358"/><text fill="#000000" font-family="sans-serif" font-size="13" font-weight="bold" lengthAdjust="spacing" textLength="79.2481" x="602.5992" y="162.0328">Add Domain</text><g class="message" data-entity-1="part1" data-entity-2="part3" id="msg1"><polygon fill="#181818" points="214.4991,217.2539,224.4991,221.2539,214.4991,225.2539,218.4991,221.2539" style="stroke:#181818;stroke-width:1;"/><line style="stroke:#181818;stroke-width:1;" x1="38.3089" x2="220.4991" y1="221.2539" y2="221.2539"/><text fill="#000000" font-family="sans-serif" font-size="13" lengthAdjust="spacing" textLength="131.3261" x="45.3089" y="197.7389">Enter custom domain</text><text fill="#000000" font-family="sans-serif" font-size="13" lengthAdjust="spacing" textLength="119.4571" x="45.3089" y="215.4449">"app.example.com"</text></g><g class="message" data-entity-1="part3" data-entity-2="part4" id="msg2"><polygon fill="#181818" points="457.1593,248.9599,467.1593,252.9599,457.1593,256.9599,461.1593,252.9599" style="stroke:#181818;stroke-width:1;"/><line style="stroke:#181818;stroke-width:1;" x1="226.4991" x2="463.1593" y1="252.9599" y2="252.9599"/><text fill="#000000" font-family="sans-serif" font-size="13" lengthAdjust="spacing" textLength="218.6602" x="233.4991" y="247.1509">POST {domain: "app.example.com"}</text></g><g class="message" data-entity-1="part4" data-entity-2="part4" id="msg3"><line style="stroke:#181818;stroke-width:1;" x1="469.1593" x2="511.1593" y1="284.6659" y2="284.6659"/><line style="stroke:#181818;stroke-width:1;" x1="511.1593" x2="511.1593" y1="284.6659" y2="297.6659"/><line style="stroke:#181818;stroke-width:1;" x1="470.1593" x2="511.1593" y1="297.6659" y2="297.6659"/><polygon fill="#181818" points="480.1593,293.6659,470.1593,297.6659,480.1593,301.6659,476.1593,297.6659" style="stroke:#181818;stroke-width:1;"/><text fill="#000000" font-family="sans-serif" font-size="13" lengthAdjust="spacing" textLength="144.4171" x="476.1593" y="278.8569">Validate domain format</text></g><g class="message" data-entity-1="part4" data-entity-2="part9" id="msg4"><polygon fill="#181818" points="1221.7166,325.3719,1231.7166,329.3719,1221.7166,333.3719,1225.7166,329.3719" style="stroke:#181818;stroke-width:1;"/><line style="stroke:#181818;stroke-width:1;" x1="469.1593" x2="1227.7166" y1="329.3719" y2="329.3719"/><text fill="#000000" font-family="sans-serif" font-size="13" lengthAdjust="spacing" textLength="181.8182" x="476.1593" y="323.5629">Find project, check ownership</text></g><g class="message" data-entity-1="part9" data-entity-2="part4" id="msg5"><polygon fill="#181818" points="480.1593,357.0779,470.1593,361.0779,480.1593,365.0779,476.1593,361.0779" style="stroke:#181818;stroke-width:1;"/><line style="stroke:#181818;stroke-width:1;stroke-dasharray:2,2;" x1="474.1593" x2="1232.7166" y1="361.0779" y2="361.0779"/><text fill="#000000" font-family="sans-serif" font-size="13" lengthAdjust="spacing" textLength="42.718" x="486.1593" y="355.2689">Project</text></g><g class="message" data-entity-1="part4" data-entity-2="part4" id="msg6"><line style="stroke:#181818;stroke-width:1;" x1="469.1593" x2="511.1593" y1="410.49" y2="410.49"/><line style="stroke:#181818;stroke-width:1;" x1="511.1593" x2="511.1593" y1="410.49" y2="423.49"/><line style="stroke:#181818;stroke-width:1;" x1="470.1593" x2="511.1593" y1="423.49" y2="423.49"/><polygon fill="#181818" points="480.1593,419.49,470.1593,423.49,480.1593,427.49,476.1593,423.49" style="stroke:#181818;stroke-width:1;"/><text fill="#000000" font-family="sans-serif" font-size="13" lengthAdjust="spacing" textLength="149.8901" x="476.1593" y="386.975">Generate CNAME target:</text><text fill="#000000" font-family="sans-serif" font-size="13" lengthAdjust="spacing" textLength="183.1962" x="476.1593" y="404.681">{slug}.{PAGEFORGE_DOMAIN}</text></g><g class="message" data-entity-1="part4" data-entity-2="part9" id="msg7"><polygon fill="#181818" points="1221.7166,486.608,1231.7166,490.608,1221.7166,494.608,1225.7166,490.608" style="stroke:#181818;stroke-width:1;"/><line style="stroke:#181818;stroke-width:1;" x1="469.1593" x2="1227.7166" y1="490.608" y2="490.608"/><text fill="#000000" font-family="sans-serif" font-size="13" lengthAdjust="spacing" textLength="110.9551" x="476.1593" y="449.387">Push to domains[]</text><text fill="#000000" font-family="sans-serif" font-size="13" lengthAdjust="spacing" textLength="142.9481" x="476.1593" y="467.093">{domain, cnameTarget,</text><text fill="#000000" font-family="sans-serif" font-size="13" lengthAdjust="spacing" textLength="86.2941" x="476.1593" y="484.799">verified: false}</text></g><g class="message" data-entity-1="part9" data-entity-2="part4" id="msg8"><polygon fill="#181818" points="480.1593,518.314,470.1593,522.314,480.1593,526.314,476.1593,522.314" style="stroke:#181818;stroke-width:1;"/><line style="stroke:#181818;stroke-width:1;stroke-dasharray:2,2;" x1="474.1593" x2="1232.7166" y1="522.314" y2="522.314"/><text fill="#000000" font-family="sans-serif" font-size="13" lengthAdjust="spacing" textLength="99.0341" x="486.1593" y="516.505">Updated project</text></g><g class="message" data-entity-1="part4" data-entity-2="part3" id="msg9"><polygon fill="#181818" points="237.4991,550.0201,227.4991,554.0201,237.4991,558.0201,233.4991,554.0201" style="stroke:#181818;stroke-width:1;"/><line style="stroke:#181818;stroke-width:1;stroke-dasharray:2,2;" x1="231.4991" x2="468.1593" y1="554.0201" y2="554.0201"/><text fill="#000000" font-family="sans-serif" font-size="13" lengthAdjust="spacing" textLength="170.0921" x="243.4991" y="548.2111">201 {domain, cnameTarget}</text></g><g class="message" data-entity-1="part3" data-entity-2="part1" id="msg10"><polygon fill="#181818" points="49.3089,617.1381,39.3089,621.1381,49.3089,625.1381,45.3089,621.1381" style="stroke:#181818;stroke-width:1;"/><line style="stroke:#181818;stroke-width:1;stroke-dasharray:2,2;" x1="43.3089" x2="225.4991" y1="621.1381" y2="621.1381"/><text fill="#000000" font-family="sans-serif" font-size="13" lengthAdjust="spacing" textLength="113.0091" x="55.3089" y="579.9171">Show domain with</text><text fill="#000000" font-family="sans-serif" font-size="13" lengthAdjust="spacing" textLength="101.7641" x="55.3089" y="597.6231">"Pending" status</text><text fill="#000000" font-family="sans-serif" font-size="13" lengthAdjust="spacing" textLength="164.1902" x="55.3089" y="615.3291">CNAME target to configure</text></g><rect fill="#EEEEEE" height="3" style="stroke:#EEEEEE;stroke-width:1;" width="1289.8265" x="0" y="650.9911"/><line style="stroke:#000000;stroke-width:1;" x1="0" x2="1289.8265" y1="650.9911" y2="650.9911"/><line style="stroke:#000000;stroke-width:1;" x1="0" x2="1289.8265" y1="653.9911" y2="653.9911"/><rect fill="#EEEEEE" height="25.706" style="stroke:#000000;stroke-width:2;" width="224.3922" x="532.7172" y="639.1381"/><text fill="#000000" font-family="sans-serif" font-size="13" font-weight="bold" lengthAdjust="spacing" textLength="207.0122" x="538.7172" y="657.0351">Verify Domain (after DNS setup)</text><g class="message" data-entity-1="part1" data-entity-2="part3" id="msg11"><polygon fill="#181818" points="214.4991,694.5501,224.4991,698.5501,214.4991,702.5501,218.4991,698.5501" style="stroke:#181818;stroke-width:1;"/><line style="stroke:#181818;stroke-width:1;" x1="38.3089" x2="220.4991" y1="698.5501" y2="698.5501"/><text fill="#000000" font-family="sans-serif" font-size="13" lengthAdjust="spacing" textLength="121.7451" x="45.3089" y="692.7411">Click "Verify" button</text></g><g class="message" data-entity-1="part3" data-entity-2="part5" id="msg12"><polygon fill="#181818" points="654.3555,726.2562,664.3555,730.2562,654.3555,734.2562,658.3555,730.2562" style="stroke:#181818;stroke-width:1;"/><line style="stroke:#181818;stroke-width:1;" x1="226.4991" x2="660.3555" y1="730.2562" y2="730.2562"/><text fill="#000000" font-family="sans-serif" font-size="13" lengthAdjust="spacing" textLength="154.9341" x="233.4991" y="724.4472">POST /domains/{domain}</text></g><g class="message" data-entity-1="part5" data-entity-2="part9" id="msg13"><polygon fill="#181818" points="1221.7166,757.9622,1231.7166,761.9622,1221.7166,765.9622,1225.7166,761.9622" style="stroke:#181818;stroke-width:1;"/><line style="stroke:#181818;stroke-width:1;" x1="666.3555" x2="1227.7166" y1="761.9622" y2="761.9622"/><text fill="#000000" font-family="sans-serif" font-size="13" lengthAdjust="spacing" textLength="72.3581" x="673.3555" y="756.1532">Find project</text></g><g class="message" data-entity-1="part9" data-entity-2="part5" id="msg14"><polygon fill="#181818" points="677.3555,789.6682,667.3555,793.6682,677.3555,797.6682,673.3555,793.6682" style="stroke:#181818;stroke-width:1;"/><line style="stroke:#181818;stroke-width:1;stroke-dasharray:2,2;" x1="671.3555" x2="1232.7166" y1="793.6682" y2="793.6682"/><text fill="#000000" font-family="sans-serif" font-size="13" lengthAdjust="spacing" textLength="157.9111" x="683.3555" y="787.8592">Project with domain entry</text></g><g class="message" data-entity-1="part5" data-entity-2="part7" id="msg15"><polygon fill="#181818" points="996.3753,839.0802,1006.3753,843.0802,996.3753,847.0802,1000.3753,843.0802" style="stroke:#181818;stroke-width:1;"/><line style="stroke:#181818;stroke-width:1;" x1="666.3555" x2="1002.3753" y1="843.0802" y2="843.0802"/><text fill="#000000" font-family="sans-serif" font-size="13" lengthAdjust="spacing" textLength="116.7531" x="673.3555" y="819.5652">dns.resolveCname(</text><text fill="#000000" font-family="sans-serif" font-size="13" lengthAdjust="spacing" textLength="123.3571" x="673.3555" y="837.2712">"app.example.com")</text></g><path d="M10,858.0802 L72.303,858.0802 L72.303,867.7862 L62.303,877.7862 L10,877.7862 L10,858.0802" fill="#EEEEEE" style="stroke:#000000;stroke-width:1.5;"/><rect fill="none" height="406.8661" style="stroke:#000000;stroke-width:1.5;" width="1269.8265" x="10" y="858.0802"/><text fill="#000000" font-family="sans-serif" font-size="13" font-weight="bold" lengthAdjust="spacing" textLength="17.303" x="25" y="872.9772">alt</text><text fill="#000000" font-family="sans-serif" font-size="11" font-weight="bold" lengthAdjust="spacing" textLength="171.6868" x="87.303" y="871.8391">[CNAME not found or incorrect]</text><g class="message" data-entity-1="part7" data-entity-2="part5" id="msg16"><polygon fill="#181818" points="677.3555,897.4923,667.3555,901.4923,677.3555,905.4923,673.3555,901.4923" style="stroke:#181818;stroke-width:1;"/><line style="stroke:#181818;stroke-width:1;stroke-dasharray:2,2;" x1="671.3555" x2="1007.3753" y1="901.4923" y2="901.4923"/><text fill="#000000" font-family="sans-serif" font-size="13" lengthAdjust="spacing" textLength="123.0321" x="683.3555" y="895.6833">Error / wrong target</text></g><g class="message" data-entity-1="part5" data-entity-2="part3" id="msg17"><polygon fill="#181818" points="237.4991,929.1983,227.4991,933.1983,237.4991,937.1983,233.4991,933.1983" style="stroke:#181818;stroke-width:1;"/><line style="stroke:#181818;stroke-width:1;stroke-dasharray:2,2;" x1="231.4991" x2="665.3555" y1="933.1983" y2="933.1983"/><text fill="#000000" font-family="sans-serif" font-size="13" lengthAdjust="spacing" textLength="154.8821" x="243.4991" y="927.3893">400 "CNAME not verified"</text></g><g class="message" data-entity-1="part3" data-entity-2="part1" id="msg18"><polygon fill="#181818" points="49.3089,960.9043,39.3089,964.9043,49.3089,968.9043,45.3089,964.9043" style="stroke:#181818;stroke-width:1;"/><line style="stroke:#181818;stroke-width:1;stroke-dasharray:2,2;" x1="43.3089" x2="225.4991" y1="964.9043" y2="964.9043"/><text fill="#000000" font-family="sans-serif" font-size="13" lengthAdjust="spacing" textLength="159.4191" x="55.3089" y="959.0953">Show "Not verified" status</text></g><line style="stroke:#000000;stroke-width:1;stroke-dasharray:2,2;" x1="10" x2="1279.8265" y1="973.9043" y2="973.9043"/><text fill="#000000" font-family="sans-serif" font-size="11" font-weight="bold" lengthAdjust="spacing" textLength="134.727" x="15" y="985.6632">[CNAME matches target]</text><g class="message" data-entity-1="part7" data-entity-2="part5" id="msg19"><polygon fill="#181818" points="677.3555,1027.2982,667.3555,1031.2982,677.3555,1035.2982,673.3555,1031.2982" style="stroke:#181818;stroke-width:1;"/><line style="stroke:#181818;stroke-width:1;stroke-dasharray:2,2;" x1="671.3555" x2="1007.3753" y1="1031.2982" y2="1031.2982"/><text fill="#000000" font-family="sans-serif" font-size="13" lengthAdjust="spacing" textLength="100.7761" x="683.3555" y="1007.7832">CNAME matches</text><text fill="#000000" font-family="sans-serif" font-size="13" lengthAdjust="spacing" textLength="183.1962" x="683.3555" y="1025.4892">{slug}.{PAGEFORGE_DOMAIN}</text></g><g class="message" data-entity-1="part5" data-entity-2="part9" id="msg20"><polygon fill="#181818" points="1221.7166,1076.7103,1231.7166,1080.7103,1221.7166,1084.7103,1225.7166,1080.7103" style="stroke:#181818;stroke-width:1;"/><line style="stroke:#181818;stroke-width:1;" x1="666.3555" x2="1227.7166" y1="1080.7103" y2="1080.7103"/><text fill="#000000" font-family="sans-serif" font-size="13" lengthAdjust="spacing" textLength="98.3711" x="673.3555" y="1057.1952">Update domain:</text><text fill="#000000" font-family="sans-serif" font-size="13" lengthAdjust="spacing" textLength="177.9051" x="673.3555" y="1074.9012">verified=true, verifiedAt=now</text></g><g class="message" data-entity-1="part9" data-entity-2="part5" id="msg21"><polygon fill="#181818" points="677.3555,1108.4163,667.3555,1112.4163,677.3555,1116.4163,673.3555,1112.4163" style="stroke:#181818;stroke-width:1;"/><line style="stroke:#181818;stroke-width:1;stroke-dasharray:2,2;" x1="671.3555" x2="1232.7166" y1="1112.4163" y2="1112.4163"/><text fill="#000000" font-family="sans-serif" font-size="13" lengthAdjust="spacing" textLength="52.806" x="683.3555" y="1106.6073">Updated</text></g><g class="message" data-entity-1="part5" data-entity-2="part8" id="msg22"><polygon fill="#181818" points="1116.583,1157.8283,1126.583,1161.8283,1116.583,1165.8283,1120.583,1161.8283" style="stroke:#181818;stroke-width:1;"/><line style="stroke:#181818;stroke-width:1;" x1="666.3555" x2="1122.583" y1="1161.8283" y2="1161.8283"/><text fill="#000000" font-family="sans-serif" font-size="13" lengthAdjust="spacing" textLength="82.0561" x="673.3555" y="1138.3133">Add route for</text><text fill="#000000" font-family="sans-serif" font-size="13" lengthAdjust="spacing" textLength="95.2901" x="673.3555" y="1156.0193">custom domain</text></g><g class="message" data-entity-1="part8" data-entity-2="part5" id="msg23"><polygon fill="#181818" points="677.3555,1189.5343,667.3555,1193.5343,677.3555,1197.5343,673.3555,1193.5343" style="stroke:#181818;stroke-width:1;"/><line style="stroke:#181818;stroke-width:1;stroke-dasharray:2,2;" x1="671.3555" x2="1127.583" y1="1193.5343" y2="1193.5343"/><text fill="#000000" font-family="sans-serif" font-size="13" lengthAdjust="spacing" textLength="78.0001" x="683.3555" y="1187.7253">Route added</text></g><g class="message" data-entity-1="part5" data-entity-2="part3" id="msg24"><polygon fill="#181818" points="237.4991,1221.2403,227.4991,1225.2403,237.4991,1229.2403,233.4991,1225.2403" style="stroke:#181818;stroke-width:1;"/><line style="stroke:#181818;stroke-width:1;stroke-dasharray:2,2;" x1="231.4991" x2="665.3555" y1="1225.2403" y2="1225.2403"/><text fill="#000000" font-family="sans-serif" font-size="13" lengthAdjust="spacing" textLength="113.6721" x="243.4991" y="1219.4313">200 {verified: true}</text></g><g class="message" data-entity-1="part3" data-entity-2="part1" id="msg25"><polygon fill="#181818" points="49.3089,1252.9464,39.3089,1256.9464,49.3089,1260.9464,45.3089,1256.9464" style="stroke:#181818;stroke-width:1;"/><line style="stroke:#181818;stroke-width:1;stroke-dasharray:2,2;" x1="43.3089" x2="225.4991" y1="1256.9464" y2="1256.9464"/><text fill="#000000" font-family="sans-serif" font-size="13" lengthAdjust="spacing" textLength="136.2401" x="55.3089" y="1251.1373">Show "Verified" badge</text></g><rect fill="#EEEEEE" height="3" style="stroke:#EEEEEE;stroke-width:1;" width="1289.8265" x="0" y="1293.7994"/><line style="stroke:#000000;stroke-width:1;" x1="0" x2="1289.8265" y1="1293.7994" y2="1293.7994"/><line style="stroke:#000000;stroke-width:1;" x1="0" x2="1289.8265" y1="1296.7994" y2="1296.7994"/><rect fill="#EEEEEE" height="25.706" style="stroke:#000000;stroke-width:2;" width="123.4731" x="583.1767" y="1281.9464"/><text fill="#000000" font-family="sans-serif" font-size="13" font-weight="bold" lengthAdjust="spacing" textLength="106.0931" x="589.1767" y="1299.8434">Remove Domain</text><g class="message" data-entity-1="part1" data-entity-2="part3" id="msg26"><polygon fill="#181818" points="214.4991,1337.3584,224.4991,1341.3584,214.4991,1345.3584,218.4991,1341.3584" style="stroke:#181818;stroke-width:1;"/><line style="stroke:#181818;stroke-width:1;" x1="38.3089" x2="220.4991" y1="1341.3584" y2="1341.3584"/><text fill="#000000" font-family="sans-serif" font-size="13" lengthAdjust="spacing" textLength="160.8231" x="45.3089" y="1335.5494">Click "Remove" on domain</text></g><g class="message" data-entity-1="part3" data-entity-2="part6" id="msg27"><polygon fill="#181818" points="844.9128,1369.0644,854.9128,1373.0644,844.9128,1377.0644,848.9128,1373.0644" style="stroke:#181818;stroke-width:1;"/><line style="stroke:#181818;stroke-width:1;" x1="226.4991" x2="850.9128" y1="1373.0644" y2="1373.0644"/><text fill="#000000" font-family="sans-serif" font-size="13" lengthAdjust="spacing" textLength="167.7652" x="233.4991" y="1367.2554">DELETE /domains/{domain}</text></g><g class="message" data-entity-1="part6" data-entity-2="part9" id="msg28"><polygon fill="#181818" points="1221.7166,1400.7704,1231.7166,1404.7704,1221.7166,1408.7704,1225.7166,1404.7704" style="stroke:#181818;stroke-width:1;"/><line style="stroke:#181818;stroke-width:1;" x1="856.9128" x2="1227.7166" y1="1404.7704" y2="1404.7704"/><text fill="#000000" font-family="sans-serif" font-size="13" lengthAdjust="spacing" textLength="120.7051" x="863.9128" y="1398.9614">Pull from domains[]</text></g><g class="message" data-entity-1="part9" data-entity-2="part6" id="msg29"><polygon fill="#181818" points="867.9128,1432.4764,857.9128,1436.4764,867.9128,1440.4764,863.9128,1436.4764" style="stroke:#181818;stroke-width:1;"/><line style="stroke:#181818;stroke-width:1;stroke-dasharray:2,2;" x1="861.9128" x2="1232.7166" y1="1436.4764" y2="1436.4764"/><text fill="#000000" font-family="sans-serif" font-size="13" lengthAdjust="spacing" textLength="52.806" x="873.9128" y="1430.6674">Updated</text></g><g class="message" data-entity-1="part6" data-entity-2="part8" id="msg30"><polygon fill="#181818" points="1116.583,1464.1824,1126.583,1468.1824,1116.583,1472.1824,1120.583,1468.1824" style="stroke:#181818;stroke-width:1;"/><line style="stroke:#181818;stroke-width:1;" x1="856.9128" x2="1122.583" y1="1468.1824" y2="1468.1824"/><text fill="#000000" font-family="sans-serif" font-size="13" lengthAdjust="spacing" textLength="157.2091" x="863.9128" y="1462.3734">Remove route for domain</text></g><g class="message" data-entity-1="part8" data-entity-2="part6" id="msg31"><polygon fill="#181818" points="867.9128,1495.8885,857.9128,1499.8885,867.9128,1503.8885,863.9128,1499.8885" style="stroke:#181818;stroke-width:1;"/><line style="stroke:#181818;stroke-width:1;stroke-dasharray:2,2;" x1="861.9128" x2="1127.583" y1="1499.8885" y2="1499.8885"/><text fill="#000000" font-family="sans-serif" font-size="13" lengthAdjust="spacing" textLength="94.0421" x="873.9128" y="1494.0795">Route removed</text></g><g class="message" data-entity-1="part6" data-entity-2="part3" id="msg32"><polygon fill="#181818" points="237.4991,1527.5945,227.4991,1531.5945,237.4991,1535.5945,233.4991,1531.5945" style="stroke:#181818;stroke-width:1;"/><line style="stroke:#181818;stroke-width:1;stroke-dasharray:2,2;" x1="231.4991" x2="855.9128" y1="1531.5945" y2="1531.5945"/><text fill="#000000" font-family="sans-serif" font-size="13" lengthAdjust="spacing" textLength="122.5121" x="243.4991" y="1525.7855">200 {removed: true}</text></g><g class="message" data-entity-1="part3" data-entity-2="part1" id="msg33"><polygon fill="#181818" points="49.3089,1559.3005,39.3089,1563.3005,49.3089,1567.3005,45.3089,1563.3005" style="stroke:#181818;stroke-width:1;"/><line style="stroke:#181818;stroke-width:1;stroke-dasharray:2,2;" x1="43.3089" x2="225.4991" y1="1563.3005" y2="1563.3005"/><text fill="#000000" font-family="sans-serif" font-size="13" lengthAdjust="spacing" textLength="160.4721" x="55.3089" y="1557.4915">Domain removed from list</text></g><?plantuml-src bLJRQjj047tNLmnwIY2ntL8e25omBIK4QYVu1gKkPIsjxMsbNNLt5JSO_tj7Uv6jn1Jo9ZHdpioSEJkQwPp2ZFwfA4yfn8ni9IaY65LAYm9YKH36OKmusTA2SWrNYz5jx_Dr491K2mdXGb4P0b6m24eYDKjPIH0M3gNO-z2m7RAa2kPaRSBnl1r_UfpDeKjArYsb-4LJhRehVb1vjJrsCvjhyWPn_Ex4xi5-70t3Cfa-t7rxrLtoDPadxwB1b5SSanbCgHBvirC0VxGH8v9bBqvN2naDuY0Zcgo9eX2E1T-AU6YJXq7GxyCWo_m--lrW0RTVKBa84gwfXDJkotQruY4fomxzIueofvrK564Gp-i4b2m28vCR888tq6E0g0Qy93d3jgYZXesG1T4U4WyZk6Cy0wVK3QGxclu6iUTKgXqhWtW8jqrX2shntrD4rloZoM2SW2PoItNazUuSdWRtoTtZz3xv6J-E1m-JutdffqhjG0lNc_h-0_FiDpR2IK7dXkvcnN4HRCDe5i66v8eUMtqjodh2PWXRmSdxiVS1Bd4UZQ88MaGmsuczrsVFz0xrVw8yOtmRWj94Lsh5pyUhMqu5tx1j9QdPxR9kxyMlzufiwftMBb9KL-LrQ-6ZdA72eKq9OLrfBRZRhpMqM_4RimOsV6bnNe-6mFusu_ZHyFdBbtEEoIo2ZAkEj5OVrUfSNJ1VVIroxJRCXKOJLLWQpmVZgP2ohWzctFCM4YaHqOMznBVWb4EOh-_K-DJhuMjgcFsUmvgmlQ1mSXvtYmaeki5rXhv6zwfJgTSTjM3_i-YfIwkqDPZJCJgviQzbHM-QfWQwpyM-BjnUXlDdYnRFHMHEWXGLKkEpNF7M4K0qObeyKmF5ozFYQepUWyFfcTIT7I-8k6m4N9DiImFqkN7mb1RYcLuwKCwl5X22uBv1QraydX7ue_l6iHWuFVOyXuri1iJdxbrhEBnABiK8vBfgDFAblJ8cqSeY3TIbdslY0bwIao1kLXUthULCwU0V?></g></svg>