<?plantuml 1.2026.1?><svg xmlns="http://www.w3.org/2000/svg" xmlns:xlink="http://www.w3.org/1999/xlink" contentStyleType="text/css" data-diagram-type="SEQUENCE" height="989px" preserveAspectRatio="none" style="width:888px;height:989px;background:#FFFFFF;" version="1.1" viewBox="0 0 888 989" width="888px" zoomAndPan="magnify"><title>Sequence Diagram: Environment Variable Management (UC-09)</title><defs/><g><text fill="#000000" font-family="sans-serif" font-size="14" font-weight="bold" lengthAdjust="spacing" textLength="440.2844" x="225.5597" y="29.9659">Sequence Diagram: Environment Variable Management (UC-09)</text><g class="participant-lifeline" data-entity-uid="part1" data-qualified-name="U" id="part1-lifeline"><g><title>User</title><rect fill="#000000" fill-opacity="0.00000" height="782.0624" width="8" x="117.3089" y="124.1358"/><line style="stroke:#181818;stroke-width:0.5;stroke-dasharray:5,5;" x1="121" x2="121" y1="124.1358" y2="906.1983"/></g></g><g class="participant-lifeline" data-entity-uid="part2" data-qualified-name="B" id="part2-lifeline"><g><title>Browser</title><rect fill="#000000" fill-opacity="0.00000" height="782.0624" width="8" x="179.9878" y="124.1358"/><line style="stroke:#181818;stroke-width:0.5;stroke-dasharray:5,5;" x1="183.6179" x2="183.6179" y1="124.1358" y2="906.1983"/></g></g><g class="participant-lifeline" data-entity-uid="part3" data-qualified-name="ET" id="part3-lifeline"><g><title>Environment Tab</title><rect fill="#000000" fill-opacity="0.00000" height="782.0624" width="8" x="317.1341" y="124.1358"/><line style="stroke:#181818;stroke-width:0.5;stroke-dasharray:5,5;" x1="320.8123" x2="320.8123" y1="124.1358" y2="906.1983"/></g></g><g class="participant-lifeline" data-entity-uid="part4" data-qualified-name="GETENV" id="part4-lifeline"><g><title>GET .api.projects.</title><rect fill="#000000" fill-opacity="0.00000" height="782.0624" width="8" x="512.9552" y="124.1358"/><line style="stroke:#181818;stroke-width:0.5;stroke-dasharray:5,5;" x1="515.9805" x2="515.9805" y1="124.1358" y2="906.1983"/></g></g><g class="participant-lifeline" data-entity-uid="part5" data-qualified-name="PUTENV" id="part5-lifeline"><g><title>PUT .api.projects.</title><rect fill="#000000" fill-opacity="0.00000" height="782.0624" width="8" x="655.2688" y="124.1358"/><line style="stroke:#181818;stroke-width:0.5;stroke-dasharray:5,5;" x1="658.93" x2="658.93" y1="124.1358" y2="906.1983"/></g></g><g class="participant-lifeline" data-entity-uid="part6" data-qualified-name="DB" id="part6-lifeline"><g><title>MongoDB</title><rect fill="#000000" fill-opacity="0.00000" height="782.0624" width="8" x="847.294" y="124.1358"/><line style="stroke:#181818;stroke-width:0.5;stroke-dasharray:5,5;" x1="851.1841" x2="851.1841" y1="124.1358" y2="906.1983"/></g></g><g class="participant participant-head" data-entity-uid="part1" data-qualified-name="U" id="part1-head"><text fill="#000000" font-family="sans-serif" font-size="14" lengthAdjust="spacing" textLength="30.6179" x="103" y="120.0339">User</text><ellipse cx="121.3089" cy="53.5679" fill="#E2E2F0" rx="8" ry="8" style="stroke:#181818;stroke-width:0.5;"/><path d="M121.3089,61.5679 L121.3089,88.5679 M108.3089,69.5679 L134.3089,69.5679 M121.3089,88.5679 L108.3089,103.5679 M121.3089,88.5679 L134.3089,103.5679" fill="none" style="stroke:#181818;stroke-width:0.5;"/></g><g class="participant participant-tail" data-entity-uid="part1" data-qualified-name="U" id="part1-tail"><text fill="#000000" font-family="sans-serif" font-size="14" lengthAdjust="spacing" textLength="30.6179" x="103" y="920.1642">User</text><ellipse cx="121.3089" cy="932.7662" fill="#E2E2F0" rx="8" ry="8" style="stroke:#181818;stroke-width:0.5;"/><path d="M121.3089,940.7662 L121.3089,967.7662 M108.3089,948.7662 L134.3089,948.7662 M121.3089,967.7662 L108.3089,982.7662 M121.3089,967.7662 L134.3089,982.7662" fill="none" style="stroke:#181818;stroke-width:0.5;"/></g><g class="participant participant-head" data-entity-uid="part2" data-qualified-name="B" id="part2-head"><rect fill="#E2E2F0" height="33.0679" rx="2.5" ry="2.5" style="stroke:#181818;stroke-width:0.5;" width="68.7398" x="149.6179" y="90.0679"/><text fill="#000000" font-family="sans-serif" font-size="14" lengthAdjust="spacing" textLength="54.7398" x="156.6179" y="112.0339">Browser</text></g><g class="participant participant-tail" data-entity-uid="part2" data-qualified-name="B" id="part2-tail"><rect fill="#E2E2F0" height="33.0679" rx="2.5" ry="2.5" style="stroke:#181818;stroke-width:0.5;" width="68.7398" x="149.6179" y="905.1983"/><text fill="#000000" font-family="sans-serif" font-size="14" lengthAdjust="spacing" textLength="54.7398" x="156.6179" y="927.1642">Browser</text></g><g class="participant participant-head" data-entity-uid="part3" data-qualified-name="ET" id="part3-head"><rect fill="#E2E2F0" height="33.0679" rx="2.5" ry="2.5" style="stroke:#181818;stroke-width:0.5;" width="126.6436" x="257.8123" y="90.0679"/><text fill="#000000" font-family="sans-serif" font-size="14" lengthAdjust="spacing" textLength="112.6436" x="264.8123" y="112.0339">Environment Tab</text></g><g class="participant participant-tail" data-entity-uid="part3" data-qualified-name="ET" id="part3-tail"><rect fill="#E2E2F0" height="33.0679" rx="2.5" ry="2.5" style="stroke:#181818;stroke-width:0.5;" width="126.6436" x="257.8123" y="905.1983"/><text fill="#000000" font-family="sans-serif" font-size="14" lengthAdjust="spacing" textLength="112.6436" x="264.8123" y="927.1642">Environment Tab</text></g><g class="participant participant-head" data-entity-uid="part4" data-qualified-name="GETENV" id="part4-head"><rect fill="#E2E2F0" height="52.1358" rx="2.5" ry="2.5" style="stroke:#181818;stroke-width:0.5;" width="131.9495" x="450.9805" y="71"/><text fill="#000000" font-family="sans-serif" font-size="14" lengthAdjust="spacing" textLength="117.9495" x="457.9805" y="92.9659">GET /api/projects/</text><text fill="#000000" font-family="sans-serif" font-size="14" lengthAdjust="spacing" textLength="67.0877" x="483.4114" y="112.0339">{slug}/env</text></g><g class="participant participant-tail" data-entity-uid="part4" data-qualified-name="GETENV" id="part4-tail"><rect fill="#E2E2F0" height="52.1358" rx="2.5" ry="2.5" style="stroke:#181818;stroke-width:0.5;" width="131.9495" x="450.9805" y="905.1983"/><text fill="#000000" font-family="sans-serif" font-size="14" lengthAdjust="spacing" textLength="117.9495" x="457.9805" y="927.1642">GET /api/projects/</text><text fill="#000000" font-family="sans-serif" font-size="14" lengthAdjust="spacing" textLength="67.0877" x="483.4114" y="946.2321">{slug}/env</text></g><g class="participant participant-head" data-entity-uid="part5" data-qualified-name="PUTENV" id="part5-head"><rect fill="#E2E2F0" height="52.1358" rx="2.5" ry="2.5" style="stroke:#181818;stroke-width:0.5;" width="132.6776" x="592.93" y="71"/><text fill="#000000" font-family="sans-serif" font-size="14" lengthAdjust="spacing" textLength="118.6776" x="599.93" y="92.9659">PUT /api/projects/</text><text fill="#000000" font-family="sans-serif" font-size="14" lengthAdjust="spacing" textLength="67.0877" x="625.7249" y="112.0339">{slug}/env</text></g><g class="participant participant-tail" data-entity-uid="part5" data-qualified-name="PUTENV" id="part5-tail"><rect fill="#E2E2F0" height="52.1358" rx="2.5" ry="2.5" style="stroke:#181818;stroke-width:0.5;" width="132.6776" x="592.93" y="905.1983"/><text fill="#000000" font-family="sans-serif" font-size="14" lengthAdjust="spacing" textLength="118.6776" x="599.93" y="927.1642">PUT /api/projects/</text><text fill="#000000" font-family="sans-serif" font-size="14" lengthAdjust="spacing" textLength="67.0877" x="625.7249" y="946.2321">{slug}/env</text></g><g class="participant participant-head" data-entity-uid="part6" data-qualified-name="DB" id="part6-head"><text fill="#000000" font-family="sans-serif" font-size="14" lengthAdjust="spacing" textLength="66.2197" x="815.1841" y="120.0339">MongoDB</text><path d="M833.294,69.0679 C833.294,59.0679 851.294,59.0679 851.294,59.0679 C851.294,59.0679 869.294,59.0679 869.294,69.0679 L869.294,95.0679 C869.294,105.0679 851.294,105.0679 851.294,105.0679 C851.294,105.0679 833.294,105.0679 833.294,95.0679 L833.294,69.0679" fill="#E2E2F0" style="stroke:#181818;stroke-width:0.5;"/><path d="M833.294,69.0679 C833.294,79.0679 851.294,79.0679 851.294,79.0679 C851.294,79.0679 869.294,79.0679 869.294,69.0679" fill="none" style="stroke:#181818;stroke-width:0.5;"/></g><g class="participant participant-tail" data-entity-uid="part6" data-qualified-name="DB" id="part6-tail"><text fill="#000000" font-family="sans-serif" font-size="14" lengthAdjust="spacing" textLength="66.2197" x="815.1841" y="920.1642">MongoDB</text><path d="M833.294,934.2662 C833.294,924.2662 851.294,924.2662 851.294,924.2662 C851.294,924.2662 869.294,924.2662 869.294,934.2662 L869.294,960.2662 C869.294,970.2662 851.294,970.2662 851.294,970.2662 C851.294,970.2662 833.294,970.2662 833.294,960.2662 L833.294,934.2662" fill="#E2E2F0" style="stroke:#181818;stroke-width:0.5;"/><path d="M833.294,934.2662 C833.294,944.2662 851.294,944.2662 851.294,944.2662 C851.294,944.2662 869.294,944.2662 869.294,934.2662" fill="none" style="stroke:#181818;stroke-width:0.5;"/></g><g class="message" data-entity-1="part1" data-entity-2="part3" id="msg1"><polygon fill="#181818" points="309.1341,153.8419,319.1341,157.8419,309.1341,161.8419,313.1341,157.8419" style="stroke:#181818;stroke-width:1;"/><line style="stroke:#181818;stroke-width:1;" x1="121.3089" x2="315.1341" y1="157.8419" y2="157.8419"/><text fill="#000000" font-family="sans-serif" font-size="13" lengthAdjust="spacing" textLength="175.8252" x="128.3089" y="152.0328">Navigate to Environment tab</text></g><g class="message" data-entity-1="part3" data-entity-2="part4" id="msg2"><polygon fill="#181818" points="504.9552,185.5479,514.9552,189.5479,504.9552,193.5479,508.9552,189.5479" style="stroke:#181818;stroke-width:1;"/><line style="stroke:#181818;stroke-width:1;" x1="321.1341" x2="510.9552" y1="189.5479" y2="189.5479"/><text fill="#000000" font-family="sans-serif" font-size="13" lengthAdjust="spacing" textLength="171.8211" x="328.1341" y="183.7389">GET /api/projects/{slug}/env</text></g><g class="message" data-entity-1="part4" data-entity-2="part4" id="msg3"><line style="stroke:#181818;stroke-width:1;" x1="516.9552" x2="558.9552" y1="221.2539" y2="221.2539"/><line style="stroke:#181818;stroke-width:1;" x1="558.9552" x2="558.9552" y1="221.2539" y2="234.2539"/><line style="stroke:#181818;stroke-width:1;" x1="517.9552" x2="558.9552" y1="234.2539" y2="234.2539"/><polygon fill="#181818" points="527.9552,230.2539,517.9552,234.2539,527.9552,238.2539,523.9552,234.2539" style="stroke:#181818;stroke-width:1;"/><text fill="#000000" font-family="sans-serif" font-size="13" lengthAdjust="spacing" textLength="81.6531" x="523.9552" y="215.4449">requireAuth()</text></g><g class="message" data-entity-1="part4" data-entity-2="part6" id="msg4"><polygon fill="#181818" points="839.294,279.6659,849.294,283.6659,839.294,287.6659,843.294,283.6659" style="stroke:#181818;stroke-width:1;"/><line style="stroke:#181818;stroke-width:1;" x1="516.9552" x2="845.294" y1="283.6659" y2="283.6659"/><text fill="#000000" font-family="sans-serif" font-size="13" lengthAdjust="spacing" textLength="72.3581" x="523.9552" y="260.1509">Find project</text><text fill="#000000" font-family="sans-serif" font-size="13" lengthAdjust="spacing" textLength="153.1401" x="523.9552" y="277.8569">(userId ownership check)</text></g><g class="message" data-entity-1="part6" data-entity-2="part4" id="msg5"><polygon fill="#181818" points="527.9552,329.0779,517.9552,333.0779,527.9552,337.0779,523.9552,333.0779" style="stroke:#181818;stroke-width:1;"/><line style="stroke:#181818;stroke-width:1;stroke-dasharray:2,2;" x1="521.9552" x2="850.294" y1="333.0779" y2="333.0779"/><text fill="#000000" font-family="sans-serif" font-size="13" lengthAdjust="spacing" textLength="72.3971" x="533.9552" y="309.5629">Project with</text><text fill="#000000" font-family="sans-serif" font-size="13" lengthAdjust="spacing" textLength="143.3771" x="533.9552" y="327.2689">environmentVariables[]</text></g><g class="message" data-entity-1="part4" data-entity-2="part3" id="msg6"><polygon fill="#181818" points="332.1341,360.784,322.1341,364.784,332.1341,368.784,328.1341,364.784" style="stroke:#181818;stroke-width:1;"/><line style="stroke:#181818;stroke-width:1;stroke-dasharray:2,2;" x1="326.1341" x2="515.9552" y1="364.784" y2="364.784"/><text fill="#000000" font-family="sans-serif" font-size="13" lengthAdjust="spacing" textLength="116.2591" x="338.1341" y="358.975">200 {variables: [...]}</text></g><g class="message" data-entity-1="part3" data-entity-2="part1" id="msg7"><polygon fill="#181818" points="132.3089,410.196,122.3089,414.196,132.3089,418.196,128.3089,414.196" style="stroke:#181818;stroke-width:1;"/><line style="stroke:#181818;stroke-width:1;stroke-dasharray:2,2;" x1="126.3089" x2="320.1341" y1="414.196" y2="414.196"/><text fill="#000000" font-family="sans-serif" font-size="13" lengthAdjust="spacing" textLength="117.3251" x="138.3089" y="390.681">Display variable list</text><text fill="#000000" font-family="sans-serif" font-size="13" lengthAdjust="spacing" textLength="97.9681" x="138.3089" y="408.387">(values masked)</text></g><g class="message" data-entity-1="part1" data-entity-2="part3" id="msg8"><polygon fill="#181818" points="309.1341,441.902,319.1341,445.902,309.1341,449.902,313.1341,445.902" style="stroke:#181818;stroke-width:1;"/><line style="stroke:#181818;stroke-width:1;" x1="121.3089" x2="315.1341" y1="445.902" y2="445.902"/><text fill="#000000" font-family="sans-serif" font-size="13" lengthAdjust="spacing" textLength="164.8141" x="128.3089" y="440.093">Add/Edit/Remove variables</text></g><g class="message" data-entity-1="part1" data-entity-2="part3" id="msg9"><polygon fill="#181818" points="309.1341,473.608,319.1341,477.608,309.1341,481.608,313.1341,477.608" style="stroke:#181818;stroke-width:1;"/><line style="stroke:#181818;stroke-width:1;" x1="121.3089" x2="315.1341" y1="477.608" y2="477.608"/><text fill="#000000" font-family="sans-serif" font-size="13" lengthAdjust="spacing" textLength="126.9711" x="128.3089" y="471.799">Click "Save Changes"</text></g><g class="message" data-entity-1="part3" data-entity-2="part5" id="msg10"><polygon fill="#181818" points="647.2688,540.7261,657.2688,544.7261,647.2688,548.7261,651.2688,544.7261" style="stroke:#181818;stroke-width:1;"/><line style="stroke:#181818;stroke-width:1;" x1="321.1341" x2="653.2688" y1="544.7261" y2="544.7261"/><text fill="#000000" font-family="sans-serif" font-size="13" lengthAdjust="spacing" textLength="98.8781" x="328.1341" y="503.505">PUT {variables: [</text><text fill="#000000" font-family="sans-serif" font-size="13" lengthAdjust="spacing" textLength="152.6852" x="328.1341" y="521.2111">{key, value, encrypted},...</text><text fill="#000000" font-family="sans-serif" font-size="13" lengthAdjust="spacing" textLength="9.217" x="328.1341" y="538.9171">]}</text></g><g class="message" data-entity-1="part5" data-entity-2="part5" id="msg11"><line style="stroke:#181818;stroke-width:1;" x1="659.2688" x2="701.2688" y1="576.4321" y2="576.4321"/><line style="stroke:#181818;stroke-width:1;" x1="701.2688" x2="701.2688" y1="576.4321" y2="589.4321"/><line style="stroke:#181818;stroke-width:1;" x1="660.2688" x2="701.2688" y1="589.4321" y2="589.4321"/><polygon fill="#181818" points="670.2688,585.4321,660.2688,589.4321,670.2688,593.4321,666.2688,589.4321" style="stroke:#181818;stroke-width:1;"/><text fill="#000000" font-family="sans-serif" font-size="13" lengthAdjust="spacing" textLength="81.6531" x="666.2688" y="570.6231">requireAuth()</text></g><g class="message" data-entity-1="part5" data-entity-2="part6" id="msg12"><polygon fill="#181818" points="839.294,634.8441,849.294,638.8441,839.294,642.8441,843.294,638.8441" style="stroke:#181818;stroke-width:1;"/><line style="stroke:#181818;stroke-width:1;" x1="659.2688" x2="845.294" y1="638.8441" y2="638.8441"/><text fill="#000000" font-family="sans-serif" font-size="13" lengthAdjust="spacing" textLength="72.3581" x="666.2688" y="615.3291">Find project</text><text fill="#000000" font-family="sans-serif" font-size="13" lengthAdjust="spacing" textLength="113.4121" x="666.2688" y="633.0351">+ ownership check</text></g><g class="message" data-entity-1="part6" data-entity-2="part5" id="msg13"><polygon fill="#181818" points="670.2688,666.5501,660.2688,670.5501,670.2688,674.5501,666.2688,670.5501" style="stroke:#181818;stroke-width:1;"/><line style="stroke:#181818;stroke-width:1;stroke-dasharray:2,2;" x1="664.2688" x2="850.294" y1="670.5501" y2="670.5501"/><text fill="#000000" font-family="sans-serif" font-size="13" lengthAdjust="spacing" textLength="42.718" x="676.2688" y="664.7411">Project</text></g><g class="message" data-entity-1="part5" data-entity-2="part6" id="msg14"><polygon fill="#181818" points="839.294,715.9622,849.294,719.9622,839.294,723.9622,843.294,719.9622" style="stroke:#181818;stroke-width:1;"/><line style="stroke:#181818;stroke-width:1;" x1="659.2688" x2="845.294" y1="719.9622" y2="719.9622"/><text fill="#000000" font-family="sans-serif" font-size="13" lengthAdjust="spacing" textLength="44.811" x="666.2688" y="696.4472">Update</text><text fill="#000000" font-family="sans-serif" font-size="13" lengthAdjust="spacing" textLength="168.0252" x="666.2688" y="714.1532">environmentVariables = [...]</text></g><g class="message" data-entity-1="part6" data-entity-2="part5" id="msg15"><polygon fill="#181818" points="670.2688,747.6682,660.2688,751.6682,670.2688,755.6682,666.2688,751.6682" style="stroke:#181818;stroke-width:1;"/><line style="stroke:#181818;stroke-width:1;stroke-dasharray:2,2;" x1="664.2688" x2="850.294" y1="751.6682" y2="751.6682"/><text fill="#000000" font-family="sans-serif" font-size="13" lengthAdjust="spacing" textLength="52.806" x="676.2688" y="745.8592">Updated</text></g><g class="message" data-entity-1="part5" data-entity-2="part3" id="msg16"><polygon fill="#181818" points="332.1341,779.3742,322.1341,783.3742,332.1341,787.3742,328.1341,783.3742" style="stroke:#181818;stroke-width:1;"/><line style="stroke:#181818;stroke-width:1;stroke-dasharray:2,2;" x1="326.1341" x2="658.2688" y1="783.3742" y2="783.3742"/><text fill="#000000" font-family="sans-serif" font-size="13" lengthAdjust="spacing" textLength="116.2591" x="338.1341" y="777.5652">200 {variables: [...]}</text></g><g class="message" data-entity-1="part3" data-entity-2="part1" id="msg17"><polygon fill="#181818" points="132.3089,811.0802,122.3089,815.0802,132.3089,819.0802,128.3089,815.0802" style="stroke:#181818;stroke-width:1;"/><line style="stroke:#181818;stroke-width:1;stroke-dasharray:2,2;" x1="126.3089" x2="320.1341" y1="815.0802" y2="815.0802"/><text fill="#000000" font-family="sans-serif" font-size="13" lengthAdjust="spacing" textLength="165.7111" x="138.3089" y="809.2712">Show "Saved" confirmation</text></g><path d="M5,828.0802 L5,891.0802 L237,891.0802 L237,838.0802 L227,828.0802 L5,828.0802" fill="#FEFFDD" style="stroke:#181818;stroke-width:0.5;"/><path d="M227,828.0802 L227,838.0802 L237,838.0802 L227,828.0802" fill="#FEFFDD" style="stroke:#181818;stroke-width:0.5;"/><text fill="#000000" font-family="sans-serif" font-size="13" lengthAdjust="spacing" textLength="211.9912" x="11" y="846.9772">Environment variables are injected</text><text fill="#000000" font-family="sans-serif" font-size="13" lengthAdjust="spacing" textLength="189.7092" x="11" y="864.6833">into the Docker build container</text><text fill="#000000" font-family="sans-serif" font-size="13" lengthAdjust="spacing" textLength="119.6651" x="11" y="882.3893">at deployment time</text><?plantuml-src ZLDDZvim4BtpAqQS4dKJejwAr4fBabOzx6hLXBrizZ31Kt03DhKDKRJAV-y0-O1ifVQ4nRptvldDs4cN4wpeTqKg8LX8J0qM8InLBOrM1Ia7psWaRXdsW0fJQl-DulbazcdiUPWuRS2FBHaVq4BibMYSJ6I93FCZe_VdKZGizLkiSTj2bkiXvjjo3G6MCYYD_aM9iy56lTcyIey1gRgbC6Jv-3oaFSN_f36aeGbqk4LBu3zebUf5r1ONaUV5CFd2Va9un5gcw0YS7iJ2H8_jCQgp4C9xjzUcNWVgmmsdBWtTLouRZNlrHHJ2Lwa4d6GsQbHnXjy5wBqYOpDPGf9HiXjxYmWcFSMdZW1xwRADeglPymZjo-kbqUbw7sSpUAlFzH1UfjFfwx6z6IFYa7V2bZaUu8o1NDh6KurvHHOAj3iIurvWzq84Io5Ty8CANTE5QA-GUIwJ7VWhvF8yGvMIzKzXTeC9c-_G5uzmHuSxQFlU0U-hEPIEnF6E7MyKU-weVP5XnDVw-uW_t8PxplRYfqFUYCGbRn3zFMlut8LvgzHnn4NfVmUnolI-oqpua6ZrKve2dTJAyvJc_UIi3Ry_66pfHH3G44ZLt85x0nzvdrt6RrudEoPkAvcBHjQXv20OWGu4bRa-TEik2_A88sjwUNy0?></g></svg>