<?plantuml 1.2026.1?><svg xmlns="http://www.w3.org/2000/svg" xmlns:xlink="http://www.w3.org/1999/xlink" contentStyleType="text/css" data-diagram-type="SEQUENCE" height="2367px" preserveAspectRatio="none" style="width:1744px;height:2367px;background:#FFFFFF;" version="1.1" viewBox="0 0 1744 2367" width="1744px" zoomAndPan="magnify"><title>Sequence Diagram: Trigger Deployment &amp; Build Process (UC-05)</title><defs/><g><text fill="#000000" font-family="sans-serif" font-size="14" font-weight="bold" lengthAdjust="spacing" textLength="441.8383" x="647.1314" y="29.9659">Sequence Diagram: Trigger Deployment &amp; Build Process (UC-05)</text><rect fill="none" height="100.8241" style="stroke:#000000;stroke-width:1.5;" width="1188.7324" x="538.3686" y="335.0779"/><rect fill="none" height="569.1022" style="stroke:#000000;stroke-width:1.5;" width="776.8031" x="950.2979" y="1634.2607"/><g class="participant-lifeline" data-entity-uid="part1" data-qualified-name="U" id="part1-lifeline"><g><title>User</title><rect fill="#000000" fill-opacity="0.00000" height="2159.6391" width="8" x="19.3089" y="124.1358"/><line style="stroke:#181818;stroke-width:0.5;stroke-dasharray:5,5;" x1="23" x2="23" y1="124.1358" y2="2283.775"/></g></g><g class="participant-lifeline" data-entity-uid="part2" data-qualified-name="B" id="part2-lifeline"><g><title>Browser</title><rect fill="#000000" fill-opacity="0.00000" height="2159.6391" width="8" x="219.5111" y="124.1358"/><line style="stroke:#181818;stroke-width:0.5;stroke-dasharray:5,5;" x1="223.1412" x2="223.1412" y1="124.1358" y2="2283.775"/></g></g><g class="participant-lifeline" data-entity-uid="part3" data-qualified-name="PP" id="part3-lifeline"><g><title>Project Page</title><rect fill="#000000" fill-opacity="0.00000" height="2159.6391" width="8" x="354.0242" y="124.1358"/><line style="stroke:#181818;stroke-width:0.5;stroke-dasharray:5,5;" x1="357.7873" x2="357.7873" y1="124.1358" y2="2283.775"/></g></g><g class="participant-lifeline" data-entity-uid="part4" data-qualified-name="API" id="part4-lifeline"><g><title>POST .api.projects.</title><rect fill="#000000" fill-opacity="0.00000" height="2159.6391" width="8" x="615.9504" y="124.1358"/><line style="stroke:#181818;stroke-width:0.5;stroke-dasharray:5,5;" x1="619.3686" x2="619.3686" y1="124.1358" y2="2283.775"/></g></g><g class="participant-lifeline" data-entity-uid="part5" data-qualified-name="Q" id="part5-lifeline"><g><title>Build Queue</title><rect fill="#000000" fill-opacity="0.00000" height="2159.6391" width="8" x="818.8176" y="124.1358"/><line style="stroke:#181818;stroke-width:0.5;stroke-dasharray:5,5;" x1="822.1898" x2="822.1898" y1="124.1358" y2="2283.775"/></g></g><g class="participant-lifeline" data-entity-uid="part6" data-qualified-name="W" id="part6-lifeline"><g><title>Build Worker</title><rect fill="#000000" fill-opacity="0.00000" height="2159.6391" width="8" x="1006.1237" y="124.1358"/><line style="stroke:#181818;stroke-width:0.5;stroke-dasharray:5,5;" x1="1009.2979" x2="1009.2979" y1="124.1358" y2="2283.775"/></g></g><g class="participant-lifeline" data-entity-uid="part7" data-qualified-name="D" id="part7-lifeline"><g><title>Docker Engine</title><rect fill="#000000" fill-opacity="0.00000" height="2159.6391" width="8" x="1195.8739" y="124.1358"/><line style="stroke:#181818;stroke-width:0.5;stroke-dasharray:5,5;" x1="1199.1691" x2="1199.1691" y1="124.1358" y2="2283.775"/></g></g><g class="participant-lifeline" data-entity-uid="part8" data-qualified-name="LOG" id="part8-lifeline"><g><title>Build Logger</title><rect fill="#000000" fill-opacity="0.00000" height="2159.6391" width="8" x="1374.8701" y="124.1358"/><line style="stroke:#181818;stroke-width:0.5;stroke-dasharray:5,5;" x1="1378.7442" x2="1378.7442" y1="124.1358" y2="2283.775"/></g></g><g class="participant-lifeline" data-entity-uid="part9" data-qualified-name="MINIO" id="part9-lifeline"><g><title>Artifact Manager</title><rect fill="#000000" fill-opacity="0.00000" height="2159.6391" width="8" x="1503.4077" y="124.1358"/><line style="stroke:#181818;stroke-width:0.5;stroke-dasharray:5,5;" x1="1506.9959" x2="1506.9959" y1="124.1358" y2="2283.775"/></g></g><g class="participant-lifeline" data-entity-uid="part10" data-qualified-name="CAD" id="part10-lifeline"><g><title>Caddy</title><rect fill="#000000" fill-opacity="0.00000" height="2159.6391" width="8" x="1603.3504" y="124.1358"/><line style="stroke:#181818;stroke-width:0.5;stroke-dasharray:5,5;" x1="1606.8195" x2="1606.8195" y1="124.1358" y2="2283.775"/></g></g><g class="participant-lifeline" data-entity-uid="part11" data-qualified-name="DB" id="part11-lifeline"><g><title>MongoDB</title><rect fill="#000000" fill-opacity="0.00000" height="2159.6391" width="8" x="1676.9912" y="124.1358"/><line style="stroke:#181818;stroke-width:0.5;stroke-dasharray:5,5;" x1="1680.8813" x2="1680.8813" y1="124.1358" y2="2283.775"/></g></g><g class="participant participant-head" data-entity-uid="part1" data-qualified-name="U" id="part1-head"><text fill="#000000" font-family="sans-serif" font-size="14" lengthAdjust="spacing" textLength="30.6179" x="5" y="120.0339">User</text><ellipse cx="23.3089" cy="53.5679" fill="#E2E2F0" rx="8" ry="8" style="stroke:#181818;stroke-width:0.5;"/><path d="M23.3089,61.5679 L23.3089,88.5679 M10.3089,69.5679 L36.3089,69.5679 M23.3089,88.5679 L10.3089,103.5679 M23.3089,88.5679 L36.3089,103.5679" fill="none" style="stroke:#181818;stroke-width:0.5;"/></g><g class="participant participant-tail" data-entity-uid="part1" data-qualified-name="U" id="part1-tail"><text fill="#000000" font-family="sans-serif" font-size="14" lengthAdjust="spacing" textLength="30.6179" x="5" y="2297.7409">User</text><ellipse cx="23.3089" cy="2310.3429" fill="#E2E2F0" rx="8" ry="8" style="stroke:#181818;stroke-width:0.5;"/><path d="M23.3089,2318.3429 L23.3089,2345.3429 M10.3089,2326.3429 L36.3089,2326.3429 M23.3089,2345.3429 L10.3089,2360.3429 M23.3089,2345.3429 L36.3089,2360.3429" fill="none" style="stroke:#181818;stroke-width:0.5;"/></g><g class="participant participant-head" data-entity-uid="part2" data-qualified-name="B" id="part2-head"><rect fill="#E2E2F0" height="33.0679" rx="2.5" ry="2.5" style="stroke:#181818;stroke-width:0.5;" width="68.7398" x="189.1412" y="90.0679"/><text fill="#000000" font-family="sans-serif" font-size="14" lengthAdjust="spacing" textLength="54.7398" x="196.1412" y="112.0339">Browser</text></g><g class="participant participant-tail" data-entity-uid="part2" data-qualified-name="B" id="part2-tail"><rect fill="#E2E2F0" height="33.0679" rx="2.5" ry="2.5" style="stroke:#181818;stroke-width:0.5;" width="68.7398" x="189.1412" y="2282.775"/><text fill="#000000" font-family="sans-serif" font-size="14" lengthAdjust="spacing" textLength="54.7398" x="196.1412" y="2304.7409">Browser</text></g><g class="participant participant-head" data-entity-uid="part3" data-qualified-name="PP" id="part3-head"><rect fill="#E2E2F0" height="33.0679" rx="2.5" ry="2.5" style="stroke:#181818;stroke-width:0.5;" width="96.4737" x="309.7873" y="90.0679"/><text fill="#000000" font-family="sans-serif" font-size="14" lengthAdjust="spacing" textLength="82.4737" x="316.7873" y="112.0339">Project Page</text></g><g class="participant participant-tail" data-entity-uid="part3" data-qualified-name="PP" id="part3-tail"><rect fill="#E2E2F0" height="33.0679" rx="2.5" ry="2.5" style="stroke:#181818;stroke-width:0.5;" width="96.4737" x="309.7873" y="2282.775"/><text fill="#000000" font-family="sans-serif" font-size="14" lengthAdjust="spacing" textLength="82.4737" x="316.7873" y="2304.7409">Project Page</text></g><g class="participant participant-head" data-entity-uid="part4" data-qualified-name="API" id="part4-head"><rect fill="#E2E2F0" height="52.1358" rx="2.5" ry="2.5" style="stroke:#181818;stroke-width:0.5;" width="143.1635" x="548.3686" y="71"/><text fill="#000000" font-family="sans-serif" font-size="14" lengthAdjust="spacing" textLength="127.0635" x="556.4186" y="92.9659">POST /api/projects/</text><text fill="#000000" font-family="sans-serif" font-size="14" lengthAdjust="spacing" textLength="129.1635" x="555.3686" y="112.0339">{slug}/deployments</text></g><g class="participant participant-tail" data-entity-uid="part4" data-qualified-name="API" id="part4-tail"><rect fill="#E2E2F0" height="52.1358" rx="2.5" ry="2.5" style="stroke:#181818;stroke-width:0.5;" width="143.1635" x="548.3686" y="2282.775"/><text fill="#000000" font-family="sans-serif" font-size="14" lengthAdjust="spacing" textLength="127.0635" x="556.4186" y="2304.7409">POST /api/projects/</text><text fill="#000000" font-family="sans-serif" font-size="14" lengthAdjust="spacing" textLength="129.1635" x="555.3686" y="2323.8088">{slug}/deployments</text></g><g class="participant participant-head" data-entity-uid="part5" data-qualified-name="Q" id="part5-head"><rect fill="#E2E2F0" height="52.1358" rx="2.5" ry="2.5" style="stroke:#181818;stroke-width:0.5;" width="95.2557" x="775.1898" y="71"/><text fill="#000000" font-family="sans-serif" font-size="14" lengthAdjust="spacing" textLength="81.2557" x="782.1898" y="92.9659">Build Queue</text><text fill="#000000" font-family="sans-serif" font-size="14" lengthAdjust="spacing" textLength="57.0078" x="794.3137" y="112.0339">(BullMQ)</text></g><g class="participant participant-tail" data-entity-uid="part5" data-qualified-name="Q" id="part5-tail"><rect fill="#E2E2F0" height="52.1358" rx="2.5" ry="2.5" style="stroke:#181818;stroke-width:0.5;" width="95.2557" x="775.1898" y="2282.775"/><text fill="#000000" font-family="sans-serif" font-size="14" lengthAdjust="spacing" textLength="81.2557" x="782.1898" y="2304.7409">Build Queue</text><text fill="#000000" font-family="sans-serif" font-size="14" lengthAdjust="spacing" textLength="57.0078" x="794.3137" y="2323.8088">(BullMQ)</text></g><g class="participant participant-head" data-entity-uid="part6" data-qualified-name="W" id="part6-head"><rect fill="#E2E2F0" height="33.0679" rx="2.5" ry="2.5" style="stroke:#181818;stroke-width:0.5;" width="99.6517" x="960.2979" y="90.0679"/><text fill="#000000" font-family="sans-serif" font-size="14" lengthAdjust="spacing" textLength="85.6517" x="967.2979" y="112.0339">Build Worker</text></g><g class="participant participant-tail" data-entity-uid="part6" data-qualified-name="W" id="part6-tail"><rect fill="#E2E2F0" height="33.0679" rx="2.5" ry="2.5" style="stroke:#181818;stroke-width:0.5;" width="99.6517" x="960.2979" y="2282.775"/><text fill="#000000" font-family="sans-serif" font-size="14" lengthAdjust="spacing" textLength="85.6517" x="967.2979" y="2304.7409">Build Worker</text></g><g class="participant participant-head" data-entity-uid="part7" data-qualified-name="D" id="part7-head"><rect fill="#E2E2F0" height="33.0679" rx="2.5" ry="2.5" style="stroke:#181818;stroke-width:0.5;" width="109.4096" x="1145.1691" y="90.0679"/><text fill="#000000" font-family="sans-serif" font-size="14" lengthAdjust="spacing" textLength="95.4096" x="1152.1691" y="112.0339">Docker Engine</text></g><g class="participant participant-tail" data-entity-uid="part7" data-qualified-name="D" id="part7-tail"><rect fill="#E2E2F0" height="33.0679" rx="2.5" ry="2.5" style="stroke:#181818;stroke-width:0.5;" width="109.4096" x="1145.1691" y="2282.775"/><text fill="#000000" font-family="sans-serif" font-size="14" lengthAdjust="spacing" textLength="95.4096" x="1152.1691" y="2304.7409">Docker Engine</text></g><g class="participant participant-head" data-entity-uid="part8" data-qualified-name="LOG" id="part8-head"><rect fill="#E2E2F0" height="52.1358" rx="2.5" ry="2.5" style="stroke:#181818;stroke-width:0.5;" width="112.2516" x="1322.7442" y="71"/><text fill="#000000" font-family="sans-serif" font-size="14" lengthAdjust="spacing" textLength="83.9297" x="1336.9052" y="92.9659">Build Logger</text><text fill="#000000" font-family="sans-serif" font-size="14" lengthAdjust="spacing" textLength="98.2516" x="1329.7442" y="112.0339">(Redis PubSub)</text></g><g class="participant participant-tail" data-entity-uid="part8" data-qualified-name="LOG" id="part8-tail"><rect fill="#E2E2F0" height="52.1358" rx="2.5" ry="2.5" style="stroke:#181818;stroke-width:0.5;" width="112.2516" x="1322.7442" y="2282.775"/><text fill="#000000" font-family="sans-serif" font-size="14" lengthAdjust="spacing" textLength="83.9297" x="1336.9052" y="2304.7409">Build Logger</text><text fill="#000000" font-family="sans-serif" font-size="14" lengthAdjust="spacing" textLength="98.2516" x="1329.7442" y="2323.8088">(Redis PubSub)</text></g><g class="participant participant-head" data-entity-uid="part9" data-qualified-name="MINIO" id="part9-head"><rect fill="#E2E2F0" height="52.1358" rx="2.5" ry="2.5" style="stroke:#181818;stroke-width:0.5;" width="124.8236" x="1444.9959" y="71"/><text fill="#000000" font-family="sans-serif" font-size="14" lengthAdjust="spacing" textLength="110.8236" x="1451.9959" y="92.9659">Artifact Manager</text><text fill="#000000" font-family="sans-serif" font-size="14" lengthAdjust="spacing" textLength="49.0418" x="1482.8868" y="112.0339">(MinIO)</text></g><g class="participant participant-tail" data-entity-uid="part9" data-qualified-name="MINIO" id="part9-tail"><rect fill="#E2E2F0" height="52.1358" rx="2.5" ry="2.5" style="stroke:#181818;stroke-width:0.5;" width="124.8236" x="1444.9959" y="2282.775"/><text fill="#000000" font-family="sans-serif" font-size="14" lengthAdjust="spacing" textLength="110.8236" x="1451.9959" y="2304.7409">Artifact Manager</text><text fill="#000000" font-family="sans-serif" font-size="14" lengthAdjust="spacing" textLength="49.0418" x="1482.8868" y="2323.8088">(MinIO)</text></g><g class="participant participant-head" data-entity-uid="part10" data-qualified-name="CAD" id="part10-head"><rect fill="#E2E2F0" height="33.0679" rx="2.5" ry="2.5" style="stroke:#181818;stroke-width:0.5;" width="55.0618" x="1579.8195" y="90.0679"/><text fill="#000000" font-family="sans-serif" font-size="14" lengthAdjust="spacing" textLength="41.0618" x="1586.8195" y="112.0339">Caddy</text></g><g class="participant participant-tail" data-entity-uid="part10" data-qualified-name="CAD" id="part10-tail"><rect fill="#E2E2F0" height="33.0679" rx="2.5" ry="2.5" style="stroke:#181818;stroke-width:0.5;" width="55.0618" x="1579.8195" y="2282.775"/><text fill="#000000" font-family="sans-serif" font-size="14" lengthAdjust="spacing" textLength="41.0618" x="1586.8195" y="2304.7409">Caddy</text></g><g class="participant participant-head" data-entity-uid="part11" data-qualified-name="DB" id="part11-head"><text fill="#000000" font-family="sans-serif" font-size="14" lengthAdjust="spacing" textLength="66.2197" x="1644.8813" y="120.0339">MongoDB</text><path d="M1662.9912,69.0679 C1662.9912,59.0679 1680.9912,59.0679 1680.9912,59.0679 C1680.9912,59.0679 1698.9912,59.0679 1698.9912,69.0679 L1698.9912,95.0679 C1698.9912,105.0679 1680.9912,105.0679 1680.9912,105.0679 C1680.9912,105.0679 1662.9912,105.0679 1662.9912,95.0679 L1662.9912,69.0679" fill="#E2E2F0" style="stroke:#181818;stroke-width:0.5;"/><path d="M1662.9912,69.0679 C1662.9912,79.0679 1680.9912,79.0679 1680.9912,79.0679 C1680.9912,79.0679 1698.9912,79.0679 1698.9912,69.0679" fill="none" style="stroke:#181818;stroke-width:0.5;"/></g><g class="participant participant-tail" data-entity-uid="part11" data-qualified-name="DB" id="part11-tail"><text fill="#000000" font-family="sans-serif" font-size="14" lengthAdjust="spacing" textLength="66.2197" x="1644.8813" y="2297.7409">MongoDB</text><path d="M1662.9912,2311.8429 C1662.9912,2301.8429 1680.9912,2301.8429 1680.9912,2301.8429 C1680.9912,2301.8429 1698.9912,2301.8429 1698.9912,2311.8429 L1698.9912,2337.8429 C1698.9912,2347.8429 1680.9912,2347.8429 1680.9912,2347.8429 C1680.9912,2347.8429 1662.9912,2347.8429 1662.9912,2337.8429 L1662.9912,2311.8429" fill="#E2E2F0" style="stroke:#181818;stroke-width:0.5;"/><path d="M1662.9912,2311.8429 C1662.9912,2321.8429 1680.9912,2321.8429 1680.9912,2321.8429 C1680.9912,2321.8429 1698.9912,2321.8429 1698.9912,2311.8429" fill="none" style="stroke:#181818;stroke-width:0.5;"/></g><g class="message" data-entity-1="part1" data-entity-2="part3" id="msg1"><polygon fill="#181818" points="346.0242,153.8419,356.0242,157.8419,346.0242,161.8419,350.0242,157.8419" style="stroke:#181818;stroke-width:1;"/><line style="stroke:#181818;stroke-width:1;" x1="23.3089" x2="352.0242" y1="157.8419" y2="157.8419"/><text fill="#000000" font-family="sans-serif" font-size="13" lengthAdjust="spacing" textLength="129.4541" x="30.3089" y="152.0328">Click "Deploy" button</text></g><g class="message" data-entity-1="part3" data-entity-2="part4" id="msg2"><polygon fill="#181818" points="607.9504,185.5479,617.9504,189.5479,607.9504,193.5479,611.9504,189.5479" style="stroke:#181818;stroke-width:1;"/><line style="stroke:#181818;stroke-width:1;" x1="358.0242" x2="613.9504" y1="189.5479" y2="189.5479"/><text fill="#000000" font-family="sans-serif" font-size="13" lengthAdjust="spacing" textLength="237.9262" x="365.0242" y="183.7389">POST /api/projects/{slug}/deployments</text></g><g class="message" data-entity-1="part4" data-entity-2="part11" id="msg3"><polygon fill="#181818" points="1668.9912,234.9599,1678.9912,238.9599,1668.9912,242.9599,1672.9912,238.9599" style="stroke:#181818;stroke-width:1;"/><line style="stroke:#181818;stroke-width:1;" x1="619.9504" x2="1674.9912" y1="238.9599" y2="238.9599"/><text fill="#000000" font-family="sans-serif" font-size="13" lengthAdjust="spacing" textLength="119.3531" x="626.9504" y="215.4449">Find project by slug</text><text fill="#000000" font-family="sans-serif" font-size="13" lengthAdjust="spacing" textLength="115.0111" x="626.9504" y="233.1509">(with userId check)</text></g><g class="message" data-entity-1="part11" data-entity-2="part4" id="msg4"><polygon fill="#181818" points="630.9504,266.6659,620.9504,270.6659,630.9504,274.6659,626.9504,270.6659" style="stroke:#181818;stroke-width:1;"/><line style="stroke:#181818;stroke-width:1;stroke-dasharray:2,2;" x1="624.9504" x2="1679.9912" y1="270.6659" y2="270.6659"/><text fill="#000000" font-family="sans-serif" font-size="13" lengthAdjust="spacing" textLength="108.4461" x="636.9504" y="264.8569">Project document</text></g><g class="message" data-entity-1="part4" data-entity-2="part11" id="msg5"><polygon fill="#181818" points="1668.9912,316.0779,1678.9912,320.0779,1668.9912,324.0779,1672.9912,320.0779" style="stroke:#181818;stroke-width:1;"/><line style="stroke:#181818;stroke-width:1;" x1="619.9504" x2="1674.9912" y1="320.0779" y2="320.0779"/><text fill="#000000" font-family="sans-serif" font-size="13" lengthAdjust="spacing" textLength="124.5401" x="626.9504" y="296.5629">Get project gitToken</text><text fill="#000000" font-family="sans-serif" font-size="13" lengthAdjust="spacing" textLength="116.5711" x="626.9504" y="314.2689">(select: '+gitToken')</text></g><path d="M538.3686,335.0779 L600.6717,335.0779 L600.6717,344.784 L590.6717,354.784 L538.3686,354.784 L538.3686,335.0779" fill="#EEEEEE" style="stroke:#000000;stroke-width:1.5;"/><rect fill="none" height="100.8241" style="stroke:#000000;stroke-width:1.5;" width="1188.7324" x="538.3686" y="335.0779"/><text fill="#000000" font-family="sans-serif" font-size="13" font-weight="bold" lengthAdjust="spacing" textLength="17.303" x="553.3686" y="349.975">alt</text><text fill="#000000" font-family="sans-serif" font-size="11" font-weight="bold" lengthAdjust="spacing" textLength="88.6484" x="615.6717" y="348.8369">[No project PAT]</text><g class="message" data-entity-1="part4" data-entity-2="part11" id="msg6"><polygon fill="#181818" points="1668.9912,392.196,1678.9912,396.196,1668.9912,400.196,1672.9912,396.196" style="stroke:#181818;stroke-width:1;"/><line style="stroke:#181818;stroke-width:1;" x1="619.9504" x2="1674.9912" y1="396.196" y2="396.196"/><text fill="#000000" font-family="sans-serif" font-size="13" lengthAdjust="spacing" textLength="173.2902" x="626.9504" y="372.681">Get user githubAccessToken</text><text fill="#000000" font-family="sans-serif" font-size="13" lengthAdjust="spacing" textLength="181.2072" x="626.9504" y="390.387">(select: '+githubAccessToken')</text></g><g class="message" data-entity-1="part11" data-entity-2="part4" id="msg7"><polygon fill="#181818" points="630.9504,423.902,620.9504,427.902,630.9504,431.902,626.9504,427.902" style="stroke:#181818;stroke-width:1;"/><line style="stroke:#181818;stroke-width:1;stroke-dasharray:2,2;" x1="624.9504" x2="1679.9912" y1="427.902" y2="427.902"/><text fill="#000000" font-family="sans-serif" font-size="13" lengthAdjust="spacing" textLength="122.3821" x="636.9504" y="422.093">User's GitHub token</text></g><g class="message" data-entity-1="part4" data-entity-2="part11" id="msg8"><polygon fill="#181818" points="1668.9912,480.314,1678.9912,484.314,1668.9912,488.314,1672.9912,484.314" style="stroke:#181818;stroke-width:1;"/><line style="stroke:#181818;stroke-width:1;" x1="619.9504" x2="1674.9912" y1="484.314" y2="484.314"/><text fill="#000000" font-family="sans-serif" font-size="13" lengthAdjust="spacing" textLength="118.4951" x="626.9504" y="460.799">Create Deployment</text><text fill="#000000" font-family="sans-serif" font-size="13" lengthAdjust="spacing" textLength="104.4031" x="626.9504" y="478.505">(status: 'queued')</text></g><g class="message" data-entity-1="part11" data-entity-2="part4" id="msg9"><polygon fill="#181818" points="630.9504,512.0201,620.9504,516.0201,630.9504,520.0201,626.9504,516.0201" style="stroke:#181818;stroke-width:1;"/><line style="stroke:#181818;stroke-width:1;stroke-dasharray:2,2;" x1="624.9504" x2="1679.9912" y1="516.0201" y2="516.0201"/><text fill="#000000" font-family="sans-serif" font-size="13" lengthAdjust="spacing" textLength="124.5141" x="636.9504" y="510.2111">Deployment created</text></g><g class="message" data-entity-1="part4" data-entity-2="part5" id="msg10"><polygon fill="#181818" points="810.8176,543.7261,820.8176,547.7261,810.8176,551.7261,814.8176,547.7261" style="stroke:#181818;stroke-width:1;"/><line style="stroke:#181818;stroke-width:1;" x1="619.9504" x2="816.8176" y1="547.7261" y2="547.7261"/><text fill="#000000" font-family="sans-serif" font-size="13" lengthAdjust="spacing" textLength="178.8672" x="626.9504" y="541.9171">enqueueBuild(deploymentId)</text></g><g class="message" data-entity-1="part5" data-entity-2="part4" id="msg11"><polygon fill="#181818" points="630.9504,575.4321,620.9504,579.4321,630.9504,583.4321,626.9504,579.4321" style="stroke:#181818;stroke-width:1;"/><line style="stroke:#181818;stroke-width:1;stroke-dasharray:2,2;" x1="624.9504" x2="821.8176" y1="579.4321" y2="579.4321"/><text fill="#000000" font-family="sans-serif" font-size="13" lengthAdjust="spacing" textLength="84.8771" x="636.9504" y="573.6231">Job enqueued</text></g><g class="message" data-entity-1="part4" data-entity-2="part3" id="msg12"><polygon fill="#181818" points="369.0242,607.1381,359.0242,611.1381,369.0242,615.1381,365.0242,611.1381" style="stroke:#181818;stroke-width:1;"/><line style="stroke:#181818;stroke-width:1;stroke-dasharray:2,2;" x1="363.0242" x2="618.9504" y1="611.1381" y2="611.1381"/><text fill="#000000" font-family="sans-serif" font-size="13" lengthAdjust="spacing" textLength="108.9531" x="375.0242" y="605.3291">201 {deployment}</text></g><g class="message" data-entity-1="part3" data-entity-2="part2" id="msg13"><polygon fill="#181818" points="234.5111,656.5501,224.5111,660.5501,234.5111,664.5501,230.5111,660.5501" style="stroke:#181818;stroke-width:1;"/><line style="stroke:#181818;stroke-width:1;" x1="228.5111" x2="357.0242" y1="660.5501" y2="660.5501"/><text fill="#000000" font-family="sans-serif" font-size="13" lengthAdjust="spacing" textLength="70.382" x="240.5111" y="637.0351">Navigate to</text><text fill="#000000" font-family="sans-serif" font-size="13" lengthAdjust="spacing" textLength="110.5131" x="240.5111" y="654.7411">/deployments/{id}</text></g><g class="message" data-entity-1="part2" data-entity-2="part1" id="msg14"><polygon fill="#181818" points="34.3089,688.2562,24.3089,692.2562,34.3089,696.2562,30.3089,692.2562" style="stroke:#181818;stroke-width:1;"/><line style="stroke:#181818;stroke-width:1;stroke-dasharray:2,2;" x1="28.3089" x2="222.5111" y1="692.2562" y2="692.2562"/><text fill="#000000" font-family="sans-serif" font-size="13" lengthAdjust="spacing" textLength="176.2021" x="40.3089" y="686.4472">Show deployment log viewer</text></g><rect fill="#EEEEEE" height="3" style="stroke:#EEEEEE;stroke-width:1;" width="1737.101" x="0" y="722.1092"/><line style="stroke:#000000;stroke-width:1;" x1="0" x2="1737.101" y1="722.1092" y2="722.1092"/><line style="stroke:#000000;stroke-width:1;" x1="0" x2="1737.101" y1="725.1092" y2="725.1092"/><rect fill="#EEEEEE" height="25.706" style="stroke:#000000;stroke-width:2;" width="144.8451" x="796.128" y="710.2562"/><text fill="#000000" font-family="sans-serif" font-size="13" font-weight="bold" lengthAdjust="spacing" textLength="127.4651" x="802.128" y="728.1532">Async Build Process</text><g class="message" data-entity-1="part5" data-entity-2="part6" id="msg15"><polygon fill="#181818" points="998.1237,765.6682,1008.1237,769.6682,998.1237,773.6682,1002.1237,769.6682" style="stroke:#181818;stroke-width:1;"/><line style="stroke:#181818;stroke-width:1;" x1="822.8176" x2="1004.1237" y1="769.6682" y2="769.6682"/><text fill="#000000" font-family="sans-serif" font-size="13" lengthAdjust="spacing" textLength="163.3062" x="829.8176" y="763.8592">Process job(deploymentId)</text></g><g class="message" data-entity-1="part6" data-entity-2="part11" id="msg16"><polygon fill="#181818" points="1668.9912,797.3742,1678.9912,801.3742,1668.9912,805.3742,1672.9912,801.3742" style="stroke:#181818;stroke-width:1;"/><line style="stroke:#181818;stroke-width:1;" x1="1010.1237" x2="1674.9912" y1="801.3742" y2="801.3742"/><text fill="#000000" font-family="sans-serif" font-size="13" lengthAdjust="spacing" textLength="102.8951" x="1017.1237" y="795.5652">Find deployment</text></g><g class="message" data-entity-1="part11" data-entity-2="part6" id="msg17"><polygon fill="#181818" points="1021.1237,829.0802,1011.1237,833.0802,1021.1237,837.0802,1017.1237,833.0802" style="stroke:#181818;stroke-width:1;"/><line style="stroke:#181818;stroke-width:1;stroke-dasharray:2,2;" x1="1015.1237" x2="1679.9912" y1="833.0802" y2="833.0802"/><text fill="#000000" font-family="sans-serif" font-size="13" lengthAdjust="spacing" textLength="140.6081" x="1027.1237" y="827.2712">Deployment document</text></g><g class="message" data-entity-1="part6" data-entity-2="part11" id="msg18"><polygon fill="#181818" points="1668.9912,860.7862,1678.9912,864.7862,1668.9912,868.7862,1672.9912,864.7862" style="stroke:#181818;stroke-width:1;"/><line style="stroke:#181818;stroke-width:1;" x1="1010.1237" x2="1674.9912" y1="864.7862" y2="864.7862"/><text fill="#000000" font-family="sans-serif" font-size="13" lengthAdjust="spacing" textLength="148.1872" x="1017.1237" y="858.9772">Update status: 'building'</text></g><g class="message" data-entity-1="part6" data-entity-2="part8" id="msg19"><polygon fill="#181818" points="1366.8701,892.4923,1376.8701,896.4923,1366.8701,900.4923,1370.8701,896.4923" style="stroke:#181818;stroke-width:1;"/><line style="stroke:#181818;stroke-width:1;" x1="1010.1237" x2="1372.8701" y1="896.4923" y2="896.4923"/><text fill="#000000" font-family="sans-serif" font-size="13" lengthAdjust="spacing" textLength="146.8352" x="1017.1237" y="890.6833">publishStatus('building')</text></g><g class="message" data-entity-1="part8" data-entity-2="part2" id="msg20"><polygon fill="#181818" points="234.5111,924.1983,224.5111,928.1983,234.5111,932.1983,230.5111,928.1983" style="stroke:#181818;stroke-width:1;"/><line style="stroke:#181818;stroke-width:1;stroke-dasharray:2,2;" x1="228.5111" x2="1377.8701" y1="928.1983" y2="928.1983"/><text fill="#000000" font-family="sans-serif" font-size="13" lengthAdjust="spacing" textLength="158.5612" x="240.5111" y="922.3893">Status update (via polling)</text></g><g class="message" data-entity-1="part6" data-entity-2="part7" id="msg21"><polygon fill="#181818" points="1187.8739,973.6103,1197.8739,977.6103,1187.8739,981.6103,1191.8739,977.6103" style="stroke:#181818;stroke-width:1;"/><line style="stroke:#181818;stroke-width:1;" x1="1010.1237" x2="1193.8739" y1="977.6103" y2="977.6103"/><text fill="#000000" font-family="sans-serif" font-size="13" lengthAdjust="spacing" textLength="101.8291" x="1017.1237" y="954.0953">Create container</text><text fill="#000000" font-family="sans-serif" font-size="13" lengthAdjust="spacing" textLength="98.9301" x="1017.1237" y="971.8013">(node:20-alpine)</text></g><path d="M1204,990.6103 L1204,1123.6103 L1390,1123.6103 L1390,1000.6103 L1380,990.6103 L1204,990.6103" fill="#FEFFDD" style="stroke:#181818;stroke-width:0.5;"/><path d="M1380,990.6103 L1380,1000.6103 L1390,1000.6103 L1380,990.6103" fill="#FEFFDD" style="stroke:#181818;stroke-width:0.5;"/><text fill="#000000" font-family="sans-serif" font-size="13" lengthAdjust="spacing" textLength="105.0141" x="1210" y="1009.5073">Container config:</text><text fill="#000000" font-family="sans-serif" font-size="13" lengthAdjust="spacing" textLength="108.1211" x="1210" y="1027.2133">- Memory: 512MB</text><text fill="#000000" font-family="sans-serif" font-size="13" lengthAdjust="spacing" textLength="77.6361" x="1210" y="1044.9194">- CPU: 1 core</text><text fill="#000000" font-family="sans-serif" font-size="13" lengthAdjust="spacing" textLength="116.3371" x="1210" y="1062.6254">- no-new-privileges</text><text fill="#000000" font-family="sans-serif" font-size="13" lengthAdjust="spacing" textLength="154.6482" x="1210" y="1080.3314">- Optional gVisor runtime</text><text fill="#000000" font-family="sans-serif" font-size="13" lengthAdjust="spacing" textLength="165.4122" x="1210" y="1098.0374">- GIT_AUTH_TOKEN env var</text><text fill="#000000" font-family="sans-serif" font-size="13" lengthAdjust="spacing" textLength="140.8161" x="1210" y="1115.7434">- ENV vars from project</text><g class="message" data-entity-1="part7" data-entity-2="part6" id="msg22"><polygon fill="#181818" points="1021.1237,1149.2584,1011.1237,1153.2584,1021.1237,1157.2584,1017.1237,1153.2584" style="stroke:#181818;stroke-width:1;"/><line style="stroke:#181818;stroke-width:1;stroke-dasharray:2,2;" x1="1015.1237" x2="1198.8739" y1="1153.2584" y2="1153.2584"/><text fill="#000000" font-family="sans-serif" font-size="13" lengthAdjust="spacing" textLength="77.4671" x="1027.1237" y="1147.4494">Container ID</text></g><g class="message" data-entity-1="part6" data-entity-2="part7" id="msg23"><polygon fill="#181818" points="1187.8739,1180.9645,1197.8739,1184.9645,1187.8739,1188.9645,1191.8739,1184.9645" style="stroke:#181818;stroke-width:1;"/><line style="stroke:#181818;stroke-width:1;" x1="1010.1237" x2="1193.8739" y1="1184.9645" y2="1184.9645"/><text fill="#000000" font-family="sans-serif" font-size="13" lengthAdjust="spacing" textLength="90.7791" x="1017.1237" y="1179.1555">Start container</text></g><g class="message" data-entity-1="part7" data-entity-2="part7" id="msg24"><line style="stroke:#181818;stroke-width:1;" x1="1199.8739" x2="1241.8739" y1="1322.9066" y2="1322.9066"/><line style="stroke:#181818;stroke-width:1;" x1="1241.8739" x2="1241.8739" y1="1322.9066" y2="1335.9066"/><line style="stroke:#181818;stroke-width:1;" x1="1200.8739" x2="1241.8739" y1="1335.9066" y2="1335.9066"/><polygon fill="#181818" points="1210.8739,1331.9066,1200.8739,1335.9066,1210.8739,1339.9066,1206.8739,1335.9066" style="stroke:#181818;stroke-width:1;"/><text fill="#000000" font-family="sans-serif" font-size="13" lengthAdjust="spacing" textLength="122.5901" x="1206.8739" y="1210.8615">Execute build script:</text><text fill="#000000" font-family="sans-serif" font-size="13" lengthAdjust="spacing" textLength="139.4901" x="1206.8739" y="1228.5675">1. Install git (if needed)</text><text fill="#000000" font-family="sans-serif" font-size="13" lengthAdjust="spacing" textLength="164.9962" x="1206.8739" y="1246.2735">2. Configure git credentials</text><text fill="#000000" font-family="sans-serif" font-size="13" lengthAdjust="spacing" textLength="164.5932" x="1206.8739" y="1263.9795">3. git clone {repo} {branch}</text><text fill="#000000" font-family="sans-serif" font-size="13" lengthAdjust="spacing" textLength="60.4761" x="1206.8739" y="1281.6855">4. cd repo</text><text fill="#000000" font-family="sans-serif" font-size="13" lengthAdjust="spacing" textLength="82.1731" x="1206.8739" y="1299.3916">5. npm install</text><text fill="#000000" font-family="sans-serif" font-size="13" lengthAdjust="spacing" textLength="101.4131" x="1206.8739" y="1317.0976">6. npm run build</text></g><g class="message" data-entity-1="part6" data-entity-2="part7" id="msg25"><polygon fill="#181818" points="1187.8739,1381.3186,1197.8739,1385.3186,1187.8739,1389.3186,1191.8739,1385.3186" style="stroke:#181818;stroke-width:1;"/><line style="stroke:#181818;stroke-width:1;" x1="1010.1237" x2="1193.8739" y1="1385.3186" y2="1385.3186"/><text fill="#000000" font-family="sans-serif" font-size="13" lengthAdjust="spacing" textLength="148.6551" x="1017.1237" y="1361.8036">Stream multiplexed logs</text><text fill="#000000" font-family="sans-serif" font-size="13" lengthAdjust="spacing" textLength="89.1281" x="1017.1237" y="1379.5096">(stdout/stderr)</text></g><g class="message" data-entity-1="part7" data-entity-2="part6" id="msg26"><polygon fill="#181818" points="1021.1237,1413.0246,1011.1237,1417.0246,1021.1237,1421.0246,1017.1237,1417.0246" style="stroke:#181818;stroke-width:1;"/><line style="stroke:#181818;stroke-width:1;stroke-dasharray:2,2;" x1="1015.1237" x2="1198.8739" y1="1417.0246" y2="1417.0246"/><text fill="#000000" font-family="sans-serif" font-size="13" lengthAdjust="spacing" textLength="165.7502" x="1027.1237" y="1411.2156">Log chunks (8-byte header)</text></g><g class="message" data-entity-1="part6" data-entity-2="part6" id="msg27"><line style="stroke:#181818;stroke-width:1;" x1="1010.1237" x2="1052.1237" y1="1466.4367" y2="1466.4367"/><line style="stroke:#181818;stroke-width:1;" x1="1052.1237" x2="1052.1237" y1="1466.4367" y2="1479.4367"/><line style="stroke:#181818;stroke-width:1;" x1="1011.1237" x2="1052.1237" y1="1479.4367" y2="1479.4367"/><polygon fill="#181818" points="1021.1237,1475.4367,1011.1237,1479.4367,1021.1237,1483.4367,1017.1237,1479.4367" style="stroke:#181818;stroke-width:1;"/><text fill="#000000" font-family="sans-serif" font-size="13" lengthAdjust="spacing" textLength="127.1531" x="1017.1237" y="1442.9216">Parse Docker stream</text><text fill="#000000" font-family="sans-serif" font-size="13" lengthAdjust="spacing" textLength="134.9011" x="1017.1237" y="1460.6277">(demux stdout/stderr)</text></g><g class="message" data-entity-1="part6" data-entity-2="part6" id="msg28"><line style="stroke:#181818;stroke-width:1;" x1="1010.1237" x2="1052.1237" y1="1511.1427" y2="1511.1427"/><line style="stroke:#181818;stroke-width:1;" x1="1052.1237" x2="1052.1237" y1="1511.1427" y2="1524.1427"/><line style="stroke:#181818;stroke-width:1;" x1="1011.1237" x2="1052.1237" y1="1524.1427" y2="1524.1427"/><polygon fill="#181818" points="1021.1237,1520.1427,1011.1237,1524.1427,1021.1237,1528.1427,1017.1237,1524.1427" style="stroke:#181818;stroke-width:1;"/><text fill="#000000" font-family="sans-serif" font-size="13" lengthAdjust="spacing" textLength="149.2271" x="1017.1237" y="1505.3337">sanitize(logLine, secrets)</text></g><g class="message" data-entity-1="part6" data-entity-2="part8" id="msg29"><polygon fill="#181818" points="1366.8701,1551.8487,1376.8701,1555.8487,1366.8701,1559.8487,1370.8701,1555.8487" style="stroke:#181818;stroke-width:1;"/><line style="stroke:#181818;stroke-width:1;" x1="1010.1237" x2="1372.8701" y1="1555.8487" y2="1555.8487"/><text fill="#000000" font-family="sans-serif" font-size="13" lengthAdjust="spacing" textLength="147.4722" x="1017.1237" y="1550.0397">publishLog(stream, line)</text></g><g class="message" data-entity-1="part6" data-entity-2="part11" id="msg30"><polygon fill="#181818" points="1668.9912,1583.5547,1678.9912,1587.5547,1668.9912,1591.5547,1672.9912,1587.5547" style="stroke:#181818;stroke-width:1;"/><line style="stroke:#181818;stroke-width:1;" x1="1010.1237" x2="1674.9912" y1="1587.5547" y2="1587.5547"/><text fill="#000000" font-family="sans-serif" font-size="13" lengthAdjust="spacing" textLength="135.1612" x="1017.1237" y="1581.7457">Append to buildLogs[]</text></g><g class="message" data-entity-1="part8" data-entity-2="part2" id="msg31"><polygon fill="#181818" points="234.5111,1615.2607,224.5111,1619.2607,234.5111,1623.2607,230.5111,1619.2607" style="stroke:#181818;stroke-width:1;"/><line style="stroke:#181818;stroke-width:1;stroke-dasharray:2,2;" x1="228.5111" x2="1377.8701" y1="1619.2607" y2="1619.2607"/><text fill="#000000" font-family="sans-serif" font-size="13" lengthAdjust="spacing" textLength="142.1552" x="240.5111" y="1613.4517">Log entries (via polling)</text></g><path d="M950.2979,1634.2607 L1012.6009,1634.2607 L1012.6009,1643.9667 L1002.6009,1653.9667 L950.2979,1653.9667 L950.2979,1634.2607" fill="#EEEEEE" style="stroke:#000000;stroke-width:1.5;"/><rect fill="none" height="569.1022" style="stroke:#000000;stroke-width:1.5;" width="776.8031" x="950.2979" y="1634.2607"/><text fill="#000000" font-family="sans-serif" font-size="13" font-weight="bold" lengthAdjust="spacing" textLength="17.303" x="965.2979" y="1649.1577">alt</text><text fill="#000000" font-family="sans-serif" font-size="11" font-weight="bold" lengthAdjust="spacing" textLength="87.7574" x="1027.6009" y="1648.0196">[Build succeeds]</text><g class="message" data-entity-1="part6" data-entity-2="part7" id="msg32"><polygon fill="#181818" points="1187.8739,1691.3788,1197.8739,1695.3788,1187.8739,1699.3788,1191.8739,1695.3788" style="stroke:#181818;stroke-width:1;"/><line style="stroke:#181818;stroke-width:1;" x1="1010.1237" x2="1193.8739" y1="1695.3788" y2="1695.3788"/><text fill="#000000" font-family="sans-serif" font-size="13" lengthAdjust="spacing" textLength="136.4481" x="1017.1237" y="1671.8638">Copy /app/{outputDir}</text><text fill="#000000" font-family="sans-serif" font-size="13" lengthAdjust="spacing" textLength="129.0901" x="1017.1237" y="1689.5698">from container as tar</text></g><g class="message" data-entity-1="part7" data-entity-2="part6" id="msg33"><polygon fill="#181818" points="1021.1237,1723.0848,1011.1237,1727.0848,1021.1237,1731.0848,1017.1237,1727.0848" style="stroke:#181818;stroke-width:1;"/><line style="stroke:#181818;stroke-width:1;stroke-dasharray:2,2;" x1="1015.1237" x2="1198.8739" y1="1727.0848" y2="1727.0848"/><text fill="#000000" font-family="sans-serif" font-size="13" lengthAdjust="spacing" textLength="108.5501" x="1027.1237" y="1721.2758">Tar archive buffer</text></g><g class="message" data-entity-1="part6" data-entity-2="part7" id="msg34"><polygon fill="#181818" points="1187.8739,1754.7908,1197.8739,1758.7908,1187.8739,1762.7908,1191.8739,1758.7908" style="stroke:#181818;stroke-width:1;"/><line style="stroke:#181818;stroke-width:1;" x1="1010.1237" x2="1193.8739" y1="1758.7908" y2="1758.7908"/><text fill="#000000" font-family="sans-serif" font-size="13" lengthAdjust="spacing" textLength="110.9681" x="1017.1237" y="1752.9818">Remove container</text></g><g class="message" data-entity-1="part6" data-entity-2="part9" id="msg35"><polygon fill="#181818" points="1495.4077,1804.2028,1505.4077,1808.2028,1495.4077,1812.2028,1499.4077,1808.2028" style="stroke:#181818;stroke-width:1;"/><line style="stroke:#181818;stroke-width:1;" x1="1010.1237" x2="1501.4077" y1="1808.2028" y2="1808.2028"/><text fill="#000000" font-family="sans-serif" font-size="13" lengthAdjust="spacing" textLength="90.7921" x="1017.1237" y="1784.6878">Upload artifact</text><text fill="#000000" font-family="sans-serif" font-size="13" lengthAdjust="spacing" textLength="162.7731" x="1017.1237" y="1802.3938">(artifacts/{deploymentId}/)</text></g><g class="message" data-entity-1="part9" data-entity-2="part6" id="msg36"><polygon fill="#181818" points="1021.1237,1835.9089,1011.1237,1839.9089,1021.1237,1843.9089,1017.1237,1839.9089" style="stroke:#181818;stroke-width:1;"/><line style="stroke:#181818;stroke-width:1;stroke-dasharray:2,2;" x1="1015.1237" x2="1506.4077" y1="1839.9089" y2="1839.9089"/><text fill="#000000" font-family="sans-serif" font-size="13" lengthAdjust="spacing" textLength="75.8161" x="1027.1237" y="1834.0999">Artifact path</text></g><g class="message" data-entity-1="part6" data-entity-2="part11" id="msg37"><polygon fill="#181818" points="1668.9912,1885.3209,1678.9912,1889.3209,1668.9912,1893.3209,1672.9912,1889.3209" style="stroke:#181818;stroke-width:1;"/><line style="stroke:#181818;stroke-width:1;" x1="1010.1237" x2="1674.9912" y1="1889.3209" y2="1889.3209"/><text fill="#000000" font-family="sans-serif" font-size="13" lengthAdjust="spacing" textLength="167.5312" x="1017.1237" y="1865.8059">Update: status='uploading',</text><text fill="#000000" font-family="sans-serif" font-size="13" lengthAdjust="spacing" textLength="71.2921" x="1017.1237" y="1883.5119">artifactPath</text></g><g class="message" data-entity-1="part6" data-entity-2="part8" id="msg38"><polygon fill="#181818" points="1366.8701,1917.0269,1376.8701,1921.0269,1366.8701,1925.0269,1370.8701,1921.0269" style="stroke:#181818;stroke-width:1;"/><line style="stroke:#181818;stroke-width:1;" x1="1010.1237" x2="1372.8701" y1="1921.0269" y2="1921.0269"/><text fill="#000000" font-family="sans-serif" font-size="13" lengthAdjust="spacing" textLength="158.6392" x="1017.1237" y="1915.2179">publishStatus('uploading')</text></g><g class="message" data-entity-1="part6" data-entity-2="part10" id="msg39"><polygon fill="#181818" points="1595.3504,1966.4389,1605.3504,1970.4389,1595.3504,1974.4389,1599.3504,1970.4389" style="stroke:#181818;stroke-width:1;"/><line style="stroke:#181818;stroke-width:1;" x1="1010.1237" x2="1601.3504" y1="1970.4389" y2="1970.4389"/><text fill="#000000" font-family="sans-serif" font-size="13" lengthAdjust="spacing" textLength="64.4541" x="1017.1237" y="1946.9239">Add route:</text><text fill="#000000" font-family="sans-serif" font-size="13" lengthAdjust="spacing" textLength="151.6712" x="1017.1237" y="1964.6299">{slug}.{domain} -&gt; MinIO</text></g><g class="message" data-entity-1="part10" data-entity-2="part6" id="msg40"><polygon fill="#181818" points="1021.1237,1998.145,1011.1237,2002.145,1021.1237,2006.145,1017.1237,2002.145" style="stroke:#181818;stroke-width:1;"/><line style="stroke:#181818;stroke-width:1;stroke-dasharray:2,2;" x1="1015.1237" x2="1606.3504" y1="2002.145" y2="2002.145"/><text fill="#000000" font-family="sans-serif" font-size="13" lengthAdjust="spacing" textLength="106.0801" x="1027.1237" y="1996.336">Route configured</text></g><g class="message" data-entity-1="part6" data-entity-2="part11" id="msg41"><polygon fill="#181818" points="1668.9912,2029.851,1678.9912,2033.851,1668.9912,2037.851,1672.9912,2033.851" style="stroke:#181818;stroke-width:1;"/><line style="stroke:#181818;stroke-width:1;" x1="1010.1237" x2="1674.9912" y1="2033.851" y2="2033.851"/><text fill="#000000" font-family="sans-serif" font-size="13" lengthAdjust="spacing" textLength="136.7471" x="1017.1237" y="2028.042">Update: status='ready'</text></g><g class="message" data-entity-1="part6" data-entity-2="part8" id="msg42"><polygon fill="#181818" points="1366.8701,2061.557,1376.8701,2065.557,1366.8701,2069.557,1370.8701,2065.557" style="stroke:#181818;stroke-width:1;"/><line style="stroke:#181818;stroke-width:1;" x1="1010.1237" x2="1372.8701" y1="2065.557" y2="2065.557"/><text fill="#000000" font-family="sans-serif" font-size="13" lengthAdjust="spacing" textLength="131.3391" x="1017.1237" y="2059.748">publishStatus('ready')</text></g><line style="stroke:#000000;stroke-width:1;stroke-dasharray:2,2;" x1="950.2979" x2="1727.101" y1="2074.557" y2="2074.557"/><text fill="#000000" font-family="sans-serif" font-size="11" font-weight="bold" lengthAdjust="spacing" textLength="61.0605" x="955.2979" y="2086.3159">[Build fails]</text><g class="message" data-entity-1="part6" data-entity-2="part7" id="msg43"><polygon fill="#181818" points="1187.8739,2110.2449,1197.8739,2114.2449,1187.8739,2118.2449,1191.8739,2114.2449" style="stroke:#181818;stroke-width:1;"/><line style="stroke:#181818;stroke-width:1;" x1="1010.1237" x2="1193.8739" y1="2114.2449" y2="2114.2449"/><text fill="#000000" font-family="sans-serif" font-size="13" lengthAdjust="spacing" textLength="110.9681" x="1017.1237" y="2108.4359">Remove container</text></g><g class="message" data-entity-1="part6" data-entity-2="part11" id="msg44"><polygon fill="#181818" points="1668.9912,2159.6569,1678.9912,2163.6569,1668.9912,2167.6569,1672.9912,2163.6569" style="stroke:#181818;stroke-width:1;"/><line style="stroke:#181818;stroke-width:1;" x1="1010.1237" x2="1674.9912" y1="2163.6569" y2="2163.6569"/><text fill="#000000" font-family="sans-serif" font-size="13" lengthAdjust="spacing" textLength="139.4121" x="1017.1237" y="2140.1419">Update: status='failed',</text><text fill="#000000" font-family="sans-serif" font-size="13" lengthAdjust="spacing" textLength="89.2451" x="1017.1237" y="2157.8479">error message</text></g><g class="message" data-entity-1="part6" data-entity-2="part8" id="msg45"><polygon fill="#181818" points="1366.8701,2191.3629,1376.8701,2195.3629,1366.8701,2199.3629,1370.8701,2195.3629" style="stroke:#181818;stroke-width:1;"/><line style="stroke:#181818;stroke-width:1;" x1="1010.1237" x2="1372.8701" y1="2195.3629" y2="2195.3629"/><text fill="#000000" font-family="sans-serif" font-size="13" lengthAdjust="spacing" textLength="130.5201" x="1017.1237" y="2189.5539">publishStatus('failed')</text></g><g class="message" data-entity-1="part8" data-entity-2="part2" id="msg46"><polygon fill="#181818" points="234.5111,2230.069,224.5111,2234.069,234.5111,2238.069,230.5111,2234.069" style="stroke:#181818;stroke-width:1;"/><line style="stroke:#181818;stroke-width:1;stroke-dasharray:2,2;" x1="228.5111" x2="1377.8701" y1="2234.069" y2="2234.069"/><text fill="#000000" font-family="sans-serif" font-size="13" lengthAdjust="spacing" textLength="143.0912" x="240.5111" y="2228.26">Final status (via polling)</text></g><g class="message" data-entity-1="part2" data-entity-2="part1" id="msg47"><polygon fill="#181818" points="34.3089,2261.775,24.3089,2265.775,34.3089,2269.775,30.3089,2265.775" style="stroke:#181818;stroke-width:1;"/><line style="stroke:#181818;stroke-width:1;stroke-dasharray:2,2;" x1="28.3089" x2="222.5111" y1="2265.775" y2="2265.775"/><text fill="#000000" font-family="sans-serif" font-size="13" lengthAdjust="spacing" textLength="105.7551" x="40.3089" y="2259.966">Show build result</text></g><?plantuml-src ZLPRSnet57xVNt763mMcmSHkq-diZ3F3nNLeZOrZY1zA9wDTYKMna3Qwu526_zuZYLqkyMJw1EZSFdtdEqTORWM3H_RLCPap671IQB9COQ9vKJ0D0rOAjLuoQU4dw3akA8orofanq9psss_VjPA4v5PfE9iQfi-069Wc9T6Mvxma67RMq-gbClMEJPZg2yijZ4d1WdqyFd6uVvn0XvIyKqPNqvd9ZH6ks7Pe3Ss4sEvuU58um7rmpB6PRFQS4AE7Ld1zUCtnIUdd7SodO_j0vMY1Qrbm6N4ENajmgpnbMEeZenpluh97byM2j_Stnn5T_3v7uc1498bH8ow7zz5zDBmRtXy7z0cbws3iTmS99PPan30u6obPg44lekeboHJQxv765Fg2vy-8FR1q1fcpLibaFFPsf2g5LxZzdjaaGLyVCkYby0UN57REaAt1UoFm5suNuB35GmhvWkNFhMJGWtPTPnT0LUvypiECDypM2Gjk9-gPISnecC2J51e_LuSDhpDXuKxL_kFk904uIUPX-4mBbtLpBzDNKnvRCJV08MAlv8Q16su_k0oizqcOf4TSz3KZbXtCXwzXYNK6QtprcgEDOnuEHYaFmRJAzv02ao4c2Acvvtz8Myd3FiMVAgiyTy6xPb--lO3DFcoxwpFYl2ChNdYaLitaOMSx6qwtISGtJU5neLvWRmQX2bXnzi9qabnTGTUiPNwo0Awk4W_kFJobzTaNbPt0VpfIpzvMSVDqn4mjaZfiMb8Fl-OsynYuB1hH1IShXT9bWfl5O_1fxbrQ2Pf35KmKhU1YlkQA4oYL4EY7sehbwhRcIbg2m-xdKYhAqiktRI9AF6abKg43hiU51JN7JG3Ghxnzt9mNAPwrOSIMIgzJU7TnEUg5a_uOYRv09yt2RwdQahsqIyrNNB22cN1wNrgk915GVE865wjsql9bZBWPJZvtfvCFdoVtVrtVeHPMi28wcAxlFldl1kPQBQiXyR853pWPL6JlmGu7-tiZEThkh-tTm_drDvOxl6-W54okUMdJcRmuXw74bWZXXmsQV0wICSfeQoOlptqDfC5f5goeTeejvKIOcVpbF9u99HbiD2lL5ZQP9Z9VR6VortF8AVZJcNnt3h9S0ezrPlAt-1lfY6WEi6FJbh1qml9Ii6-CUlMQC91KETl13wPrQyy1RchSL4u-uolsUpjRumKNZA3JJgvUq4WbZdVS_2PKm8IKBTqtE4bRXHWYkUN_iYPMlqKMtu1XU7ThMjzB5H4qOzOt88AiQi5toz9tpQfuJVGqV_zpA6IF7ldKd9bJ6ViL6OVKE5nmZ7f9rTfMvTel_BApGVYbimEkaVEWbxhp_XsnGL8rMnE2fpfVy9NNmNpEz47IZwZorS70LARmXFdf5OfG8Bld3Ycilk82EbmKsuxVmY6ggbk_aIMnYxfalHBItKwuQhXGn0_ycvciyeyFWbvR4liWv6tdXqyhbgMeG2I8fTLVZVCDLKkytJPSp3_JVkYxDK4VlVTkzb7qz4TOiULqtVWHiEZHIfX00SPcpWaNvd-G_bf17ujl4JA3OiLriiGrZVyuVeHW5zAAZzw1yd25urwAcK-aT_oGn7MXcS6PJFu3?></g></svg>