<?plantuml 1.2026.1?><svg xmlns="http://www.w3.org/2000/svg" xmlns:xlink="http://www.w3.org/1999/xlink" contentStyleType="text/css" data-diagram-type="SEQUENCE" height="1111px" preserveAspectRatio="none" style="width:1005px;height:1111px;background:#FFFFFF;" version="1.1" viewBox="0 0 1005 1111" width="1005px" zoomAndPan="magnify"><title>Sequence Diagram: ZIP Upload &amp; Deploy (UC-08)</title><defs/><g><text fill="#000000" font-family="sans-serif" font-size="14" font-weight="bold" lengthAdjust="spacing" textLength="333.0587" x="337.726" y="29.9659">Sequence Diagram: ZIP Upload &amp; Deploy (UC-08)</text><g class="participant-lifeline" data-entity-uid="part1" data-qualified-name="U" id="part1-lifeline"><g><title>User</title><rect fill="#000000" fill-opacity="0.00000" height="904.1805" width="8" x="19.3089" y="124.1358"/><line style="stroke:#181818;stroke-width:0.5;stroke-dasharray:5,5;" x1="23" x2="23" y1="124.1358" y2="1028.3163"/></g></g><g class="participant-lifeline" data-entity-uid="part2" data-qualified-name="B" id="part2-lifeline"><g><title>Browser</title><rect fill="#000000" fill-opacity="0.00000" height="904.1805" width="8" x="81.9878" y="124.1358"/><line style="stroke:#181818;stroke-width:0.5;stroke-dasharray:5,5;" x1="85.6179" x2="85.6179" y1="124.1358" y2="1028.3163"/></g></g><g class="participant-lifeline" data-entity-uid="part3" data-qualified-name="PP" id="part3-lifeline"><g><title>Project Page</title><rect fill="#000000" fill-opacity="0.00000" height="904.1805" width="8" x="194.9021" y="124.1358"/><line style="stroke:#181818;stroke-width:0.5;stroke-dasharray:5,5;" x1="198.6652" x2="198.6652" y1="124.1358" y2="1028.3163"/></g></g><g class="participant-lifeline" data-entity-uid="part4" data-qualified-name="UP" id="part4-lifeline"><g><title>POST .api.upload..slug.</title><rect fill="#000000" fill-opacity="0.00000" height="904.1805" width="8" x="377.7622" y="124.1358"/><line style="stroke:#181818;stroke-width:0.5;stroke-dasharray:5,5;" x1="381.6415" x2="381.6415" y1="124.1358" y2="1028.3163"/></g></g><g class="participant-lifeline" data-entity-uid="part5" data-qualified-name="MINIO" id="part5-lifeline"><g><title>MinIO</title><rect fill="#000000" fill-opacity="0.00000" height="904.1805" width="8" x="558.8933" y="124.1358"/><line style="stroke:#181818;stroke-width:0.5;stroke-dasharray:5,5;" x1="562.5724" x2="562.5724" y1="124.1358" y2="1028.3163"/></g></g><g class="participant-lifeline" data-entity-uid="part6" data-qualified-name="DEP" id="part6-lifeline"><g><title>POST .api.projects.</title><rect fill="#000000" fill-opacity="0.00000" height="904.1805" width="8" x="667.796" y="124.1358"/><line style="stroke:#181818;stroke-width:0.5;stroke-dasharray:5,5;" x1="671.2143" x2="671.2143" y1="124.1358" y2="1028.3163"/></g></g><g class="participant-lifeline" data-entity-uid="part7" data-qualified-name="Q" id="part7-lifeline"><g><title>Build Queue</title><rect fill="#000000" fill-opacity="0.00000" height="904.1805" width="8" x="870.6632" y="124.1358"/><line style="stroke:#181818;stroke-width:0.5;stroke-dasharray:5,5;" x1="874.0354" x2="874.0354" y1="124.1358" y2="1028.3163"/></g></g><g class="participant-lifeline" data-entity-uid="part8" data-qualified-name="DB" id="part8-lifeline"><g><title>MongoDB</title><rect fill="#000000" fill-opacity="0.00000" height="904.1805" width="8" x="964.4009" y="124.1358"/><line style="stroke:#181818;stroke-width:0.5;stroke-dasharray:5,5;" x1="968.291" x2="968.291" y1="124.1358" y2="1028.3163"/></g></g><g class="participant participant-head" data-entity-uid="part1" data-qualified-name="U" id="part1-head"><text fill="#000000" font-family="sans-serif" font-size="14" lengthAdjust="spacing" textLength="30.6179" x="5" y="120.0339">User</text><ellipse cx="23.3089" cy="53.5679" fill="#E2E2F0" rx="8" ry="8" style="stroke:#181818;stroke-width:0.5;"/><path d="M23.3089,61.5679 L23.3089,88.5679 M10.3089,69.5679 L36.3089,69.5679 M23.3089,88.5679 L10.3089,103.5679 M23.3089,88.5679 L36.3089,103.5679" fill="none" style="stroke:#181818;stroke-width:0.5;"/></g><g class="participant participant-tail" data-entity-uid="part1" data-qualified-name="U" id="part1-tail"><text fill="#000000" font-family="sans-serif" font-size="14" lengthAdjust="spacing" textLength="30.6179" x="5" y="1042.2823">User</text><ellipse cx="23.3089" cy="1054.8842" fill="#E2E2F0" rx="8" ry="8" style="stroke:#181818;stroke-width:0.5;"/><path d="M23.3089,1062.8842 L23.3089,1089.8842 M10.3089,1070.8842 L36.3089,1070.8842 M23.3089,1089.8842 L10.3089,1104.8842 M23.3089,1089.8842 L36.3089,1104.8842" fill="none" style="stroke:#181818;stroke-width:0.5;"/></g><g class="participant participant-head" data-entity-uid="part2" data-qualified-name="B" id="part2-head"><rect fill="#E2E2F0" height="33.0679" rx="2.5" ry="2.5" style="stroke:#181818;stroke-width:0.5;" width="68.7398" x="51.6179" y="90.0679"/><text fill="#000000" font-family="sans-serif" font-size="14" lengthAdjust="spacing" textLength="54.7398" x="58.6179" y="112.0339">Browser</text></g><g class="participant participant-tail" data-entity-uid="part2" data-qualified-name="B" id="part2-tail"><rect fill="#E2E2F0" height="33.0679" rx="2.5" ry="2.5" style="stroke:#181818;stroke-width:0.5;" width="68.7398" x="51.6179" y="1027.3163"/><text fill="#000000" font-family="sans-serif" font-size="14" lengthAdjust="spacing" textLength="54.7398" x="58.6179" y="1049.2823">Browser</text></g><g class="participant participant-head" data-entity-uid="part3" data-qualified-name="PP" id="part3-head"><rect fill="#E2E2F0" height="33.0679" rx="2.5" ry="2.5" style="stroke:#181818;stroke-width:0.5;" width="96.4737" x="150.6652" y="90.0679"/><text fill="#000000" font-family="sans-serif" font-size="14" lengthAdjust="spacing" textLength="82.4737" x="157.6652" y="112.0339">Project Page</text></g><g class="participant participant-tail" data-entity-uid="part3" data-qualified-name="PP" id="part3-tail"><rect fill="#E2E2F0" height="33.0679" rx="2.5" ry="2.5" style="stroke:#181818;stroke-width:0.5;" width="96.4737" x="150.6652" y="1027.3163"/><text fill="#000000" font-family="sans-serif" font-size="14" lengthAdjust="spacing" textLength="82.4737" x="157.6652" y="1049.2823">Project Page</text></g><g class="participant participant-head" data-entity-uid="part4" data-qualified-name="UP" id="part4-head"><rect fill="#E2E2F0" height="33.0679" rx="2.5" ry="2.5" style="stroke:#181818;stroke-width:0.5;" width="172.2414" x="295.6415" y="90.0679"/><text fill="#000000" font-family="sans-serif" font-size="14" lengthAdjust="spacing" textLength="158.2414" x="302.6415" y="112.0339">POST /api/upload/{slug}</text></g><g class="participant participant-tail" data-entity-uid="part4" data-qualified-name="UP" id="part4-tail"><rect fill="#E2E2F0" height="33.0679" rx="2.5" ry="2.5" style="stroke:#181818;stroke-width:0.5;" width="172.2414" x="295.6415" y="1027.3163"/><text fill="#000000" font-family="sans-serif" font-size="14" lengthAdjust="spacing" textLength="158.2414" x="302.6415" y="1049.2823">POST /api/upload/{slug}</text></g><g class="participant participant-head" data-entity-uid="part5" data-qualified-name="MINIO" id="part5-head"><rect fill="#E2E2F0" height="33.0679" rx="2.5" ry="2.5" style="stroke:#181818;stroke-width:0.5;" width="54.6418" x="535.5724" y="90.0679"/><text fill="#000000" font-family="sans-serif" font-size="14" lengthAdjust="spacing" textLength="40.6418" x="542.5724" y="112.0339">MinIO</text></g><g class="participant participant-tail" data-entity-uid="part5" data-qualified-name="MINIO" id="part5-tail"><rect fill="#E2E2F0" height="33.0679" rx="2.5" ry="2.5" style="stroke:#181818;stroke-width:0.5;" width="54.6418" x="535.5724" y="1027.3163"/><text fill="#000000" font-family="sans-serif" font-size="14" lengthAdjust="spacing" textLength="40.6418" x="542.5724" y="1049.2823">MinIO</text></g><g class="participant participant-head" data-entity-uid="part6" data-qualified-name="DEP" id="part6-head"><rect fill="#E2E2F0" height="52.1358" rx="2.5" ry="2.5" style="stroke:#181818;stroke-width:0.5;" width="143.1635" x="600.2143" y="71"/><text fill="#000000" font-family="sans-serif" font-size="14" lengthAdjust="spacing" textLength="127.0635" x="608.2643" y="92.9659">POST /api/projects/</text><text fill="#000000" font-family="sans-serif" font-size="14" lengthAdjust="spacing" textLength="129.1635" x="607.2143" y="112.0339">{slug}/deployments</text></g><g class="participant participant-tail" data-entity-uid="part6" data-qualified-name="DEP" id="part6-tail"><rect fill="#E2E2F0" height="52.1358" rx="2.5" ry="2.5" style="stroke:#181818;stroke-width:0.5;" width="143.1635" x="600.2143" y="1027.3163"/><text fill="#000000" font-family="sans-serif" font-size="14" lengthAdjust="spacing" textLength="127.0635" x="608.2643" y="1049.2823">POST /api/projects/</text><text fill="#000000" font-family="sans-serif" font-size="14" lengthAdjust="spacing" textLength="129.1635" x="607.2143" y="1068.3502">{slug}/deployments</text></g><g class="participant participant-head" data-entity-uid="part7" data-qualified-name="Q" id="part7-head"><rect fill="#E2E2F0" height="33.0679" rx="2.5" ry="2.5" style="stroke:#181818;stroke-width:0.5;" width="95.2557" x="827.0354" y="90.0679"/><text fill="#000000" font-family="sans-serif" font-size="14" lengthAdjust="spacing" textLength="81.2557" x="834.0354" y="112.0339">Build Queue</text></g><g class="participant participant-tail" data-entity-uid="part7" data-qualified-name="Q" id="part7-tail"><rect fill="#E2E2F0" height="33.0679" rx="2.5" ry="2.5" style="stroke:#181818;stroke-width:0.5;" width="95.2557" x="827.0354" y="1027.3163"/><text fill="#000000" font-family="sans-serif" font-size="14" lengthAdjust="spacing" textLength="81.2557" x="834.0354" y="1049.2823">Build Queue</text></g><g class="participant participant-head" data-entity-uid="part8" data-qualified-name="DB" id="part8-head"><text fill="#000000" font-family="sans-serif" font-size="14" lengthAdjust="spacing" textLength="66.2197" x="932.291" y="120.0339">MongoDB</text><path d="M950.4009,69.0679 C950.4009,59.0679 968.4009,59.0679 968.4009,59.0679 C968.4009,59.0679 986.4009,59.0679 986.4009,69.0679 L986.4009,95.0679 C986.4009,105.0679 968.4009,105.0679 968.4009,105.0679 C968.4009,105.0679 950.4009,105.0679 950.4009,95.0679 L950.4009,69.0679" fill="#E2E2F0" style="stroke:#181818;stroke-width:0.5;"/><path d="M950.4009,69.0679 C950.4009,79.0679 968.4009,79.0679 968.4009,79.0679 C968.4009,79.0679 986.4009,79.0679 986.4009,69.0679" fill="none" style="stroke:#181818;stroke-width:0.5;"/></g><g class="participant participant-tail" data-entity-uid="part8" data-qualified-name="DB" id="part8-tail"><text fill="#000000" font-family="sans-serif" font-size="14" lengthAdjust="spacing" textLength="66.2197" x="932.291" y="1042.2823">MongoDB</text><path d="M950.4009,1056.3842 C950.4009,1046.3842 968.4009,1046.3842 968.4009,1046.3842 C968.4009,1046.3842 986.4009,1046.3842 986.4009,1056.3842 L986.4009,1082.3842 C986.4009,1092.3842 968.4009,1092.3842 968.4009,1092.3842 C968.4009,1092.3842 950.4009,1092.3842 950.4009,1082.3842 L950.4009,1056.3842" fill="#E2E2F0" style="stroke:#181818;stroke-width:0.5;"/><path d="M950.4009,1056.3842 C950.4009,1066.3842 968.4009,1066.3842 968.4009,1066.3842 C968.4009,1066.3842 986.4009,1066.3842 986.4009,1056.3842" fill="none" style="stroke:#181818;stroke-width:0.5;"/></g><g class="message" data-entity-1="part1" data-entity-2="part3" id="msg1"><polygon fill="#181818" points="186.9021,153.8419,196.9021,157.8419,186.9021,161.8419,190.9021,157.8419" style="stroke:#181818;stroke-width:1;"/><line style="stroke:#181818;stroke-width:1;" x1="23.3089" x2="192.9021" y1="157.8419" y2="157.8419"/><text fill="#000000" font-family="sans-serif" font-size="13" lengthAdjust="spacing" textLength="140.5301" x="30.3089" y="152.0328">Select "Upload ZIP" tab</text></g><g class="message" data-entity-1="part1" data-entity-2="part3" id="msg2"><polygon fill="#181818" points="186.9021,185.5479,196.9021,189.5479,186.9021,193.5479,190.9021,189.5479" style="stroke:#181818;stroke-width:1;"/><line style="stroke:#181818;stroke-width:1;" x1="23.3089" x2="192.9021" y1="189.5479" y2="189.5479"/><text fill="#000000" font-family="sans-serif" font-size="13" lengthAdjust="spacing" textLength="90.5191" x="30.3089" y="183.7389">Choose ZIP file</text></g><g class="message" data-entity-1="part3" data-entity-2="part4" id="msg3"><polygon fill="#181818" points="369.7622,234.9599,379.7622,238.9599,369.7622,242.9599,373.7622,238.9599" style="stroke:#181818;stroke-width:1;"/><line style="stroke:#181818;stroke-width:1;" x1="198.9021" x2="375.7622" y1="238.9599" y2="238.9599"/><text fill="#000000" font-family="sans-serif" font-size="13" lengthAdjust="spacing" textLength="158.8602" x="205.9021" y="215.4449">POST multipart/form-data</text><text fill="#000000" font-family="sans-serif" font-size="13" lengthAdjust="spacing" textLength="100.4251" x="205.9021" y="233.1509">{file: archive.zip}</text></g><g class="message" data-entity-1="part4" data-entity-2="part4" id="msg4"><line style="stroke:#181818;stroke-width:1;" x1="381.7622" x2="423.7622" y1="270.6659" y2="270.6659"/><line style="stroke:#181818;stroke-width:1;" x1="423.7622" x2="423.7622" y1="270.6659" y2="283.6659"/><line style="stroke:#181818;stroke-width:1;" x1="382.7622" x2="423.7622" y1="283.6659" y2="283.6659"/><polygon fill="#181818" points="392.7622,279.6659,382.7622,283.6659,392.7622,287.6659,388.7622,283.6659" style="stroke:#181818;stroke-width:1;"/><text fill="#000000" font-family="sans-serif" font-size="13" lengthAdjust="spacing" textLength="81.6531" x="388.7622" y="264.8569">requireAuth()</text></g><g class="message" data-entity-1="part4" data-entity-2="part8" id="msg5"><polygon fill="#181818" points="956.4009,329.0779,966.4009,333.0779,956.4009,337.0779,960.4009,333.0779" style="stroke:#181818;stroke-width:1;"/><line style="stroke:#181818;stroke-width:1;" x1="381.7622" x2="962.4009" y1="333.0779" y2="333.0779"/><text fill="#000000" font-family="sans-serif" font-size="13" lengthAdjust="spacing" textLength="119.3531" x="388.7622" y="309.5629">Find project by slug</text><text fill="#000000" font-family="sans-serif" font-size="13" lengthAdjust="spacing" textLength="113.4121" x="388.7622" y="327.2689">+ ownership check</text></g><g class="message" data-entity-1="part8" data-entity-2="part4" id="msg6"><polygon fill="#181818" points="392.7622,360.784,382.7622,364.784,392.7622,368.784,388.7622,364.784" style="stroke:#181818;stroke-width:1;"/><line style="stroke:#181818;stroke-width:1;stroke-dasharray:2,2;" x1="386.7622" x2="967.4009" y1="364.784" y2="364.784"/><text fill="#000000" font-family="sans-serif" font-size="13" lengthAdjust="spacing" textLength="42.718" x="398.7622" y="358.975">Project</text></g><g class="message" data-entity-1="part4" data-entity-2="part4" id="msg7"><line style="stroke:#181818;stroke-width:1;" x1="381.7622" x2="423.7622" y1="396.49" y2="396.49"/><line style="stroke:#181818;stroke-width:1;" x1="423.7622" x2="423.7622" y1="396.49" y2="409.49"/><line style="stroke:#181818;stroke-width:1;" x1="382.7622" x2="423.7622" y1="409.49" y2="409.49"/><polygon fill="#181818" points="392.7622,405.49,382.7622,409.49,392.7622,413.49,388.7622,409.49" style="stroke:#181818;stroke-width:1;"/><text fill="#000000" font-family="sans-serif" font-size="13" lengthAdjust="spacing" textLength="158.3011" x="388.7622" y="390.681">Parse multipart form data</text></g><g class="message" data-entity-1="part4" data-entity-2="part4" id="msg8"><line style="stroke:#181818;stroke-width:1;" x1="381.7622" x2="423.7622" y1="441.196" y2="441.196"/><line style="stroke:#181818;stroke-width:1;" x1="423.7622" x2="423.7622" y1="441.196" y2="454.196"/><line style="stroke:#181818;stroke-width:1;" x1="382.7622" x2="423.7622" y1="454.196" y2="454.196"/><polygon fill="#181818" points="392.7622,450.196,382.7622,454.196,392.7622,458.196,388.7622,454.196" style="stroke:#181818;stroke-width:1;"/><text fill="#000000" font-family="sans-serif" font-size="13" lengthAdjust="spacing" textLength="109.0961" x="388.7622" y="435.387">Validate file exists</text></g><g class="message" data-entity-1="part4" data-entity-2="part5" id="msg9"><polygon fill="#181818" points="550.8933,499.608,560.8933,503.608,550.8933,507.608,554.8933,503.608" style="stroke:#181818;stroke-width:1;"/><line style="stroke:#181818;stroke-width:1;" x1="381.7622" x2="556.8933" y1="503.608" y2="503.608"/><text fill="#000000" font-family="sans-serif" font-size="13" lengthAdjust="spacing" textLength="59.9431" x="388.7622" y="480.093">Upload to</text><text fill="#000000" font-family="sans-serif" font-size="13" lengthAdjust="spacing" textLength="157.1311" x="388.7622" y="497.799">uploads/{slug}/{filename}</text></g><g class="message" data-entity-1="part5" data-entity-2="part4" id="msg10"><polygon fill="#181818" points="392.7622,531.314,382.7622,535.314,392.7622,539.314,388.7622,535.314" style="stroke:#181818;stroke-width:1;"/><line style="stroke:#181818;stroke-width:1;stroke-dasharray:2,2;" x1="386.7622" x2="561.8933" y1="535.314" y2="535.314"/><text fill="#000000" font-family="sans-serif" font-size="13" lengthAdjust="spacing" textLength="109.7721" x="398.7622" y="529.505">Upload successful</text></g><g class="message" data-entity-1="part4" data-entity-2="part8" id="msg11"><polygon fill="#181818" points="956.4009,580.7261,966.4009,584.7261,956.4009,588.7261,960.4009,584.7261" style="stroke:#181818;stroke-width:1;"/><line style="stroke:#181818;stroke-width:1;" x1="381.7622" x2="962.4009" y1="584.7261" y2="584.7261"/><text fill="#000000" font-family="sans-serif" font-size="13" lengthAdjust="spacing" textLength="94.5231" x="388.7622" y="561.2111">Update project:</text><text fill="#000000" font-family="sans-serif" font-size="13" lengthAdjust="spacing" textLength="142.4281" x="388.7622" y="578.9171">zipFileName = filename</text></g><g class="message" data-entity-1="part8" data-entity-2="part4" id="msg12"><polygon fill="#181818" points="392.7622,612.4321,382.7622,616.4321,392.7622,620.4321,388.7622,616.4321" style="stroke:#181818;stroke-width:1;"/><line style="stroke:#181818;stroke-width:1;stroke-dasharray:2,2;" x1="386.7622" x2="967.4009" y1="616.4321" y2="616.4321"/><text fill="#000000" font-family="sans-serif" font-size="13" lengthAdjust="spacing" textLength="52.806" x="398.7622" y="610.6231">Updated</text></g><g class="message" data-entity-1="part4" data-entity-2="part3" id="msg13"><polygon fill="#181818" points="209.9021,644.1381,199.9021,648.1381,209.9021,652.1381,205.9021,648.1381" style="stroke:#181818;stroke-width:1;"/><line style="stroke:#181818;stroke-width:1;stroke-dasharray:2,2;" x1="203.9021" x2="380.7622" y1="648.1381" y2="648.1381"/><text fill="#000000" font-family="sans-serif" font-size="13" lengthAdjust="spacing" textLength="125.6191" x="215.9021" y="642.3291">200 {fileName, path}</text></g><g class="message" data-entity-1="part3" data-entity-2="part1" id="msg14"><polygon fill="#181818" points="34.3089,675.8441,24.3089,679.8441,34.3089,683.8441,30.3089,679.8441" style="stroke:#181818;stroke-width:1;"/><line style="stroke:#181818;stroke-width:1;stroke-dasharray:2,2;" x1="28.3089" x2="197.9021" y1="679.8441" y2="679.8441"/><text fill="#000000" font-family="sans-serif" font-size="13" lengthAdjust="spacing" textLength="151.5931" x="40.3089" y="674.0351">Show "Upload complete"</text></g><g class="message" data-entity-1="part1" data-entity-2="part3" id="msg15"><polygon fill="#181818" points="186.9021,707.5501,196.9021,711.5501,186.9021,715.5501,190.9021,711.5501" style="stroke:#181818;stroke-width:1;"/><line style="stroke:#181818;stroke-width:1;" x1="23.3089" x2="192.9021" y1="711.5501" y2="711.5501"/><text fill="#000000" font-family="sans-serif" font-size="13" lengthAdjust="spacing" textLength="84.7601" x="30.3089" y="705.7411">Click "Deploy"</text></g><g class="message" data-entity-1="part3" data-entity-2="part6" id="msg16"><polygon fill="#181818" points="659.796,739.2562,669.796,743.2562,659.796,747.2562,663.796,743.2562" style="stroke:#181818;stroke-width:1;"/><line style="stroke:#181818;stroke-width:1;" x1="198.9021" x2="665.796" y1="743.2562" y2="743.2562"/><text fill="#000000" font-family="sans-serif" font-size="13" lengthAdjust="spacing" textLength="237.9262" x="205.9021" y="737.4472">POST /api/projects/{slug}/deployments</text></g><g class="message" data-entity-1="part6" data-entity-2="part8" id="msg17"><polygon fill="#181818" points="956.4009,806.3742,966.4009,810.3742,956.4009,814.3742,960.4009,810.3742" style="stroke:#181818;stroke-width:1;"/><line style="stroke:#181818;stroke-width:1;" x1="671.796" x2="962.4009" y1="810.3742" y2="810.3742"/><text fill="#000000" font-family="sans-serif" font-size="13" lengthAdjust="spacing" textLength="117.0001" x="678.796" y="769.1532">Create deployment</text><text fill="#000000" font-family="sans-serif" font-size="13" lengthAdjust="spacing" textLength="165.9842" x="678.796" y="786.8592">sourceSnapshot.type = 'zip'</text><text fill="#000000" font-family="sans-serif" font-size="13" lengthAdjust="spacing" textLength="189.3842" x="678.796" y="804.5652">sourceSnapshot.zipPath = path</text></g><g class="message" data-entity-1="part8" data-entity-2="part6" id="msg18"><polygon fill="#181818" points="682.796,838.0802,672.796,842.0802,682.796,846.0802,678.796,842.0802" style="stroke:#181818;stroke-width:1;"/><line style="stroke:#181818;stroke-width:1;stroke-dasharray:2,2;" x1="676.796" x2="967.4009" y1="842.0802" y2="842.0802"/><text fill="#000000" font-family="sans-serif" font-size="13" lengthAdjust="spacing" textLength="124.5141" x="688.796" y="836.2712">Deployment created</text></g><g class="message" data-entity-1="part6" data-entity-2="part7" id="msg19"><polygon fill="#181818" points="862.6632,869.7862,872.6632,873.7862,862.6632,877.7862,866.6632,873.7862" style="stroke:#181818;stroke-width:1;"/><line style="stroke:#181818;stroke-width:1;" x1="671.796" x2="868.6632" y1="873.7862" y2="873.7862"/><text fill="#000000" font-family="sans-serif" font-size="13" lengthAdjust="spacing" textLength="178.8672" x="678.796" y="867.9772">enqueueBuild(deploymentId)</text></g><g class="message" data-entity-1="part7" data-entity-2="part6" id="msg20"><polygon fill="#181818" points="682.796,901.4923,672.796,905.4923,682.796,909.4923,678.796,905.4923" style="stroke:#181818;stroke-width:1;"/><line style="stroke:#181818;stroke-width:1;stroke-dasharray:2,2;" x1="676.796" x2="873.6632" y1="905.4923" y2="905.4923"/><text fill="#000000" font-family="sans-serif" font-size="13" lengthAdjust="spacing" textLength="84.8771" x="688.796" y="899.6833">Job enqueued</text></g><g class="message" data-entity-1="part6" data-entity-2="part3" id="msg21"><polygon fill="#181818" points="209.9021,933.1983,199.9021,937.1983,209.9021,941.1983,205.9021,937.1983" style="stroke:#181818;stroke-width:1;"/><line style="stroke:#181818;stroke-width:1;stroke-dasharray:2,2;" x1="203.9021" x2="670.796" y1="937.1983" y2="937.1983"/><text fill="#000000" font-family="sans-serif" font-size="13" lengthAdjust="spacing" textLength="108.9531" x="215.9021" y="931.3893">201 {deployment}</text></g><path d="M757,950.1983 L757,1013.1983 L990,1013.1983 L990,960.1983 L980,950.1983 L757,950.1983" fill="#FEFFDD" style="stroke:#181818;stroke-width:0.5;"/><path d="M980,950.1983 L980,960.1983 L990,960.1983 L980,950.1983" fill="#FEFFDD" style="stroke:#181818;stroke-width:0.5;"/><text fill="#000000" font-family="sans-serif" font-size="13" lengthAdjust="spacing" textLength="212.6412" x="763" y="969.0953">Worker downloads ZIP from MinIO</text><text fill="#000000" font-family="sans-serif" font-size="13" lengthAdjust="spacing" textLength="171.8602" x="763" y="986.8013">instead of git clone, extracts</text><text fill="#000000" font-family="sans-serif" font-size="13" lengthAdjust="spacing" textLength="159.8222" x="763" y="1004.5073">and runs build commands</text><?plantuml-src TLHDRzim3BthLn0-h2ssrDrEWu4DcECLo82s3Zflm92B8ZEn5bjo9RcVo7yV9Tj9cc8tWtmat-EZxAIh4MxnhaCb43B9ruOt2VoPvL2qjUObl8CCwUi9JelfvEBp6MDSE6qWAYoQ2BY5WhNSE2baovM3A3NwOKobhrEvqNzHECZv6aC-puy0DxS_8UQjZBimFNwnTRVUzcEEi5TIpMv2vcfsFRlvNwEsdsdZXUgRnMNGqw1oDfHdtuywfvsiIvXtsFKivwpaZY-vHPggrLfdQL-OCbR0v2l9I6Y9jPSM3MkZ3KP0HNl0jDAQElZLhcIDBCzzfg1C8DjqjPEUHhpIffduYSJO8nFWHbJo7i-VPRkbaRj2GyP9WzywLvsU3V4iJU1IgX86uR1y0gzxeTw3Vb1eR2LR41MA3SjIc8mSUlHXzvmRuhlZ1PuNU5u7c5-ybXJ280dmKLfdXtHm9HdFoEc5wZsrWwbn4ATuWriMi3ikGudjX41hLrtD3hGLRPWtg4iMYfPoIOskgH5yWR7deRQ-fEox36vykhY0GC3NVO2MkseRBF4rv6Qb7tPU2jsqDJgC3koUrb9i8EhVHZIOIPSqkFdwzDuU7YFeg6Xgq2lQPnVAwiu8l5MyjPLsv-wfzTfEIEh9coG5Ss9FUIzYr1sePBkM8CAGSfmxJm3LdR_mSEod--6pyepDzor-wEM878ft2_m8B_iokakbIOM-HqCF1k2tDXlwBEdcWklzuHlTG7YuX93AEgJrwXMi9J6ijI8dyD4P-iDO0d2wOjCf2ylm8Cc6XaAM8SNzCFOF?></g></svg>